<svg width="58" height="18" viewBox="0 0 58 18" fill="none" xmlns="http://www.w3.org/2000/svg">
<path d="M6.552 0.936H7.596V9.396H9.36V10.368H7.596V13.5H6.444V10.368H0.648V9.378L6.552 0.936ZM6.444 2.664L1.782 9.396H6.444V2.664ZM13.332 13.5H12.018V11.916H13.332V13.5ZM23.5077 7.254C23.5077 6.486 23.4657 5.808 23.3817 5.22C23.2977 4.632 23.1477 4.062 22.9317 3.51C22.7157 2.958 22.3857 2.532 21.9417 2.232C21.5097 1.932 20.9757 1.782 20.3397 1.782C18.2637 1.782 17.2257 3.648 17.2257 7.38C17.2257 9.132 17.4597 10.47 17.9277 11.394C18.4077 12.318 19.2237 12.78 20.3757 12.78C21.0237 12.78 21.5637 12.624 21.9957 12.312C22.4397 11.988 22.7637 11.538 22.9677 10.962C23.1717 10.374 23.3097 9.792 23.3817 9.216C23.4657 8.64 23.5077 7.986 23.5077 7.254ZM20.3757 0.809999C21.0957 0.809999 21.7197 0.947999 22.2477 1.224C22.7877 1.5 23.2077 1.848 23.5077 2.268C23.8077 2.676 24.0477 3.192 24.2277 3.816C24.4077 4.428 24.5217 5.01 24.5697 5.562C24.6297 6.102 24.6597 6.708 24.6597 7.38C24.6597 8.292 24.5937 9.102 24.4617 9.81C24.3417 10.518 24.1317 11.184 23.8317 11.808C23.5317 12.432 23.0877 12.912 22.4997 13.248C21.9237 13.584 21.2157 13.752 20.3757 13.752C19.5357 13.752 18.8217 13.584 18.2337 13.248C17.6457 12.912 17.2017 12.432 16.9017 11.808C16.6017 11.172 16.3857 10.494 16.2537 9.774C16.1337 9.042 16.0737 8.202 16.0737 7.254C16.0737 6.546 16.1037 5.91 16.1637 5.346C16.2237 4.77 16.3437 4.194 16.5237 3.618C16.7157 3.03 16.9677 2.538 17.2797 2.142C17.5917 1.746 18.0057 1.428 18.5217 1.188C19.0497 0.935999 19.6677 0.809999 20.3757 0.809999ZM33.6897 7.254C33.6897 6.486 33.6477 5.808 33.5637 5.22C33.4797 4.632 33.3297 4.062 33.1137 3.51C32.8977 2.958 32.5677 2.532 32.1237 2.232C31.6917 1.932 31.1577 1.782 30.5217 1.782C28.4457 1.782 27.4077 3.648 27.4077 7.38C27.4077 9.132 27.6417 10.47 28.1097 11.394C28.5897 12.318 29.4057 12.78 30.5577 12.78C31.2057 12.78 31.7457 12.624 32.1777 12.312C32.6217 11.988 32.9457 11.538 33.1497 10.962C33.3537 10.374 33.4917 9.792 33.5637 9.216C33.6477 8.64 33.6897 7.986 33.6897 7.254ZM30.5577 0.809999C31.2777 0.809999 31.9017 0.947999 32.4297 1.224C32.9697 1.5 33.3897 1.848 33.6897 2.268C33.9897 2.676 34.2297 3.192 34.4097 3.816C34.5897 4.428 34.7037 5.01 34.7517 5.562C34.8117 6.102 34.8417 6.708 34.8417 7.38C34.8417 8.292 34.7757 9.102 34.6437 9.81C34.5237 10.518 34.3137 11.184 34.0137 11.808C33.7137 12.432 33.2697 12.912 32.6817 13.248C32.1057 13.584 31.3977 13.752 30.5577 13.752C29.7177 13.752 29.0037 13.584 28.4157 13.248C27.8277 12.912 27.3837 12.432 27.0837 11.808C26.7837 11.172 26.5677 10.494 26.4357 9.774C26.3157 9.042 26.2557 8.202 26.2557 7.254C26.2557 6.546 26.2857 5.91 26.3457 5.346C26.4057 4.77 26.5257 4.194 26.7057 3.618C26.8977 3.03 27.1497 2.538 27.4617 2.142C27.7737 1.746 28.1877 1.428 28.7037 1.188C29.2317 0.935999 29.8497 0.809999 30.5577 0.809999ZM46.4514 4.896C45.4914 4.896 44.7234 5.256 44.1474 5.976C43.5834 6.684 43.3014 7.68 43.3014 8.964C43.3014 10.032 43.5834 10.938 44.1474 11.682C44.7114 12.414 45.4794 12.78 46.4514 12.78C47.3514 12.78 48.1074 12.42 48.7194 11.7C49.3314 10.968 49.6374 10.068 49.6374 9C49.6374 7.8 49.3674 6.816 48.8274 6.048C48.2994 5.28 47.5074 4.896 46.4514 4.896ZM43.3014 12.006V17.172H42.2214V4.176H43.3014V5.814H43.3374C43.6374 5.226 44.0934 4.764 44.7054 4.428C45.3294 4.092 45.9534 3.924 46.5774 3.924C48.0054 3.924 49.0614 4.374 49.7454 5.274C50.4414 6.162 50.7894 7.344 50.7894 8.82C50.7894 10.224 50.4294 11.4 49.7094 12.348C49.0014 13.284 47.9754 13.752 46.6314 13.752C45.9594 13.752 45.3174 13.602 44.7054 13.302C44.1054 12.99 43.6374 12.558 43.3014 12.006ZM54.978 13.5H53.664V11.916H54.978V13.5Z" fill="#828282"/>
<path d="M0 7.542H57.0121V8.586H0V7.542Z" fill="#828282"/>
</svg>
