<svg width="78" height="18" viewBox="0 0 78 18" fill="none" xmlns="http://www.w3.org/2000/svg">
<path d="M9.054 3.924H7.866C7.734 3.252 7.464 2.73 7.056 2.358C6.648 1.974 6.114 1.782 5.454 1.782C5.022 1.782 4.632 1.854 4.284 1.998C3.936 2.13 3.648 2.292 3.42 2.484C3.192 2.676 2.988 2.952 2.808 3.312C2.628 3.66 2.49 3.972 2.394 4.248C2.298 4.524 2.208 4.896 2.124 5.364C2.052 5.82 2.004 6.18 1.98 6.444C1.956 6.708 1.926 7.068 1.89 7.524C2.13 7.2 2.322 6.954 2.466 6.786C2.622 6.618 2.838 6.42 3.114 6.192C3.39 5.964 3.696 5.802 4.032 5.706C4.38 5.598 4.776 5.544 5.22 5.544C6.492 5.544 7.482 5.91 8.19 6.642C8.898 7.362 9.252 8.358 9.252 9.63C9.252 10.914 8.892 11.922 8.172 12.654C7.464 13.386 6.468 13.752 5.184 13.752C3.816 13.752 2.73 13.272 1.926 12.312C1.134 11.352 0.738 9.81 0.738 7.686C0.738 7.038 0.774 6.414 0.846 5.814C0.93 5.214 1.08 4.602 1.296 3.978C1.512 3.354 1.782 2.814 2.106 2.358C2.442 1.902 2.886 1.53 3.438 1.242C3.99 0.953999 4.626 0.809999 5.346 0.809999C6.366 0.809999 7.206 1.08 7.866 1.62C8.538 2.16 8.934 2.928 9.054 3.924ZM5.184 6.516C4.32 6.516 3.624 6.822 3.096 7.434C2.58 8.034 2.322 8.778 2.322 9.666C2.322 10.482 2.562 11.208 3.042 11.844C3.522 12.468 4.242 12.78 5.202 12.78C6.186 12.78 6.912 12.468 7.38 11.844C7.86 11.22 8.1 10.47 8.1 9.594C8.1 7.542 7.128 6.516 5.184 6.516ZM18.318 7.254C18.318 6.486 18.276 5.808 18.192 5.22C18.108 4.632 17.958 4.062 17.742 3.51C17.526 2.958 17.196 2.532 16.752 2.232C16.32 1.932 15.786 1.782 15.15 1.782C13.074 1.782 12.036 3.648 12.036 7.38C12.036 9.132 12.27 10.47 12.738 11.394C13.218 12.318 14.034 12.78 15.186 12.78C15.834 12.78 16.374 12.624 16.806 12.312C17.25 11.988 17.574 11.538 17.778 10.962C17.982 10.374 18.12 9.792 18.192 9.216C18.276 8.64 18.318 7.986 18.318 7.254ZM15.186 0.809999C15.906 0.809999 16.53 0.947999 17.058 1.224C17.598 1.5 18.018 1.848 18.318 2.268C18.618 2.676 18.858 3.192 19.038 3.816C19.218 4.428 19.332 5.01 19.38 5.562C19.44 6.102 19.47 6.708 19.47 7.38C19.47 8.292 19.404 9.102 19.272 9.81C19.152 10.518 18.942 11.184 18.642 11.808C18.342 12.432 17.898 12.912 17.31 13.248C16.734 13.584 16.026 13.752 15.186 13.752C14.346 13.752 13.632 13.584 13.044 13.248C12.456 12.912 12.012 12.432 11.712 11.808C11.412 11.172 11.196 10.494 11.064 9.774C10.944 9.042 10.884 8.202 10.884 7.254C10.884 6.546 10.914 5.91 10.974 5.346C11.034 4.77 11.154 4.194 11.334 3.618C11.526 3.03 11.778 2.538 12.09 2.142C12.402 1.746 12.816 1.428 13.332 1.188C13.86 0.935999 14.478 0.809999 15.186 0.809999ZM28.4999 7.254C28.4999 6.486 28.4579 5.808 28.3739 5.22C28.2899 4.632 28.1399 4.062 27.9239 3.51C27.7079 2.958 27.3779 2.532 26.9339 2.232C26.5019 1.932 25.9679 1.782 25.3319 1.782C23.2559 1.782 22.2179 3.648 22.2179 7.38C22.2179 9.132 22.4519 10.47 22.9199 11.394C23.3999 12.318 24.2159 12.78 25.3679 12.78C26.0159 12.78 26.5559 12.624 26.9879 12.312C27.4319 11.988 27.7559 11.538 27.9599 10.962C28.1639 10.374 28.3019 9.792 28.3739 9.216C28.4579 8.64 28.4999 7.986 28.4999 7.254ZM25.3679 0.809999C26.0879 0.809999 26.7119 0.947999 27.2399 1.224C27.7799 1.5 28.1999 1.848 28.4999 2.268C28.7999 2.676 29.0399 3.192 29.2199 3.816C29.3999 4.428 29.5139 5.01 29.5619 5.562C29.6219 6.102 29.6519 6.708 29.6519 7.38C29.6519 8.292 29.5859 9.102 29.4539 9.81C29.3339 10.518 29.1239 11.184 28.8239 11.808C28.5239 12.432 28.0799 12.912 27.4919 13.248C26.9159 13.584 26.2079 13.752 25.3679 13.752C24.5279 13.752 23.8139 13.584 23.2259 13.248C22.6379 12.912 22.1939 12.432 21.8939 11.808C21.5939 11.172 21.3779 10.494 21.2459 9.774C21.1259 9.042 21.0659 8.202 21.0659 7.254C21.0659 6.546 21.0959 5.91 21.1559 5.346C21.2159 4.77 21.3359 4.194 21.5159 3.618C21.7079 3.03 21.9599 2.538 22.2719 2.142C22.5839 1.746 22.9979 1.428 23.5139 1.188C24.0419 0.935999 24.6599 0.809999 25.3679 0.809999ZM33.6959 13.5H32.3819V11.916H33.6959V13.5ZM38.2016 4.968H36.9776C36.9776 3.72 37.3496 2.718 38.0936 1.962C38.8496 1.194 39.8516 0.809999 41.0996 0.809999C42.3356 0.809999 43.2956 1.14 43.9796 1.8C44.6636 2.46 45.0056 3.3 45.0056 4.32C45.0056 4.956 44.8796 5.532 44.6276 6.048C44.3756 6.564 44.0276 7.008 43.5836 7.38C43.1396 7.74 42.6956 8.052 42.2516 8.316C41.8196 8.58 41.3216 8.868 40.7576 9.18C40.2056 9.48 39.7796 9.744 39.4796 9.972C38.9756 10.356 38.5796 10.746 38.2916 11.142C38.0036 11.526 37.8476 11.988 37.8236 12.528H44.8976V13.5H36.5996C36.5996 12.204 36.9296 11.172 37.5896 10.404C37.9856 9.936 38.4416 9.504 38.9576 9.108C39.4736 8.712 39.9416 8.394 40.3616 8.154C40.7936 7.914 41.2256 7.656 41.6576 7.38C42.0896 7.104 42.4496 6.846 42.7376 6.606C43.0376 6.354 43.2776 6.042 43.4576 5.67C43.6496 5.298 43.7456 4.872 43.7456 4.392C43.7456 3.588 43.4816 2.952 42.9536 2.484C42.4256 2.016 41.7596 1.782 40.9556 1.782C40.1516 1.782 39.4916 2.094 38.9756 2.718C38.4596 3.342 38.2016 4.092 38.2016 4.968ZM54.0536 7.254C54.0536 6.486 54.0116 5.808 53.9276 5.22C53.8436 4.632 53.6936 4.062 53.4776 3.51C53.2616 2.958 52.9316 2.532 52.4876 2.232C52.0556 1.932 51.5216 1.782 50.8856 1.782C48.8096 1.782 47.7716 3.648 47.7716 7.38C47.7716 9.132 48.0056 10.47 48.4736 11.394C48.9536 12.318 49.7696 12.78 50.9216 12.78C51.5696 12.78 52.1096 12.624 52.5416 12.312C52.9856 11.988 53.3096 11.538 53.5136 10.962C53.7176 10.374 53.8556 9.792 53.9276 9.216C54.0116 8.64 54.0536 7.986 54.0536 7.254ZM50.9216 0.809999C51.6416 0.809999 52.2656 0.947999 52.7936 1.224C53.3336 1.5 53.7536 1.848 54.0536 2.268C54.3536 2.676 54.5936 3.192 54.7736 3.816C54.9536 4.428 55.0676 5.01 55.1156 5.562C55.1756 6.102 55.2056 6.708 55.2056 7.38C55.2056 8.292 55.1396 9.102 55.0076 9.81C54.8876 10.518 54.6776 11.184 54.3776 11.808C54.0776 12.432 53.6336 12.912 53.0456 13.248C52.4696 13.584 51.7616 13.752 50.9216 13.752C50.0816 13.752 49.3676 13.584 48.7796 13.248C48.1916 12.912 47.7476 12.432 47.4476 11.808C47.1476 11.172 46.9316 10.494 46.7996 9.774C46.6796 9.042 46.6196 8.202 46.6196 7.254C46.6196 6.546 46.6496 5.91 46.7096 5.346C46.7696 4.77 46.8896 4.194 47.0696 3.618C47.2616 3.03 47.5136 2.538 47.8256 2.142C48.1376 1.746 48.5516 1.428 49.0676 1.188C49.5956 0.935999 50.2136 0.809999 50.9216 0.809999ZM66.8153 4.896C65.8553 4.896 65.0873 5.256 64.5113 5.976C63.9473 6.684 63.6653 7.68 63.6653 8.964C63.6653 10.032 63.9473 10.938 64.5113 11.682C65.0753 12.414 65.8433 12.78 66.8153 12.78C67.7153 12.78 68.4713 12.42 69.0833 11.7C69.6953 10.968 70.0013 10.068 70.0013 9C70.0013 7.8 69.7313 6.816 69.1913 6.048C68.6633 5.28 67.8713 4.896 66.8153 4.896ZM63.6653 12.006V17.172H62.5853V4.176H63.6653V5.814H63.7013C64.0013 5.226 64.4573 4.764 65.0693 4.428C65.6933 4.092 66.3173 3.924 66.9413 3.924C68.3693 3.924 69.4253 4.374 70.1093 5.274C70.8053 6.162 71.1533 7.344 71.1533 8.82C71.1533 10.224 70.7933 11.4 70.0733 12.348C69.3653 13.284 68.3393 13.752 66.9953 13.752C66.3233 13.752 65.6813 13.602 65.0693 13.302C64.4693 12.99 64.0013 12.558 63.6653 12.006ZM75.342 13.5H74.028V11.916H75.342V13.5Z" fill="#828282"/>
<path d="M0 7.542H77.376V8.586H0V7.542Z" fill="#828282"/>
</svg>
