<svg width="43" height="41" viewBox="0 0 43 41" fill="none" xmlns="http://www.w3.org/2000/svg">
<path fill-rule="evenodd" clip-rule="evenodd" d="M6.16346 2.37982C5.58994 2.37982 5.125 2.84476 5.125 3.41828C5.125 3.99181 5.58993 4.45674 6.16346 4.45674H10.3173C11.2732 4.45674 12.0481 5.23164 12.0481 6.18751V24.2308C12.0481 24.8043 12.513 25.2692 13.0865 25.2692H30.2727C31.564 25.2692 32.7673 24.6148 33.4691 23.5308L33.9282 22.8216C34.9719 21.2094 33.8147 19.0817 31.8941 19.0817H17.1971C16.6236 19.0817 16.1587 19.5467 16.1587 20.1202C16.1587 20.6937 16.6236 21.1587 17.1971 21.1587H31.8941C32.1685 21.1587 32.3338 21.4626 32.1847 21.6929L31.7256 22.4021C31.4066 22.8948 30.8597 23.1923 30.2727 23.1923H14.125V6.18751C14.125 4.08458 12.4202 2.37982 10.3173 2.37982H6.16346ZM15.0769 27.3462C13.3563 27.3462 11.9615 28.741 11.9615 30.4616C11.9615 32.1821 13.3563 33.5769 15.0769 33.5769C16.7975 33.5769 18.1923 32.1821 18.1923 30.4616C18.1923 28.741 16.7975 27.3462 15.0769 27.3462ZM30.3077 27.3462C28.5871 27.3462 27.1923 28.741 27.1923 30.4616C27.1923 32.1821 28.5871 33.5769 30.3077 33.5769C32.0283 33.5769 33.4231 32.1821 33.4231 30.4616C33.4231 28.741 32.0283 27.3462 30.3077 27.3462ZM14.0385 30.4616C14.0385 29.888 14.5034 29.4231 15.0769 29.4231C15.6504 29.4231 16.1154 29.888 16.1154 30.4616C16.1154 31.0351 15.6504 31.5 15.0769 31.5C14.5034 31.5 14.0385 31.0351 14.0385 30.4616ZM29.2692 30.4616C29.2692 29.888 29.7342 29.4231 30.3077 29.4231C30.8812 29.4231 31.3462 29.888 31.3462 30.4616C31.3462 31.0351 30.8812 31.5 30.3077 31.5C29.7342 31.5 29.2692 31.0351 29.2692 30.4616Z" fill="#894083"/>
<path fill-rule="evenodd" clip-rule="evenodd" d="M24.5 0C20.3579 0 17 3.35786 17 7.5C17 11.6421 20.3579 15 24.5 15H30.5C34.6421 15 38 11.6421 38 7.5C38 3.35786 34.6421 0 30.5 0H24.5Z" fill="#894083"/>
<path d="M30.3824 4.296L27.2624 7.068C27.4944 7.004 27.8104 6.972 28.2104 6.972C29.0024 7.02 29.6104 7.26 30.0344 7.692C30.4584 8.124 30.6704 8.668 30.6704 9.324C30.6704 10.124 30.4024 10.78 29.8664 11.292C29.3384 11.804 28.6144 12.068 27.6944 12.084H27.5864C26.8424 12.076 26.1904 11.916 25.6304 11.604C25.0704 11.292 24.6344 10.868 24.3224 10.332L24.9344 9.768C25.5584 10.728 26.4464 11.208 27.5984 11.208H27.6704C28.2944 11.192 28.8024 11.004 29.1944 10.644C29.5864 10.276 29.7824 9.796 29.7824 9.204C29.7824 8.076 29.0664 7.512 27.6344 7.512C27.1784 7.512 26.7184 7.62 26.2544 7.836L25.7624 7.476L28.9424 4.656H25.0664V3.78H30.3824V4.296Z" fill="white"/>
</svg>
