<?xml version="1.0" standalone="no"?>
  <!DOCTYPE svg PUBLIC "-//W3C//DTD SVG 1.1//EN" "http://www.w3.org/Graphics/SVG/1.1/DTD/svg11.dtd" >
  <svg>
  <metadata>
  Created by font-carrier
  </metadata>
  <defs>
  <font id="HeliosCondLight-Italic" horiz-adv-x="1966" vert-adv-y="1966" >
    <font-face
      
      font-family="HeliosCondLight"
      
      font-weight="400"
      
      font-stretch="normal"
      
      units-per-em="2048"
      
      ascent="1858"
      
      descent="-429"
      
    />
      <missing-glyph />

      

      
      <glyph glyph-name="uni21" unicode="&#x21;" d="M2 0L39 172L176 172L139 0L2 0M104 344Q112 392 138.50 562Q165 732 184.50 843Q204 954 227 1061L309 1448L446 1448L365 1057Q336 920 268 668.50Q200 417 182 344L104 344Z"  horiz-adv-x="438" vert-adv-y="2048"  />

      
      <glyph glyph-name="uni22" unicode="&#x22;" d="M96 1032L190 1475L293 1475L199 1032L96 1032M315 1032L410 1475L512 1475L418 1032L315 1032Z"  horiz-adv-x="608" vert-adv-y="2048"  />

      
      <glyph glyph-name="uni23" unicode="&#x23;" d="M-59 0L170 489L-27 489L25 590L215 590L338 848L141 848L195 948L383 948L618 1462L715 1462L475 948L612 948L850 1462L942 1462L705 948L895 948L842 848L662 848L539 590L725 590L674 489L496 489L268 0L170 0L401 489L262 489L33 0L-59 0M307 590L444 590L567 848L432 848L307 590Z"  horiz-adv-x="872" vert-adv-y="2048"  />

      
      <glyph glyph-name="uni24" unicode="&#x24;" d="M31 250Q31 316 51 414L168 414Q152 339 152 276Q152 90 315 74L440 659Q323 716 259 788Q195 860 195 969Q195 1003 203.50 1046.50Q212 1090 239 1149.50Q266 1209 307.50 1258Q349 1307 424.50 1347Q500 1387 596 1397L625 1530L717 1530L692 1407Q928 1356 928 1137Q928 1088 915 1028L801 1028Q809 1078 809 1104Q809 1175 775.50 1226.50Q742 1278 668 1296L551 750Q678 694 750.50 620Q823 546 823 438Q823 248 698.50 119Q574-10 387-29L352-190L260-190L295-29Q154-12 92.50 58.50Q31 129 31 250M322 993Q322 929 358.50 875.50Q395 822 469 791L575 1296Q514 1290 463.50 1258Q413 1226 383.50 1180.50Q354 1135 338 1086.50Q322 1038 322 993M408 72Q486 72 553.50 122Q621 172 658.50 248.50Q696 325 696 406Q696 482 650.50 532Q605 582 524 618L408 72Z"  horiz-adv-x="872" vert-adv-y="2048"  />

      
      <glyph glyph-name="uni25" unicode="&#x25;" d="M125 922Q125 992 143 1075Q159 1149 183 1207.50Q207 1266 245.50 1319Q284 1372 344 1401Q404 1430 481 1430Q682 1430 682 1223Q682 1159 666 1087Q650 1007 625 946Q600 885 561 833.50Q522 782 463 754.50Q404 727 328 727Q218 727 171.50 777.50Q125 828 125 922M166-31L1079 1456L1165 1456L252-31L166-31M236 932Q236 874 260.50 843.50Q285 813 346 813Q396 813 431.50 832Q467 851 490 890Q513 929 526.50 971Q540 1013 553 1077Q571 1165 571 1212Q571 1343 463 1343Q423 1343 389.50 1324.50Q356 1306 335 1280Q314 1254 296.50 1214.50Q279 1175 271 1145.50Q263 1116 254 1077Q236 982 236 932M649 195Q649 261 668 348Q684 422 708 480.50Q732 539 770.50 591.50Q809 644 869 673Q929 702 1006 702Q1206 702 1206 496Q1206 432 1190 360Q1174 280 1149 219Q1124 158 1085 106.50Q1046 55 987 27.50Q928 0 852 0Q742 0 695.50 50.50Q649 101 649 195M760 205Q760 147 784.50 116.50Q809 86 870 86Q920 86 955.50 105Q991 124 1014 163Q1037 202 1050.50 244Q1064 286 1077 350Q1096 443 1096 485Q1096 616 987 616Q947 616 913.50 597.50Q880 579 859 553Q838 527 820.50 487.50Q803 448 795 418.50Q787 389 778 350Q760 255 760 205Z"  horiz-adv-x="1343" vert-adv-y="2048"  />

      
      <glyph glyph-name="uni26" unicode="&#x26;" d="M78 279Q78 380 110.50 468.50Q143 557 204 628.50Q265 700 331.50 753.50Q398 807 487 862Q444 951 425 1014.50Q406 1078 406 1143Q406 1314 499.50 1419Q593 1524 748 1524Q849 1524 909 1471Q969 1418 969 1325Q969 1190 880 1070Q791 950 637 852L844 373Q922 499 963 688L1090 688Q1072 597 1017 470.50Q962 344 901 262L1010 0L870 0L803 150Q729 67 622 23.50Q515-20 406-20Q249-20 163.50 58Q78 136 78 279M209 305Q209 206 269 149Q329 92 434 92Q624 92 754 248L522 768Q465 730 423.50 698Q382 666 339 622Q296 578 269.50 533.50Q243 489 226 430Q209 371 209 305M526 1178Q526 1070 592 938Q708 1005 774 1112.50Q840 1220 840 1307Q840 1411 715 1411Q624 1411 575 1347Q526 1283 526 1178Z"  horiz-adv-x="1200" vert-adv-y="2048"  />

      
      <glyph glyph-name="uni27" unicode="&#x27;" d="M96 1032L190 1475L293 1475L199 1032L96 1032Z"  horiz-adv-x="389" vert-adv-y="2048"  />

      
      <glyph glyph-name="uni28" unicode="&#x28;" d="M63 203Q63 552 199 892Q335 1232 588 1509L680 1509Q437 1235 309.50 866Q182 497 182 139Q182-146 279-377L186-377Q63-98 63 203Z"  horiz-adv-x="546" vert-adv-y="2048"  />

      
      <glyph glyph-name="uni29" unicode="&#x29;" d="M-133-377Q110-86 236 267Q362 620 362 985Q362 1281 268 1509L360 1509Q483 1232 483 913Q483 566 347 234.50Q211-97-41-377L-133-377Z"  horiz-adv-x="546" vert-adv-y="2048"  />

      
      <glyph glyph-name="uni2a" unicode="&#x2a;" d="M106 1239L150 1321L354 1239L401 1462L487 1462L440 1239L676 1321L682 1233L451 1161L551 956L469 909L367 1118L170 909L115 963L303 1165L106 1239Z"  horiz-adv-x="763" vert-adv-y="2048"  />

      
      <glyph glyph-name="uni2b" unicode="&#x2b;" d="M31 432L51 532L397 532L489 963L590 963L498 532L844 532L823 432L477 432L385 0L285 0L377 432L31 432Z"  horiz-adv-x="872" vert-adv-y="2048"  />

      
      <glyph glyph-name="uni2c" unicode="&#x2c;" d="M104-268L121-195Q184-184 223 0L162 0L199 172L336 172L299 0Q289-47 280-78.50Q271-110 255-148Q239-186 220-209Q201-232 171-249Q141-266 104-268Z"  horiz-adv-x="438" vert-adv-y="2048"  />

      
      <glyph glyph-name="uni2d" unicode="&#x2d;" d="M41 528L66 643L575 643L551 528L41 528Z"  horiz-adv-x="591" vert-adv-y="2048"  />

      
      <glyph glyph-name="uni2e" unicode="&#x2e;" d="M133 0L170 172L307 172L270 0L133 0Z"  horiz-adv-x="438" vert-adv-y="2048"  />

      
      <glyph glyph-name="uni2f" unicode="&#x2f;" d="M-197-184L635 1475L743 1475L-90-184L-197-184Z"  horiz-adv-x="544" vert-adv-y="2048"  />

      
      <glyph glyph-name="uni30" unicode="&#x30;" d="M61 305Q61 464 117 715Q135 800 152 867.50Q169 935 195 1015.50Q221 1096 249.50 1157Q278 1218 318 1277.50Q358 1337 403.50 1375.50Q449 1414 509 1438Q569 1462 637 1462Q895 1462 895 1116Q895 962 842 715Q827 647 815 596.50Q803 546 785 480.50Q767 415 749 366Q731 317 706 261Q681 205 654 165.50Q627 126 591 87Q555 48 515.50 24Q476 0 426.50-14.50Q377-29 322-29Q61-29 61 305M190 319Q190 195 228 136.50Q266 78 344 78Q468 78 555.50 227.50Q643 377 715 715Q768 969 768 1114Q768 1239 729.50 1297.50Q691 1356 614 1356Q491 1356 403 1205.50Q315 1055 244 715Q190 456 190 319Z"  horiz-adv-x="872" vert-adv-y="2048"  />

      
      <glyph glyph-name="uni31" unicode="&#x31;" d="M236 1100L256 1194Q414 1194 507.50 1251Q601 1308 651 1462L754 1462L442 0L315 0L555 1124Q399 1100 236 1100Z"  horiz-adv-x="870" vert-adv-y="2048"  />

      
      <glyph glyph-name="uni32" unicode="&#x32;" d="M-47 0L-25 102Q-15 149 1.50 190Q18 231 45 270Q72 309 97.50 339Q123 369 167 409Q211 449 244 476.50Q277 504 336 551Q439 634 500 686.50Q561 739 621 800.50Q681 862 710.50 913Q740 964 758 1024.50Q776 1085 776 1155Q776 1243 730 1299.50Q684 1356 594 1356Q531 1356 480 1327.50Q429 1299 396 1249.50Q363 1200 342 1146Q321 1092 307 1028L184 1028Q225 1222 338 1342Q451 1462 629 1462Q758 1462 831.50 1389Q905 1316 905 1186Q905 1024 798 859Q691 694 453 506Q358 431 308.50 390Q259 349 218.50 312.50Q178 276 159.50 247Q141 218 129.50 191Q118 164 106 119L688 119L664 0L-47 0Z"  horiz-adv-x="870" vert-adv-y="2048"  />

      
      <glyph glyph-name="uni33" unicode="&#x33;" d="M18 240Q18 291 35 381L156 381Q143 318 143 270Q143 78 330 78Q404 78 465.50 113.50Q527 149 566 206Q605 263 626 331.50Q647 400 647 469Q647 514 636 551.50Q625 589 600 621.50Q575 654 529 673Q483 692 420 692L334 692L358 799L397 799Q467 799 524.50 817Q582 835 619 862.50Q656 890 684 928Q712 966 726.50 1001.50Q741 1037 749.50 1076Q758 1115 760 1138.50Q762 1162 762 1182Q762 1260 723 1308Q684 1356 600 1356Q540 1356 492 1329Q444 1302 413 1256Q382 1210 363 1165.50Q344 1121 330 1069L215 1069Q232 1147 266.50 1216.50Q301 1286 351.50 1341.50Q402 1397 473.50 1429.50Q545 1462 627 1462Q761 1462 826 1393.50Q891 1325 891 1204Q891 1161 884.50 1117Q878 1073 858 1018.50Q838 964 806.50 917.50Q775 871 720 827Q665 783 594 756Q780 710 780 500Q780 431 763 360Q746 289 708.50 218.50Q671 148 618 93.50Q565 39 485 5Q405-29 311-29Q18-29 18 240Z"  horiz-adv-x="870" vert-adv-y="2048"  />

      
      <glyph glyph-name="uni34" unicode="&#x34;" d="M27 393L51 510L758 1462L879 1462L674 500L803 500L780 393L651 393L567 0L440 0L524 393L27 393M164 500L547 500L702 1233L698 1233L164 500Z"  horiz-adv-x="872" vert-adv-y="2048"  />

      
      <glyph glyph-name="uni35" unicode="&#x35;" d="M10 238Q10 283 20 348L147 348Q141 304 141 266Q141 78 309 78Q381 78 442 115Q503 152 543.50 210Q584 268 613 342Q642 416 655 489Q668 562 668 629Q668 838 475 838Q408 838 346 799.50Q284 761 242 696L135 696L377 1436L924 1436L899 1317L459 1317L307 870Q398 944 526 944Q669 944 733 862.50Q797 781 797 645Q797 569 782.50 490.50Q768 412 741 336.50Q714 261 670.50 195Q627 129 572 79Q517 29 444 0Q371-29 289-29Q10-29 10 238Z"  horiz-adv-x="872" vert-adv-y="2048"  />

      
      <glyph glyph-name="uni36" unicode="&#x36;" d="M68 313Q68 442 109 639Q127 724 143 790.50Q159 857 187 946.50Q215 1036 245 1103.50Q275 1171 319 1241.50Q363 1312 413 1358Q463 1404 529.50 1433Q596 1462 672 1462Q789 1462 855.50 1398Q922 1334 922 1223Q922 1186 913 1139L795 1139Q799 1171 799 1198Q799 1356 639 1356Q406 1356 266 784L270 784Q407 924 557 924Q629 924 681 898.50Q733 873 761 828.50Q789 784 802 731.50Q815 679 815 616Q815 546 799.50 464.50Q784 383 747 294.50Q710 206 657 135Q604 64 520.50 17.50Q437-29 338-29Q68-29 68 313M184 315Q184 266 192 226Q200 186 218.50 151.50Q237 117 271.50 97.50Q306 78 354 78Q425 78 484 118.50Q543 159 579.50 219.50Q616 280 641 354Q666 428 676 490Q686 552 686 600Q686 817 508 817Q439 817 382 783.50Q325 750 289 697.50Q253 645 228.50 577Q204 509 194 443.50Q184 378 184 315Z"  horiz-adv-x="870" vert-adv-y="2048"  />

      
      <glyph glyph-name="uni37" unicode="&#x37;" d="M111 0Q192 323 393.50 689.50Q595 1056 850 1317L268 1317L295 1436L1006 1436L979 1319Q686 998 508.50 675Q331 352 238 0L111 0Z"  horiz-adv-x="870" vert-adv-y="2048"  />

      
      <glyph glyph-name="uni38" unicode="&#x38;" d="M27 246Q27 322 41.50 393.50Q56 465 89 538.50Q122 612 185.50 675.50Q249 739 336 780Q229 827 229 975Q229 1042 243.50 1108.50Q258 1175 290.50 1239Q323 1303 369.50 1352.50Q416 1402 486 1432Q556 1462 639 1462Q766 1462 829.50 1394Q893 1326 893 1210Q893 1126 867 1038.50Q841 951 784.50 877Q728 803 653 780Q795 690 795 526Q795 495 791 457.50Q787 420 774.50 364.50Q762 309 741.50 257.50Q721 206 684.50 152.50Q648 99 600.50 60Q553 21 481.50-4Q410-29 324-29Q27-29 27 246M158 274Q158 78 344 78Q406 78 457.50 101.50Q509 125 542.50 164.50Q576 204 601.50 251Q627 298 640.50 349Q654 400 660 441.50Q666 483 666 518Q666 615 618.50 665Q571 715 481 715Q409 715 351 683.50Q293 652 258 604.50Q223 557 199.50 495.50Q176 434 167 379Q158 324 158 274M350 985Q350 909 386.50 865Q423 821 502 821Q569 821 622.50 858Q676 895 706 953Q736 1011 751 1072Q766 1133 766 1190Q766 1356 612 1356Q552 1356 504 1326.50Q456 1297 428 1254.50Q400 1212 381.50 1158.50Q363 1105 356.50 1062Q350 1019 350 985Z"  horiz-adv-x="872" vert-adv-y="2048"  />

      
      <glyph glyph-name="uni39" unicode="&#x39;" d="M49 209Q49 241 59 293L178 293Q172 258 172 231Q172 78 334 78Q396 78 451 118.50Q506 159 543.50 218Q581 277 613.50 359.50Q646 442 664.50 508Q683 574 698 647L694 647Q565 508 414 508Q343 508 291.50 533Q240 558 212.50 602Q185 646 172.50 697.50Q160 749 160 811Q160 884 175.50 967Q191 1050 227.50 1139Q264 1228 317 1299Q370 1370 452.50 1416Q535 1462 635 1462Q899 1462 899 1130Q899 1004 858 807Q835 696 813 610Q791 524 762 434Q733 344 701.50 278Q670 212 628 151.50Q586 91 538.50 53Q491 15 429.50-7Q368-29 297-29Q182-29 115.50 35.50Q49 100 49 209M287 819Q287 614 457 614Q533 614 592.50 653Q652 692 686.50 749Q721 806 743.50 878.50Q766 951 774 1010Q782 1069 782 1120Q782 1169 774 1208.50Q766 1248 747.50 1282.50Q729 1317 694.50 1336.50Q660 1356 612 1356Q545 1356 489 1317Q433 1278 396.50 1218Q360 1158 334.50 1084Q309 1010 298 942.50Q287 875 287 819Z"  horiz-adv-x="872" vert-adv-y="2048"  />

      
      <glyph glyph-name="uni3a" unicode="&#x3a;" d="M43 0L80 172L217 172L180 0L43 0M223 852L260 1024L397 1024L360 852L223 852Z"  horiz-adv-x="438" vert-adv-y="2048"  />

      
      <glyph glyph-name="uni3b" unicode="&#x3b;" d="M14-268L31-195Q94-184 133 0L72 0L109 172L246 172L209 0Q199-47 190-78.50Q181-110 165-148Q149-186 130-209Q111-232 81-249Q51-266 14-268M252 850L289 1022L426 1022L389 850L252 850Z"  horiz-adv-x="438" vert-adv-y="2048"  />

      
      <glyph glyph-name="uni3c" unicode="&#x3c;" d="M29 438L47 524L946 985L922 874L145 492L143 481L754 86L731-25L29 438Z"  horiz-adv-x="872" vert-adv-y="2048"  />

      
      <glyph glyph-name="uni3d" unicode="&#x3d;" d="M-6 258L14 358L807 358L786 258L-6 258M68 606L88 707L881 707L860 606L68 606Z"  horiz-adv-x="872" vert-adv-y="2048"  />

      
      <glyph glyph-name="uni3e" unicode="&#x3e;" d="M-70-23L-47 88L729 471L731 481L121 877L145 987L846 524L829 438L-70-23Z"  horiz-adv-x="872" vert-adv-y="2048"  />

      
      <glyph glyph-name="uni3f" unicode="&#x3f;" d="M113 1055Q125 1113 143.50 1165.50Q162 1218 197 1276.50Q232 1335 276.50 1377Q321 1419 390 1447Q459 1475 541 1475Q658 1475 732.50 1411.50Q807 1348 807 1223Q807 1103 750 988Q693 873 539 719Q430 610 387.50 539Q345 468 317 336L209 336Q240 481 291 569.50Q342 658 455 776Q511 835 542.50 872Q574 909 611 964Q648 1019 665 1076Q682 1133 682 1196Q682 1275 642 1321.50Q602 1368 526 1368Q454 1368 402 1344Q350 1320 317.50 1273Q285 1226 266.50 1176Q248 1126 233 1055L113 1055M125 0L162 172L299 172L262 0L125 0Z"  horiz-adv-x="763" vert-adv-y="2048"  />

      
      <glyph glyph-name="uni40" unicode="&#x40;" d="M35 575Q35 757 117.50 930.50Q200 1104 332.50 1230.50Q465 1357 639.50 1434Q814 1511 991 1511Q1112 1511 1216.50 1475.50Q1321 1440 1398 1376Q1475 1312 1519 1216Q1563 1120 1563 1004Q1563 869 1504 732.50Q1445 596 1355.50 496.50Q1266 397 1156 334.50Q1046 272 948 272Q815 272 815 385Q687 287 530 287Q426 287 372.50 345.50Q319 404 319 502Q319 609 372.50 732Q426 855 511 958.50Q596 1062 713.50 1131Q831 1200 948 1200Q1023 1200 1077.50 1165Q1132 1130 1149 1063L1198 1159L1307 1159Q1278 1105 1217.50 996Q1157 887 1112 804Q1067 721 1019 631Q971 541 944.50 484Q918 427 918 412Q918 358 987 358Q1052 358 1135.50 416Q1219 474 1291.50 562Q1364 650 1414 766Q1464 882 1464 987Q1464 1116 1396 1215.50Q1328 1315 1216 1366Q1104 1417 967 1417Q865 1417 761.50 1385.50Q658 1354 566.50 1299Q475 1244 395 1166Q315 1088 257 998.50Q199 909 166 804.50Q133 700 133 596Q133 446 203 323.50Q273 201 399 130Q525 59 682 59Q840 59 1007 136.50Q1174 214 1300 346L1405 346Q1272 170 1069 67.50Q866-35 662-35Q476-35 332.50 44.50Q189 124 112 262.50Q35 401 35 575M424 547Q424 467 467 422Q510 377 580 377Q678 377 755.50 427.50Q833 478 874 549Q989 748 1033 841Q1077 934 1077 973Q1077 1032 1038.50 1070Q1000 1108 926 1108Q841 1108 748 1048Q655 988 585 901.50Q515 815 469.50 717.50Q424 620 424 547Z"  horiz-adv-x="1572" vert-adv-y="2048"  />

      
      <glyph glyph-name="uni41" unicode="&#x41;" d="M-90 0L618 1475L766 1475L846 0L717 0L698 455L252 455L33 0L-90 0M301 567L694 567L659 1313L655 1313L301 567Z"  horiz-adv-x="983" vert-adv-y="2048"  />

      
      <glyph glyph-name="uni42" unicode="&#x42;" d="M20 0L336 1475L684 1475Q829 1475 913 1410Q997 1345 997 1214Q997 1150 981 1086Q965 1022 932.50 961.50Q900 901 844 852Q788 803 715 778Q895 725 895 535Q895 502 890.50 465Q886 428 871.50 374Q857 320 833.50 271Q810 222 767 171Q724 120 668 83.50Q612 47 528 23.50Q444 0 342 0L20 0M172 113L381 113Q467 113 535 138.50Q603 164 645.50 204.50Q688 245 716 299Q744 353 755 406Q766 459 766 514Q766 717 510 717L301 717L172 113M326 829L508 829Q590 829 655 853Q720 877 759 913.50Q798 950 823.50 999Q849 1048 858.50 1093.50Q868 1139 868 1184Q868 1239 847 1275.50Q826 1312 787 1330Q748 1348 706 1355Q664 1362 608 1362L438 1362L326 829Z"  horiz-adv-x="1007" vert-adv-y="2048"  />

      
      <glyph glyph-name="uni43" unicode="&#x43;" d="M102 330Q102 495 164 778Q180 853 196.50 914.50Q213 976 240.50 1054.50Q268 1133 299 1193.50Q330 1254 376 1315.50Q422 1377 474.50 1417.50Q527 1458 598 1483.50Q669 1509 750 1509Q908 1509 989.50 1417.50Q1071 1326 1071 1176Q1071 1126 1057 1051L926 1051Q934 1101 934 1149Q934 1261 883.50 1329Q833 1397 721 1397Q665 1397 615 1375.50Q565 1354 527 1319Q489 1284 455 1231Q421 1178 397 1124.50Q373 1071 351 1002Q329 933 314.50 876Q300 819 285 750Q233 502 233 373Q233 78 457 78Q520 78 575 105.50Q630 133 668.50 175.50Q707 218 738.50 276Q770 334 788.50 388.50Q807 443 819 500L946 500Q928 412 897 334Q866 256 819.50 188Q773 120 714.50 70.50Q656 21 580-7Q504-35 418-35Q330-35 267-9Q204 17 168.50 67.50Q133 118 117.50 182Q102 246 102 330Z"  horiz-adv-x="1067" vert-adv-y="2048"  />

      
      <glyph glyph-name="uni44" unicode="&#x44;" d="M20 0L336 1475L659 1475Q1065 1475 1065 1075Q1065 976 1030 797Q1007 687 985.50 606.50Q964 526 932.50 438Q901 350 865 289Q829 228 777 169.50Q725 111 662.50 76.50Q600 42 516.50 21Q433 0 332 0L20 0M172 113L367 113Q444 113 508.50 132.50Q573 152 620 183Q667 214 707 265.50Q747 317 773.50 367.50Q800 418 824.50 492Q849 566 864 625.50Q879 685 897 770Q936 953 936 1071Q936 1220 872 1291Q808 1362 666 1362L438 1362L172 113Z"  horiz-adv-x="1087" vert-adv-y="2048"  />

      
      <glyph glyph-name="uni45" unicode="&#x45;" d="M20 0L336 1475L1014 1475L989 1362L438 1362L328 846L819 846L797 733L305 733L172 113L723 113L698 0L20 0Z"  horiz-adv-x="880" vert-adv-y="2048"  />

      
      <glyph glyph-name="uni46" unicode="&#x46;" d="M20 0L336 1475L1014 1475L989 1362L438 1362L328 846L819 846L797 733L305 733L147 0L20 0Z"  horiz-adv-x="880" vert-adv-y="2048"  />

      
      <glyph glyph-name="uni47" unicode="&#x47;" d="M102 340Q102 488 160 766Q177 844 193.50 907Q210 970 238 1050Q266 1130 298 1191.50Q330 1253 377 1315Q424 1377 479 1417.50Q534 1458 608 1483.50Q682 1509 768 1509Q918 1509 994.50 1417.50Q1071 1326 1071 1176Q1071 1120 1063 1071L938 1071Q942 1103 942 1135Q942 1397 735 1397Q674 1397 621.50 1377Q569 1357 529.50 1325Q490 1293 455.50 1240.50Q421 1188 397 1136.50Q373 1085 350 1011.50Q327 938 312.50 878.50Q298 819 281 737Q233 497 233 379Q233 78 444 78Q519 78 581.50 111.50Q644 145 685 195Q726 245 762 322.50Q798 400 818.50 466Q839 532 860 621L543 621L567 733L1012 733L854 0L752 0L772 152Q695 56 607.50 10.50Q520-35 410-35Q323-35 261-6.50Q199 22 165.50 75Q132 128 117 192.50Q102 257 102 340Z"  horiz-adv-x="1093" vert-adv-y="2048"  />

      
      <glyph glyph-name="uni48" unicode="&#x48;" d="M20 0L336 1475L463 1475L328 846L897 846L1032 1475L1159 1475L844 0L717 0L874 733L305 733L147 0L20 0Z"  horiz-adv-x="1093" vert-adv-y="2048"  />

      
      <glyph glyph-name="uni49" unicode="&#x49;" d="M41 0L356 1475L483 1475L168 0L41 0Z"  horiz-adv-x="438" vert-adv-y="2048"  />

      
      <glyph glyph-name="uni4a" unicode="&#x4a;" d="M-14 209Q-14 274 20 430L147 430Q117 297 117 223Q117 155 147.50 116.50Q178 78 254 78Q349 78 396.50 141Q444 204 469 322L713 1475L840 1475L594 313Q521-35 219-35Q97-35 41.50 31.50Q-14 98-14 209Z"  horiz-adv-x="774" vert-adv-y="2048"  />

      
      <glyph glyph-name="uni4b" unicode="&#x4b;" d="M20 0L336 1475L463 1475L305 737L999 1475L1147 1475L584 879L854 0L715 0L479 774L268 559L147 0L20 0Z"  horiz-adv-x="985" vert-adv-y="2048"  />

      
      <glyph glyph-name="uni4c" unicode="&#x4c;" d="M20 0L336 1475L463 1475L172 113L719 113L694 0L20 0Z"  horiz-adv-x="862" vert-adv-y="2048"  />

      
      <glyph glyph-name="uni4d" unicode="&#x4d;" d="M20 0L336 1475L549 1475L625 188L629 188L1262 1475L1468 1475L1153 0L1026 0L1313 1348L1309 1348L657 0L520 0L438 1348L434 1348L147 0L20 0Z"  horiz-adv-x="1402" vert-adv-y="2048"  />

      
      <glyph glyph-name="uni4e" unicode="&#x4e;" d="M20 0L336 1475L494 1475L766 209L770 209L1040 1475L1167 1475L852 0L698 0L420 1262L416 1262L147 0L20 0Z"  horiz-adv-x="1101" vert-adv-y="2048"  />

      
      <glyph glyph-name="uni4f" unicode="&#x4f;" d="M102 338Q102 480 156 739Q174 823 192 891.50Q210 960 238.50 1042.50Q267 1125 298.50 1188Q330 1251 376.50 1314Q423 1377 476 1417.50Q529 1458 600 1483.50Q671 1509 752 1509Q844 1509 908.50 1481Q973 1453 1008.50 1400.50Q1044 1348 1059.50 1284Q1075 1220 1075 1137Q1075 978 1022 739Q1003 647 985.50 577.50Q968 508 940 423.50Q912 339 881 277Q850 215 804 153Q758 91 705 52Q652 13 580-11Q508-35 424-35Q351-35 295.50-16.50Q240 2 203.50 34.50Q167 67 144 115Q121 163 111.50 217Q102 271 102 338M231 367Q231 78 449 78Q507 78 557 97Q607 116 645 147.50Q683 179 717 229.50Q751 280 775.50 332Q800 384 823 456Q846 528 861.50 592Q877 656 895 739Q944 955 944 1102Q944 1397 727 1397Q670 1397 620 1376.50Q570 1356 531.50 1323Q493 1290 459 1238Q425 1186 400.50 1132.50Q376 1079 353 1008Q330 937 314.50 876.50Q299 816 283 739Q231 504 231 367Z"  horiz-adv-x="1091" vert-adv-y="2048"  />

      
      <glyph glyph-name="uni50" unicode="&#x50;" d="M20 0L336 1475L670 1475Q747 1475 808 1460.50Q869 1446 918.50 1415Q968 1384 995 1328.50Q1022 1273 1022 1196Q1022 1143 1011.50 1087Q1001 1031 978.50 970Q956 909 915 856Q874 803 819.50 760.50Q765 718 684.50 693Q604 668 508 668L291 668L147 0L20 0M313 780L479 780Q573 780 646 802Q719 824 764.50 860Q810 896 839 946.50Q868 997 879.50 1050Q891 1103 891 1163Q891 1267 824 1314.50Q757 1362 625 1362L438 1362L313 780Z"  horiz-adv-x="983" vert-adv-y="2048"  />

      
      <glyph glyph-name="uni51" unicode="&#x51;" d="M102 338Q102 486 158 739Q176 823 194 892.50Q212 962 240.50 1044Q269 1126 301.50 1189.50Q334 1253 380 1315.50Q426 1378 479.50 1418.50Q533 1459 604 1484Q675 1509 756 1509Q1077 1509 1077 1135Q1077 973 1033.50 763.50Q990 554 923 379.50Q856 205 791 135L924 2L836-84L700 49Q586-35 426-35Q102-35 102 338M233 365Q233 78 449 78Q542 78 618 129L496 248L586 338L709 215Q786 300 866 605Q946 910 946 1110Q946 1248 896.50 1322.50Q847 1397 731 1397Q664 1397 607 1371.50Q550 1346 507 1297Q464 1248 430.50 1190Q397 1132 369.50 1051.50Q342 971 323 900.50Q304 830 285 739Q233 491 233 365Z"  horiz-adv-x="1091" vert-adv-y="2048"  />

      
      <glyph glyph-name="uni52" unicode="&#x52;" d="M20 0L336 1475L684 1475Q1008 1475 1008 1214Q1008 1148 988 1075Q968 1002 931.50 934Q895 866 835 815.50Q775 765 702 752L702 748Q780 727 813 679Q846 631 846 555Q846 498 815 346.50Q784 195 784 127Q784 56 811 18L807 0L668 0Q655 63 655 119Q655 198 683 340.50Q711 483 711 504Q711 595 656 644.50Q601 694 510 694L297 694L147 0L20 0M319 807L545 807Q631 807 697.50 840.50Q764 874 801.50 930Q839 986 858 1051Q877 1116 877 1188Q877 1282 817.50 1322Q758 1362 631 1362L438 1362L319 807Z"  horiz-adv-x="989" vert-adv-y="2048"  />

      
      <glyph glyph-name="uni53" unicode="&#x53;" d="M45 285Q45 352 59 418L186 418Q172 346 172 299Q172 196 225 137Q278 78 391 78Q544 78 652 184Q760 290 760 453Q760 486 753 512.50Q746 539 729 560.50Q712 582 696 597Q680 612 650.50 627.50Q621 643 602 652Q583 661 545 676.50Q507 692 489 700Q425 727 381.50 753Q338 779 299.50 814.50Q261 850 242 897Q223 944 223 1004Q223 1109 261.50 1203.50Q300 1298 365.50 1364.50Q431 1431 519.50 1470Q608 1509 705 1509Q850 1509 930 1433Q1010 1357 1010 1223Q1010 1178 997 1118L874 1118Q883 1161 883 1200Q883 1293 831 1345Q779 1397 678 1397Q539 1397 446.50 1288Q354 1179 354 1030Q354 952 401 908.50Q448 865 557 821Q732 753 811.50 673.50Q891 594 891 475Q891 329 819 211.50Q747 94 628 29.50Q509-35 369-35Q210-35 127.50 52Q45 139 45 285Z"  horiz-adv-x="983" vert-adv-y="2048"  />

      
      <glyph glyph-name="uni54" unicode="&#x54;" d="M215 1362L240 1475L1034 1475L1010 1362L676 1362L385 0L258 0L549 1362L215 1362Z"  horiz-adv-x="872" vert-adv-y="2048"  />

      
      <glyph glyph-name="uni55" unicode="&#x55;" d="M102 244Q102 299 119 389L348 1475L475 1475L248 403Q229 316 229 258Q229 166 278 122Q327 78 446 78Q529 78 591 102Q653 126 693.50 173.50Q734 221 759 278.50Q784 336 801 416L1024 1475L1151 1475L934 451Q910 336 873.50 252Q837 168 778.50 101Q720 34 632.50-0.50Q545-35 428-35Q102-35 102 244Z"  horiz-adv-x="1093" vert-adv-y="2048"  />

      
      <glyph glyph-name="uni56" unicode="&#x56;" d="M225 1475L360 1475L412 168L416 168L1032 1475L1157 1475L449 0L305 0L225 1475Z"  horiz-adv-x="983" vert-adv-y="2048"  />

      
      <glyph glyph-name="uni57" unicode="&#x57;" d="M205 0L236 1475L365 1475L324 229L326 229L836 1475L983 1475L958 223L963 223L1464 1475L1587 1475L981 0L838 0L860 1262L856 1262L348 0L205 0Z"  horiz-adv-x="1421" vert-adv-y="2048"  />

      
      <glyph glyph-name="uni58" unicode="&#x58;" d="M-80 0L465 762L254 1475L397 1475L563 883L991 1475L1133 1475L614 762L834 0L694 0L512 641L57 0L-80 0Z"  horiz-adv-x="983" vert-adv-y="2048"  />

      
      <glyph glyph-name="uni59" unicode="&#x59;" d="M238 1475L379 1475L541 772L1012 1475L1147 1475L573 627L438 0L311 0L446 627L238 1475Z"  horiz-adv-x="980" vert-adv-y="2048"  />

      
      <glyph glyph-name="uni5a" unicode="&#x5a;" d="M-47 0L-20 119L846 1362L270 1362L295 1475L1008 1475L983 1364L109 113L717 113L692 0L-47 0Z"  horiz-adv-x="872" vert-adv-y="2048"  />

      
      <glyph glyph-name="uni5b" unicode="&#x5b;" d="M-37-205L328 1511L629 1511L608 1419L422 1419L98-113L289-113L268-205L-37-205Z"  horiz-adv-x="546" vert-adv-y="2048"  />

      
      <glyph glyph-name="uni5c" unicode="&#x5c;" d="M80 1475L186 1475L358 0L252 0L80 1475Z"  horiz-adv-x="438" vert-adv-y="2048"  />

      
      <glyph glyph-name="uni5d" unicode="&#x5d;" d="M-86-205L-66-113L125-113L449 1419L262 1419L283 1511L584 1511L219-205L-86-205Z"  horiz-adv-x="546" vert-adv-y="2048"  />

      
      <glyph glyph-name="uni5e" unicode="&#x5e;" d="M43 668L481 1475L561 1475L655 668L563 668L487 1327L135 668L43 668Z"  horiz-adv-x="872" vert-adv-y="2048"  />

      
      <glyph glyph-name="uni5f" unicode="&#x5f;" d="M-12-238L12-123L995-123L971-238L-12-238Z"  horiz-adv-x="983" vert-adv-y="2048"  />

      
      <glyph glyph-name="uni60" unicode="&#x60;" d="M109 1464L262 1464L422 1192L322 1192L109 1464Z"  horiz-adv-x="655" vert-adv-y="2048"  />

      
      <glyph glyph-name="uni61" unicode="&#x61;" d="M10 143Q10 293 76 401.50Q142 510 264 559L516 662Q568 684 601.50 741Q635 798 635 889Q635 950 599.50 981Q564 1012 500 1012Q471 1012 446 1007Q421 1002 404 995Q387 988 370.50 973.50Q354 959 345 949Q336 939 325 917.50Q314 896 309.50 885Q305 874 295 848.50Q285 823 281 813L170 813Q202 961 292 1036.50Q382 1112 524 1112Q641 1112 696.50 1065.50Q752 1019 752 924Q752 903 733 803L598 160Q590 119 590 104Q590 88 604 83Q618 78 659 76L641-6Q611-18 565-18Q475-18 475 90L473 90Q420 32 351 1.50Q282-29 209-29Q102-29 56 15.50Q10 60 10 143M131 186Q131 72 248 72Q300 72 344.50 92Q389 112 418.50 142.50Q448 173 471.50 215Q495 257 508 295Q521 333 530 375L573 584L336 481Q228 435 179.50 369Q131 303 131 186Z"  horiz-adv-x="796" vert-adv-y="2048"  />

      
      <glyph glyph-name="uni62" unicode="&#x62;" d="M4 0L315 1475L430 1475L328 995L332 995Q461 1112 600 1112Q819 1112 819 815Q819 758 810 681.50Q801 605 782 506.50Q763 408 726.50 316Q690 224 640.50 145.50Q591 67 515.50 19Q440-29 350-29Q187-29 143 102L139 102L119 0L4 0M197 279Q197 72 342 72Q406 72 461 109.50Q516 147 552 206Q588 265 617 341Q646 417 662 489Q678 561 688 630Q698 699 701.50 739Q705 779 705 795Q705 1012 551 1012Q491 1012 439.50 977.50Q388 943 352.50 888Q317 833 289 761.50Q261 690 244 618.50Q227 547 216 476.50Q205 406 201 357.50Q197 309 197 279Z"  horiz-adv-x="868" vert-adv-y="2048"  />

      
      <glyph glyph-name="uni63" unicode="&#x63;" d="M43 250Q43 354 84 547Q96 605 108 652.50Q120 700 141 760.50Q162 821 185.50 868Q209 915 243.50 962.50Q278 1010 318.50 1041.50Q359 1073 413.50 1092.50Q468 1112 530 1112Q645 1112 703.50 1043Q762 974 762 862Q762 819 752 764L639 764Q647 797 647 840Q647 916 611 964Q575 1012 502 1012Q448 1012 402.50 983Q357 954 327 910.50Q297 867 270 798Q243 729 227.50 668.50Q212 608 195 526Q158 356 158 268Q158 174 194 123Q230 72 315 72Q353 72 385 84Q417 96 441.50 121Q466 146 484 170Q502 194 517.50 232.50Q533 271 541 295Q549 319 561 358L676 358Q659 277 629 209.50Q599 142 553.50 87.50Q508 33 441.50 2Q375-29 293-29Q222-29 171.50-7.50Q121 14 94 53.50Q67 93 55 141Q43 189 43 250Z"  horiz-adv-x="788" vert-adv-y="2048"  />

      
      <glyph glyph-name="uni64" unicode="&#x64;" d="M41 260Q41 286 43.50 325Q46 364 53 422Q60 480 71.50 541Q83 602 102 670.50Q121 739 146 801Q171 863 207.50 920.50Q244 978 287 1020Q330 1062 388.50 1087Q447 1112 514 1112Q580 1112 635 1081Q690 1050 721 995L725 995L827 1475L942 1475L629 0L514 0L537 102L532 102Q436-29 268-29Q41-29 41 260M156 279Q156 72 301 72Q365 72 420 109.50Q475 147 511 206Q547 265 576 341Q605 417 621 489Q637 561 647 630Q657 699 660.50 739Q664 779 664 795Q664 1012 510 1012Q450 1012 398.50 977.50Q347 943 311.50 888Q276 833 248 761.50Q220 690 203 618.50Q186 547 175 476.50Q164 406 160 357.50Q156 309 156 279Z"  horiz-adv-x="868" vert-adv-y="2048"  />

      
      <glyph glyph-name="uni65" unicode="&#x65;" d="M43 250Q43 351 82 537Q94 596 105 640.50Q116 685 136 748.50Q156 812 178 858.50Q200 905 234 955.50Q268 1006 307 1038Q346 1070 400 1091Q454 1112 516 1112Q752 1112 752 834Q752 736 709 547L199 547Q156 360 156 256Q156 166 189.50 119Q223 72 301 72Q348 72 386 89.50Q424 107 448.50 132Q473 157 494 198Q515 239 526 271.50Q537 304 551 352L666 352Q651 279 619.50 213Q588 147 541.50 91.50Q495 36 427 3.50Q359-29 279-29Q43-29 43 250M219 647L614 647Q637 769 637 827Q637 1012 494 1012Q452 1012 415 994.50Q378 977 350.50 945.50Q323 914 301 878Q279 842 263 797.50Q247 753 237 718.50Q227 684 219 647Z"  horiz-adv-x="798" vert-adv-y="2048"  />

      
      <glyph glyph-name="uni66" unicode="&#x66;" d="M16 0L227 985L113 985L133 1085L248 1085L272 1204Q289 1281 306 1327.50Q323 1374 353.50 1410.50Q384 1447 429.50 1462Q475 1477 543 1477Q566 1477 584 1470L563 1372Q543 1376 530 1376Q469 1376 441 1350.50Q413 1325 401 1264L362 1085L498 1085L477 985L342 985L131 0L16 0Z"  horiz-adv-x="440" vert-adv-y="2048"  />

      
      <glyph glyph-name="uni67" unicode="&#x67;" d="M-35-172Q-35-145-31-125L86-125Q86-198 123-234Q160-270 240-270Q291-270 331-260Q371-250 400-226.50Q429-203 449-177Q469-151 486-106Q503-61 513-22.50Q523 16 537 78L528 78Q421-29 276-29Q45-29 45 250Q45 282 49 335Q53 388 66.50 471.50Q80 555 100 638.50Q120 722 157 809Q194 896 241 962Q288 1028 358 1070Q428 1112 512 1112Q594 1112 644 1082.50Q694 1053 725 987L729 987L750 1085L862 1085L637 25Q598-165 498.50-268Q399-371 217-371Q106-371 35.50-320.50Q-35-270-35-172M162 279Q162 72 307 72Q371 72 426 109.50Q481 147 517 206Q553 265 582 341Q611 417 627 489Q643 561 653 630Q663 699 666.50 739Q670 779 670 795Q670 1012 516 1012Q456 1012 404.50 977.50Q353 943 317.50 888Q282 833 254 761.50Q226 690 209 618.50Q192 547 181 476.50Q170 406 166 357.50Q162 309 162 279Z"  horiz-adv-x="864" vert-adv-y="2048"  />

      
      <glyph glyph-name="uni68" unicode="&#x68;" d="M2 0L313 1475L428 1475L324 971Q378 1037 449.50 1074.50Q521 1112 590 1112Q716 1112 766.50 1063.50Q817 1015 817 932Q817 880 797 786L629 0L514 0L678 764Q694 837 694 885Q694 946 664 979Q634 1012 561 1012Q478 1012 393.50 954.50Q309 897 291 813L117 0L2 0Z"  horiz-adv-x="864" vert-adv-y="2048"  />

      
      <glyph glyph-name="uni69" unicode="&#x69;" d="M8 0L238 1085L352 1085L123 0L8 0M281 1290L322 1475L436 1475L395 1290L281 1290Z"  horiz-adv-x="421" vert-adv-y="2048"  />

      
      <glyph glyph-name="uni6a" unicode="&#x6a;" d="M-154-375L-131-274Q-87-274-57.50-264.50Q-28-255-11-233.50Q6-212 14.50-189.50Q23-167 31-129L289 1085L403 1085L143-133Q130-198 112.50-239Q95-280 62.50-313Q30-346-22.50-360.50Q-75-375-154-375M330 1290L371 1475L485 1475L444 1290L330 1290Z"  horiz-adv-x="438" vert-adv-y="2048"  />

      
      <glyph glyph-name="uni6b" unicode="&#x6b;" d="M4 0L315 1475L430 1475L240 573L700 1085L844 1085L463 680L621 0L500 0L356 565L203 397L119 0L4 0Z"  horiz-adv-x="761" vert-adv-y="2048"  />

      
      <glyph glyph-name="uni6c" unicode="&#x6c;" d="M6 0L317 1475L432 1475L121 0L6 0Z"  horiz-adv-x="421" vert-adv-y="2048"  />

      
      <glyph glyph-name="uni6d" unicode="&#x6d;" d="M4 0L233 1085L348 1085L328 979L332 979Q377 1037 448.50 1074.50Q520 1112 590 1112Q669 1112 715 1087.50Q761 1063 791 991L795 991Q907 1112 1077 1112Q1278 1112 1278 932Q1278 891 1264 819L1090 0L975 0L1153 831Q1159 861 1159 891Q1159 1012 1040 1012Q941 1012 868.50 953.50Q796 895 774 793L604 0L489 0L657 784Q672 857 672 893Q672 950 643 981Q614 1012 543 1012Q469 1012 389.50 951.50Q310 891 291 801L119 0L4 0Z"  horiz-adv-x="1323" vert-adv-y="2048"  />

      
      <glyph glyph-name="uni6e" unicode="&#x6e;" d="M2 0L231 1085L346 1085L324 971Q378 1037 449.50 1074.50Q521 1112 590 1112Q716 1112 766.50 1063.50Q817 1015 817 932Q817 880 797 786L629 0L514 0L678 764Q694 837 694 885Q694 946 664 979Q634 1012 561 1012Q478 1012 393.50 954.50Q309 897 291 813L117 0L2 0Z"  horiz-adv-x="864" vert-adv-y="2048"  />

      
      <glyph glyph-name="uni6f" unicode="&#x6f;" d="M47 268Q47 372 82 543Q94 601 107.50 650.50Q121 700 142.50 760.50Q164 821 188.50 868.50Q213 916 249.50 963Q286 1010 328 1041.50Q370 1073 426 1092.50Q482 1112 547 1112Q799 1112 799 813Q799 706 764 543Q752 484 738.50 433.50Q725 383 703.50 322.50Q682 262 657.50 214Q633 166 596.50 119Q560 72 518 41Q476 10 420-9.50Q364-29 299-29Q47-29 47 268M166 281Q166 182 199 127Q232 72 317 72Q369 72 412 91Q455 110 487.50 146.50Q520 183 545 224.50Q570 266 590 324.50Q610 383 622.50 431Q635 479 649 543Q680 698 680 784Q680 1012 522 1012Q299 1012 197 543Q166 391 166 281Z"  horiz-adv-x="845" vert-adv-y="2048"  />

      
      <glyph glyph-name="uni70" unicode="&#x70;" d="M-68-375L242 1085L352 1085L332 987L336 987Q379 1042 444.50 1077Q510 1112 580 1112Q831 1112 831 819Q831 800 828.50 765.50Q826 731 819 675Q812 619 801 558Q790 497 770.50 427.50Q751 358 726 294Q701 230 663.50 170.50Q626 111 581.50 67Q537 23 477-3Q417-29 348-29Q204-29 145 90L47-375L-68-375M207 279Q207 72 352 72Q416 72 471 109.50Q526 147 562 206Q598 265 627 341Q656 417 672 489Q688 561 698 630Q708 699 711.50 739Q715 779 715 795Q715 1012 561 1012Q501 1012 449.50 977.50Q398 943 362.50 888Q327 833 299 761.50Q271 690 254 618.50Q237 547 226 476.50Q215 406 211 357.50Q207 309 207 279Z"  horiz-adv-x="870" vert-adv-y="2048"  />

      
      <glyph glyph-name="uni71" unicode="&#x71;" d="M45 254Q45 363 84 539Q98 601 110 647Q122 693 143 756.50Q164 820 187.50 866Q211 912 246 961Q281 1010 322 1041Q363 1072 418.50 1092Q474 1112 539 1112Q668 1112 729 987L750 1085L864 1085L555-375L440-375L539 90Q435-29 287-29Q45-29 45 254M162 279Q162 72 307 72Q371 72 426 109.50Q481 147 517 206Q553 265 582 341Q611 417 627 489Q643 561 653 630Q663 699 666.50 739Q670 779 670 795Q670 1012 516 1012Q456 1012 404.50 977.50Q353 943 317.50 888Q282 833 254 761.50Q226 690 209 618.50Q192 547 181 476.50Q170 406 166 357.50Q162 309 162 279Z"  horiz-adv-x="866" vert-adv-y="2048"  />

      
      <glyph glyph-name="uni72" unicode="&#x72;" d="M2 0L231 1085L346 1085L319 961Q382 1049 446 1081.50Q510 1114 608 1114L582 993Q455 993 376 919Q297 845 268 713L117 0L2 0Z"  horiz-adv-x="530" vert-adv-y="2048"  />

      
      <glyph glyph-name="uni73" unicode="&#x73;" d="M18 197Q18 247 29 295L141 295Q137 255 137 240Q137 72 303 72Q356 72 398.50 92.50Q441 113 466.50 143.50Q492 174 509 211Q526 248 532.50 277.50Q539 307 539 330Q539 371 524 404.50Q509 438 480 463Q451 488 424 503.50Q397 519 358 537Q158 628 158 780Q158 806 165 841Q172 876 195 925.50Q218 975 253.50 1015Q289 1055 354 1083.50Q419 1112 502 1112Q618 1112 680.50 1053.50Q743 995 743 893Q743 861 733 809L621 809Q627 839 627 866Q627 933 588.50 972.50Q550 1012 477 1012Q430 1012 392.50 995.50Q355 979 334 955Q313 931 299 902.50Q285 874 280.50 852.50Q276 831 276 817Q276 764 307 729.50Q338 695 408 659Q443 641 464 629.50Q485 618 515 599.50Q545 581 563 565.50Q581 550 601.50 527.50Q622 505 633 482Q644 459 651.50 429Q659 399 659 365Q659 321 648.50 272.50Q638 224 610.50 169Q583 114 542 71Q501 28 433-0.50Q365-29 281-29Q150-29 84 29Q18 87 18 197Z"  horiz-adv-x="792" vert-adv-y="2048"  />

      
      <glyph glyph-name="uni74" unicode="&#x74;" d="M41 96Q41 122 53 176L225 983L127 983L147 1083L246 1083L313 1401L426 1401L358 1083L510 1083L489 983L338 983L170 201Q160 156 160 137Q160 74 240 74Q265 74 297 82L276-16Q202-27 170-27Q112-27 76.50 5Q41 37 41 96Z"  horiz-adv-x="436" vert-adv-y="2048"  />

      
      <glyph glyph-name="uni75" unicode="&#x75;" d="M49 152Q49 183 66 270L238 1085L352 1085L180 270Q168 212 168 186Q168 125 204 98.50Q240 72 322 72Q372 72 426.50 99Q481 126 524 176Q567 226 580 285L750 1085L864 1085L635 0L520 0L543 106L539 102Q463 28 396.50-0.50Q330-29 242-29Q49-29 49 152Z"  horiz-adv-x="866" vert-adv-y="2048"  />

      
      <glyph glyph-name="uni76" unicode="&#x76;" d="M147 1085L270 1085L311 207L315 207L731 1085L848 1085L332 0L207 0L147 1085Z"  horiz-adv-x="763" vert-adv-y="2048"  />

      
      <glyph glyph-name="uni77" unicode="&#x77;" d="M137 0L137 1085L248 1085L248 221L250 221L598 1085L725 1085L713 221L717 221L1075 1085L1186 1085L721 0L602 0L614 854L610 854L262 0L137 0Z"  horiz-adv-x="1093" vert-adv-y="2048"  />

      
      <glyph glyph-name="uni78" unicode="&#x78;" d="M-90 0L315 567L160 1085L287 1085L406 666L705 1085L836 1085L457 567L625 0L496 0L360 461L35 0L-90 0Z"  horiz-adv-x="763" vert-adv-y="2048"  />

      
      <glyph glyph-name="uni79" unicode="&#x79;" d="M-131-369L-111-268Q-91-272-47-272Q-24-272-4-268Q16-264 32-258Q48-252 63.50-240.50Q79-229 90-219Q101-209 113.50-191Q126-173 133.50-160.50Q141-148 152-125Q163-102 169-87.50Q175-73 186.50-46Q198-19 205-4L156 1085L276 1085L313 207L317 207L739 1085L856 1085L250-158Q141-377-39-377Q-103-377-131-369Z"  horiz-adv-x="763" vert-adv-y="2048"  />

      
      <glyph glyph-name="uni7a" unicode="&#x7a;" d="M-80 0L-57 109L584 985L152 985L172 1085L723 1085L700 979L63 100L524 100L504 0L-80 0Z"  horiz-adv-x="653" vert-adv-y="2048"  />

      
      <glyph glyph-name="uni7b" unicode="&#x7b;" d="M96 659L96 664Q153 677 191.50 698.50Q230 720 251.50 750.50Q273 781 283 806.50Q293 832 301 870L373 1214Q409 1380 483.50 1444.50Q558 1509 725 1509L725 1505Q625 1466 581.50 1415Q538 1364 522 1284L449 938Q425 824 376 760.50Q327 697 211 664L211 659Q285 646 316.50 610Q348 574 348 512Q348 480 298 235.50Q248-9 248-31Q248-77 275-113Q302-149 367-180L365-184Q231-184 176-143Q121-102 121-20Q121 23 171 259Q221 495 221 526Q221 640 96 659Z"  horiz-adv-x="690" vert-adv-y="2048"  />

      
      <glyph glyph-name="uni7c" unicode="&#x7c;" d="M10 0L326 1475L428 1475L113 0L10 0Z"  horiz-adv-x="438" vert-adv-y="2048"  />

      
      <glyph glyph-name="uni7d" unicode="&#x7d;" d="M-35-184L-33-180Q66-141 110-89.50Q154-38 170 41L244 389Q256 445 270 482.50Q284 520 309.50 557Q335 594 377 619.50Q419 645 479 662L479 666Q405 679 373.50 715Q342 751 342 813Q342 857 392 1090Q442 1323 442 1354Q442 1402 416.50 1438Q391 1474 326 1505L326 1509Q383 1509 423 1502.50Q463 1496 498 1478.50Q533 1461 551 1426.50Q569 1392 569 1339Q569 1300 519 1060.50Q469 821 469 805Q469 750 499 712Q529 674 594 666L594 662Q540 649 502.50 629.50Q465 610 443.50 582Q422 554 411 527Q400 500 391 461L317 111Q299 29 276.50-23Q254-75 214.50-113.50Q175-152 115-168Q55-184-35-184Z"  horiz-adv-x="688" vert-adv-y="2048"  />

      
      <glyph glyph-name="uni7e" unicode="&#x7e;" d="M29 420Q91 498 152.50 544Q214 590 287 590Q336 590 401 564Q466 538 523.50 511.50Q581 485 612 485Q698 485 795 606L846 541Q717 381 590 381Q536 381 422.50 433Q309 485 268 485Q250 485 232 480.50Q214 476 197.50 465.50Q181 455 168.50 446Q156 437 140.50 421Q125 405 117.50 396.50Q110 388 96.50 371.50Q83 355 80 352L29 420Z"  horiz-adv-x="872" vert-adv-y="2048"  />

      
      <glyph glyph-name="unia4" unicode="&#xa4;" d="M-55 205L37 279Q-4 363-4 442Q-4 630 150 809L88 885L201 977L262 903Q399 989 553 989Q686 989 795 903L887 977L958 885L868 809Q905 728 905 641Q905 440 756 279L815 205L702 111L643 186Q503 98 348 98Q217 98 111 186L16 111L-55 205M129 479Q129 372 200.50 298.50Q272 225 381 225Q478 225 568.50 277Q659 329 716.50 419Q774 509 774 610Q774 716 703.50 789Q633 862 524 862Q426 862 335 812Q244 762 186.50 672.50Q129 583 129 479Z"  horiz-adv-x="905" vert-adv-y="2048"  />

      
      <glyph glyph-name="unia6" unicode="&#xa6;" d="M10 0L137 590L240 590L113 0L10 0M199 885L326 1475L428 1475L301 885L199 885Z"  horiz-adv-x="438" vert-adv-y="2048"  />

      
      <glyph glyph-name="unia7" unicode="&#xa7;" d="M0-47Q0 6 10 47L117 47Q106-6 106-35Q106-112 147-155.50Q188-199 264-199Q367-199 439.50-127Q512-55 512 18Q512 60 492.50 102.50Q473 145 430 193Q387 241 345.50 279Q304 317 233 377Q148 449 107 511.50Q66 574 66 647Q66 709 86 761.50Q106 814 144.50 856Q183 898 224 928.50Q265 959 322 991Q258 1079 258 1159Q258 1237 289 1303.50Q320 1370 372 1415Q424 1460 491.50 1485.50Q559 1511 631 1511Q752 1511 813 1441.50Q874 1372 874 1257Q874 1218 868 1178L760 1178Q766 1212 766 1243Q766 1324 729 1373.50Q692 1423 610 1423Q505 1423 440 1358.50Q375 1294 375 1180Q375 1084 461 1016L651 866Q811 738 811 586Q811 475 740.50 385Q670 295 559 238Q625 169 625 63Q625-38 570.50-120Q516-202 431-245.50Q346-289 250-289Q130-289 65-223Q0-157 0-47M166 657Q166 613 186 580Q206 547 248 512L504 297Q593 332 652 404Q711 476 711 561Q711 617 683.50 658.50Q656 700 604 743L377 938Q284 903 225 826.50Q166 750 166 657Z"  horiz-adv-x="872" vert-adv-y="2048"  />

      
      <glyph glyph-name="unia9" unicode="&#xa9;" d="M14 575Q14 755 95.50 928.50Q177 1102 307.50 1228Q438 1354 609 1431.50Q780 1509 952 1509Q1129 1509 1268 1430Q1407 1351 1483 1213Q1559 1075 1559 903Q1559 782 1522.50 662Q1486 542 1422 439.50Q1358 337 1268.50 248.50Q1179 160 1076.50 98Q974 36 857.50 0.50Q741-35 625-35Q447-35 307 44.50Q167 124 90.50 263Q14 402 14 575M111 592Q111 361 259.50 209Q408 57 643 57Q744 57 846 88.50Q948 120 1038 175Q1128 230 1207 308Q1286 386 1342.50 477Q1399 568 1431.50 674Q1464 780 1464 887Q1464 1118 1316 1267.50Q1168 1417 934 1417Q782 1417 632 1348.50Q482 1280 367.50 1168.50Q253 1057 182 904Q111 751 111 592M483.50 391Q483.50 391 439.25 437Q395 483 395 633Q395 783 464.50 912Q534 1041 653.50 1116.50Q773 1192 913 1192Q1050 1192 1127 1115.50Q1204 1039 1204 899L1096 899Q1096 990 1041 1045Q986 1100 895 1100Q786 1100 696 1036Q606 972 557 870.50Q508 769 508 655Q508 540 570 465.50Q632 391 748 391Q840 391 920.50 447.50Q1001 504 1032 598L1141 598Q1099 465 981 382Q863 299 729 299Q572 299 483.50 391Z"  horiz-adv-x="1572" vert-adv-y="2048"  />

      
      <glyph glyph-name="uniab" unicode="&#xab;" d="M150 463L178 602L500 809L475 692L242 532L408 377L381 256L150 463M516 463L545 602L866 809L842 692L608 532L774 377L748 256L516 463Z"  horiz-adv-x="983" vert-adv-y="2048"  />

      
      <glyph glyph-name="uniac" unicode="&#xac;" d="M72 432L94 532L887 532L780 37L680 37L764 432L72 432Z"  horiz-adv-x="872" vert-adv-y="2048"  />

      
      <glyph glyph-name="uniad" unicode="&#xad;" d="M41 528L66 643L575 643L551 528L41 528Z"  horiz-adv-x="591" vert-adv-y="2048"  />

      
      <glyph glyph-name="uniae" unicode="&#xae;" d="M14 575Q14 747 93 918Q172 1089 300 1218.50Q428 1348 601 1428.50Q774 1509 952 1509Q1129 1509 1268 1430Q1407 1351 1483 1213Q1559 1075 1559 903Q1559 722 1478 548Q1397 374 1267.50 247Q1138 120 967.50 42.50Q797-35 625-35Q447-35 307 44.50Q167 124 90.50 263Q14 402 14 575M111 592Q111 361 259.50 209Q408 57 643 57Q744 57 846 88.50Q948 120 1038 175Q1128 230 1207 308Q1286 386 1342.50 477Q1399 568 1431.50 674Q1464 780 1464 887Q1464 1118 1316 1267.50Q1168 1417 934 1417Q777 1417 625 1346.50Q473 1276 361 1162Q249 1048 180 897Q111 746 111 592M418 307L602 1171L967 1171Q1090 1171 1157.50 1133.50Q1225 1096 1225 1006Q1225 908 1178 838.50Q1131 769 1060 738Q989 707 903 707L1069 307L948 307L795 707L606 707L520 307L418 307M623 788L864 788Q917 788 960.50 798Q1004 808 1040 830.50Q1076 853 1096 893Q1116 933 1116 989Q1116 1094 928 1094L688 1094L623 788Z"  horiz-adv-x="1572" vert-adv-y="2048"  />

      
      <glyph glyph-name="unib0" unicode="&#xb0;" d="M94 1104Q94 1194 144.50 1277Q195 1360 280 1411Q365 1462 459 1462Q564 1462 630 1396Q696 1330 696 1229Q696 1089 582.50 980.50Q469 872 332 872Q227 872 160.50 937.50Q94 1003 94 1104M172 1120Q172 1046 221 998Q270 950 348 950Q450 950 533 1031.50Q616 1113 616 1212Q616 1286 567 1335Q518 1384 440 1384Q339 1384 255.50 1304Q172 1224 172 1120Z"  horiz-adv-x="786" vert-adv-y="2048"  />

      
      <glyph glyph-name="unib1" unicode="&#xb1;" d="M-61 88L-41 188L752 188L731 88L-61 88M51 618L74 719L420 719L489 1051L590 1051L520 719L866 719L844 618L498 618L426 285L326 285L397 618L51 618Z"  horiz-adv-x="872" vert-adv-y="2048"  />

      
      <glyph glyph-name="unib6" unicode="&#xb6;" d="M195 1006Q195 1101 224 1180.50Q253 1260 301.50 1313.50Q350 1367 414.50 1404Q479 1441 549 1458Q619 1475 692 1475L1051 1475L690-229L578-229L911 1341L717 1341L383-229L270-229L471 719Q345 719 270 800Q195 881 195 1006Z"  horiz-adv-x="1107" vert-adv-y="2048"  />

      
      <glyph glyph-name="unib7" unicode="&#xb7;" d="M133 395L170 567L307 567L270 395L133 395Z"  horiz-adv-x="438" vert-adv-y="2048"  />

      
      <glyph glyph-name="unibb" unicode="&#xbb;" d="M117 256L143 377L375 532L211 692L236 809L467 602L438 463L117 256M483 256L510 377L741 532L578 692L602 809L834 602L805 463L483 256Z"  horiz-adv-x="983" vert-adv-y="2048"  />

      
      <glyph glyph-name="uni2010" unicode="&#x2010;" d="M41 528L66 643L575 643L551 528L41 528Z"  horiz-adv-x="591" vert-adv-y="2048"  />

      
      <glyph glyph-name="uni2011" unicode="&#x2011;" d="M41 528L66 643L575 643L551 528L41 528Z"  horiz-adv-x="591" vert-adv-y="2048"  />

      
      <glyph glyph-name="uni2012" unicode="&#x2012;" d="M41 528L66 643L575 643L551 528L41 528Z"  horiz-adv-x="591" vert-adv-y="2048"  />

      
      <glyph glyph-name="uni2013" unicode="&#x2013;" d="M-10 432L10 532L993 532L973 432L-10 432Z"  horiz-adv-x="983" vert-adv-y="2048"  />

      
      <glyph glyph-name="uni2014" unicode="&#x2014;" d="M-10 432L10 532L1976 532L1956 432L-10 432Z"  horiz-adv-x="1966" vert-adv-y="2048"  />

      
      <glyph glyph-name="uni2018" unicode="&#x2018;" d="M35 1034L72 1206Q83 1253 91.50 1284Q100 1315 116 1354Q132 1393 150.50 1415.50Q169 1438 199 1455.50Q229 1473 266 1475L250 1401Q186 1389 147 1206L209 1206L172 1034L35 1034Z"  horiz-adv-x="315" vert-adv-y="2048"  />

      
      <glyph glyph-name="uni2019" unicode="&#x2019;" d="M49 1034L66 1108Q129 1119 168 1303L106 1303L143 1475L281 1475L244 1303Q231 1243 219 1205Q207 1167 185 1124.50Q163 1082 129 1059.50Q95 1037 49 1034Z"  horiz-adv-x="315" vert-adv-y="2048"  />

      
      <glyph glyph-name="uni201A" unicode="&#x201A;" d="M104-268L121-195Q184-184 223 0L162 0L199 172L336 172L299 0Q289-47 280-78.50Q271-110 255-148Q239-186 220-209Q201-232 171-249Q141-266 104-268Z"  horiz-adv-x="438" vert-adv-y="2048"  />

      
      <glyph glyph-name="uni201C" unicode="&#x201C;" d="M119 1034L156 1206Q167 1253 175.50 1284Q184 1315 200 1354Q216 1393 234.50 1415.50Q253 1438 283 1455.50Q313 1473 350 1475L334 1401Q270 1389 231 1206L293 1206L256 1034L119 1034M375 1034L412 1206Q423 1253 431.50 1284Q440 1315 456 1354Q472 1393 490.50 1415.50Q509 1438 539 1455.50Q569 1473 606 1475L590 1401Q526 1389 487 1206L549 1206L512 1034L375 1034Z"  horiz-adv-x="655" vert-adv-y="2048"  />

      
      <glyph glyph-name="uni201D" unicode="&#x201D;" d="M49 1034L66 1108Q129 1119 168 1303L106 1303L143 1475L281 1475L244 1303Q231 1243 219 1205Q207 1167 185 1124.50Q163 1082 129 1059.50Q95 1037 49 1034M305 1034L322 1108Q385 1119 424 1303L362 1303L399 1475L537 1475L500 1303Q487 1243 475 1205Q463 1167 441 1124.50Q419 1082 385 1059.50Q351 1037 305 1034Z"  horiz-adv-x="655" vert-adv-y="2048"  />

      
      <glyph glyph-name="uni201E" unicode="&#x201E;" d="M80-268L96-195Q160-183 199 0L137 0L174 172L311 172L274 0Q264-47 255-78Q246-109 230-147.50Q214-186 195.50-209Q177-232 147-249Q117-266 80-268M336-268L352-195Q416-183 455 0L393 0L430 172L567 172L530 0Q520-47 511-78Q502-109 486-147.50Q470-186 451.50-209Q433-232 403-249Q373-266 336-268Z"  horiz-adv-x="647" vert-adv-y="2048"  />

      
      <glyph glyph-name="uni2022" unicode="&#x2022;" d="M154 465Q154 582 252 679Q350 776 471 776Q563 776 622.50 717.50Q682 659 682 569Q682 449 582 354.50Q482 260 362 260Q271 260 212.50 319Q154 378 154 465Z"  horiz-adv-x="835" vert-adv-y="2048"  />

      
      <glyph glyph-name="uni2026" unicode="&#x2026;" d="M242 0L279 172L416 172L379 0L242 0M897 0L934 172L1071 172L1034 0L897 0M1552 0L1589 172L1726 172L1690 0L1552 0Z"  horiz-adv-x="1966" vert-adv-y="2048"  />

      
      <glyph glyph-name="uni2039" unicode="&#x2039;" d="M164 463L193 602L514 809L489 692L256 532L422 377L395 256L164 463Z"  horiz-adv-x="655" vert-adv-y="2048"  />

      
      <glyph glyph-name="uni203A" unicode="&#x203A;" d="M141 256L168 377L399 532L236 692L260 809L492 602L463 463L141 256Z"  horiz-adv-x="655" vert-adv-y="2048"  />

      
      <glyph glyph-name="uni20AC" unicode="&#x20AC;" d="M51 535L100 637L184 637Q188 670 199 717Q217 799 219 805L109 805L158 905L248 905Q409 1462 760 1462Q843 1462 901 1441.50Q959 1421 987 1391L961 1264Q900 1346 750 1346Q615 1346 520 1228Q425 1110 369 905L809 905L758 805L338 805Q320 726 319 717Q309 674 303 637L678 637L627 535L289 535Q256 313 305.50 200.50Q355 88 481 88Q626 88 727 172L700 43Q610-27 440-27Q270-27 200.50 108.50Q131 244 170 535L51 535Z"  horiz-adv-x="872" vert-adv-y="2048"  />

      
      <glyph glyph-name="uni2122" unicode="&#x2122;" d="M180 1374L201 1475L664 1475L643 1374L461 1374L305 645L205 645L360 1374L180 1374M575 645L752 1475L924 1475L946 889L950 889L1229 1475L1399 1475L1223 645L1122 645L1278 1374L1276 1374L934 645L862 645L834 1374L831 1374L676 645L575 645Z"  horiz-adv-x="1421" vert-adv-y="2048"  />

      
      <glyph glyph-name="uni25FC" unicode="&#x25FC;" d="M0 0L0 1085L1085 1085L1085 0L0 0Z"  horiz-adv-x="1085" vert-adv-y="2048"  />

      

  </font>
</defs>
</svg>
