<?xml version="1.0" standalone="no"?>
  <!DOCTYPE svg PUBLIC "-//W3C//DTD SVG 1.1//EN" "http://www.w3.org/Graphics/SVG/1.1/DTD/svg11.dtd" >
  <svg>
  <metadata>
  Created by font-carrier
  </metadata>
  <defs>
  <font id="HeliosCond-Italic" horiz-adv-x="1066" vert-adv-y="1066" >
    <font-face
      
      font-family="HeliosCond"
      
      font-weight="400"
      
      font-stretch="normal"
      
      units-per-em="1000"
      
      ascent="906"
      
      descent="-207"
      
    />
      <missing-glyph />

      

      
      <glyph glyph-name="uni21" unicode="&#x21;" d="M175 176L221 499L267 720L354 720L308 499L218 176L175 176M203 0L116 0L136 96L223 96L203 0Z"  horiz-adv-x="319" vert-adv-y="1000"  />

      
      <glyph glyph-name="uni22" unicode="&#x22;" d="M146 493L191 709L241 709L196 493L146 493M253 493L298 709L348 709L303 493L253 493Z"  horiz-adv-x="240" vert-adv-y="1000"  />

      
      <glyph glyph-name="uni23" unicode="&#x23;" d="M32 0L159 244L56 244L84 300L188 300L249 420L145 420L173 476L278 476L404 720L457 720L331 476L416 476L541 720L595 720L469 476L575 476L547 420L439 420L378 300L485 300L459 244L349 244L223 0L170 0L296 244L212 244L84 0L32 0M242 300L325 300L387 420L302 420L242 300Z"  horiz-adv-x="480" vert-adv-y="1000"  />

      
      <glyph glyph-name="uni24" unicode="&#x24;" d="M545 528L467 528Q473 560 473 582Q473 619 456.50 633.50Q440 648 403 648L352 403Q433 363 461 335Q499 298 499 239Q499 216 493 184Q473 90 414.50 38Q356-14 262-14L242-111L202-111L222-14Q145-14 109 22Q73 58 73 122Q73 164 89 223L166 223Q157 185 156 177Q152 154 152 135Q152 98 170.50 79Q189 60 238 60L294 328Q225 364 198 391Q156 433 156 492Q156 513 160 532Q178 615 236 667.50Q294 720 376 720L389 782L431 782L418 720Q485 720 519 686Q553 652 553 591Q553 565 545 528M313 419L361 648Q321 648 291 624Q256 596 244 539Q241 522 241 509Q241 477 261 455Q276 438 313 419M331 313L278 60Q336 60 366.50 89.50Q397 119 409 177Q414 202 414 217Q414 252 392 275Q375 293 331 313Z"  horiz-adv-x="480" vert-adv-y="1000"  />

      
      <glyph glyph-name="uni25" unicode="&#x25;" d="M722 720L250-15L198-15L673 720L722 720M668 347Q721 347 747 316Q770 288 770 238Q770 227 769.50 214.50Q769 202 763 175Q743 80 699 38Q659 0 595 0Q545 0 520 23Q495 46 495 102Q495 133 504 178Q520 254 556 296Q599 347 668 347M607 53Q646 53 670 91Q687 117 696 162Q698 174 702 197Q706 220 706 233Q706 261 697 275Q685 293 657 293Q615 293 591 246Q577 219 565 162Q563 150 561 136.50Q559 123 559 112Q559 85 569.50 69Q580 53 607 53M330 706Q384 706 408 677.50Q432 649 432 598Q432 571 424 534Q404 439 360 397Q320 359 257 359Q208 359 182 382Q156 405 156 460Q156 486 159 505Q164 526 166 537Q182 612 218 655Q261 706 330 706M270 413Q309 413 332 450Q348 475 357 521Q359 533 363 556Q367 579 367 592Q367 621 358 635Q346 653 319 653Q277 653 252 605Q238 577 226 521Q224 509 222 496.50Q220 484 220 473Q220 446 231 429.50Q242 413 270 413Z"  horiz-adv-x="800" vert-adv-y="1000"  />

      
      <glyph glyph-name="uni26" unicode="&#x26;" d="M481 577Q483 585 483 599Q483 625 470.50 640Q458 655 430 655Q399 655 375.50 632.50Q352 610 347.50 587.50Q343 565 343 553Q343 527 353 499Q359 482 375 450Q422 481 442 503Q473 535 481 577M528 131L593 0L497 0L466 64Q384-18 279-18Q196-18 151 23Q106 64 106 137Q106 163 112 192Q128 267 181 321Q222 363 306 410Q279 455 271.50 480.50Q264 506 264 534Q264 543 264 549.50Q264 556 268 572Q281 633 330.50 676.50Q380 720 443 720Q499 720 531.50 691.50Q564 663 564 612Q564 604 564 596Q561 583 560 577Q549 524 499 473Q459 432 398 397L494 195Q511 226 526.50 263Q542 300 550 330L621 330Q605 273 585 228Q561 173 528 131M437 122L329 355Q269 317 241 286Q205 246 194 191Q192 184 191 173.50Q190 163 190 155Q190 108 220 81Q250 54 303 54Q337 54 371 72.50Q405 91 437 122Z"  horiz-adv-x="640" vert-adv-y="1000"  />

      
      <glyph glyph-name="uni27" unicode="&#x27;" d="M199 493L244 709L294 709L249 493L199 493Z"  horiz-adv-x="240" vert-adv-y="1000"  />

      
      <glyph glyph-name="uni28" unicode="&#x28;" d="M373 720L424 720Q388 668 352 616Q305 543 274 470Q232 373 208.50 260.50Q185 148 185 53Q185-76 235-207L179-207Q145-124 129-54Q110 28 110 109Q110 177 125 249Q154 385 214 495Q265 587 373 720Z"  horiz-adv-x="320" vert-adv-y="1000"  />

      
      <glyph glyph-name="uni29" unicode="&#x29;" d="M55-207L4-207Q39-155 75-103Q125-25 154 43Q195 137 219 253.50Q243 370 243 457Q243 588 193 720L249 720Q281 639 299 561.50Q317 484 317 405Q317 338 302 264Q274 131 213 18Q160-78 55-207Z"  horiz-adv-x="320" vert-adv-y="1000"  />

      
      <glyph glyph-name="uni2a" unicode="&#x2a;" d="M243 642L343 600L368 720L418 720L394 603L508 642L514 596L397 560L450 468L405 437L350 532L262 442L226 468L317 557L218 600L243 642Z"  horiz-adv-x="480" vert-adv-y="1000"  />

      
      <glyph glyph-name="uni2b" unicode="&#x2b;" d="M264 277L308 485L375 485L331 277L497 277L483 210L317 210L273 0L206 0L250 210L86 210L100 277L264 277Z"  horiz-adv-x="480" vert-adv-y="1000"  />

      
      <glyph glyph-name="uni2c" unicode="&#x2c;" d="M124 0L77 0L97 96L184 96L160-17Q153-50 136-76.50Q119-103 89-121Q80-128 70-132Q68-133 48-140L57-97Q70-95 81-84Q99-68 109-47.50Q119-27 124 0Z"  horiz-adv-x="240" vert-adv-y="1000"  />

      
      <glyph glyph-name="uni2d" unicode="&#x2d;" d="M86 210L100 278L497 278L483 210L86 210Z"  horiz-adv-x="480" vert-adv-y="1000"  />

      
      <glyph glyph-name="uni2e" unicode="&#x2e;" d="M164 0L77 0L97 96L184 96L164 0Z"  horiz-adv-x="240" vert-adv-y="1000"  />

      
      <glyph glyph-name="uni2f" unicode="&#x2f;" d="M41-25L-18-25L371 720L430 720L41-25Z"  horiz-adv-x="266" vert-adv-y="1000"  />

      
      <glyph glyph-name="uni30" unicode="&#x30;" d="M201 354Q188 296 182 252.50Q176 209 176 171Q176 117 193.50 87Q211 57 252 57Q321 57 366 149Q400 217 428 354Q438 401 444.50 444.50Q451 488 451 526Q451 582 434 615Q417 648 376 648Q307 648 260 549Q228 483 201 354M237-15Q157-15 122 36Q92 79 92 161Q92 202 99 248Q106 294 118 354Q138 450 161 511Q196 605 245 656Q307 720 391 720Q470 720 505 666Q535 620 535 537Q535 501 530.50 461Q526 421 511 354Q488 245 467 186Q433 92 385 44Q326-15 237-15Z"  horiz-adv-x="480" vert-adv-y="1000"  />

      
      <glyph glyph-name="uni31" unicode="&#x31;" d="M224 0L334 524L181 524L194 587Q278 587 319 611Q368 640 393 720L455 720L304 0L224 0Z"  horiz-adv-x="480" vert-adv-y="1000"  />

      
      <glyph glyph-name="uni32" unicode="&#x32;" d="M531 519Q515 445 475 393Q443 352 368 295L224 183Q163 135 142 72L444 72L429 0L42 0Q61 86 89.50 134.50Q118 183 177 230L341 360Q395 404 414 431Q437 464 449 521Q455 547 455 568Q455 606 435 627Q415 648 369 648Q304 648 270 598Q245 561 227 475L148 475L155 508Q175 603 232 659Q294 720 388 720Q463 720 500.50 682.50Q538 645 538 578Q538 567 537 555Q536 543 531 519Z"  horiz-adv-x="480" vert-adv-y="1000"  />

      
      <glyph glyph-name="uni33" unicode="&#x33;" d="M253 335L268 407Q343 407 383 432Q429 461 443 530Q448 555 448 572Q448 610 429 629Q410 648 367 648Q314 648 278 605Q247 568 234 507L159 507Q179 600 238 658Q301 720 387 720Q456 720 494 684Q532 648 532 585Q532 577 531.50 570Q531 563 527 541Q513 478 480 437Q442 390 383 376Q430 365 454.50 332.50Q479 300 479 250Q479 224 473 195Q453 100 394 44Q329-18 231-18Q152-18 113.50 23.50Q75 65 75 138Q75 169 83 211L162 211Q159 194 157 178.50Q155 163 155 148Q155 103 173 81Q195 54 246 54Q303 54 341 91Q379 128 391 186Q399 224 399 247Q399 299 365 317Q331 335 253 335Z"  horiz-adv-x="480" vert-adv-y="1000"  />

      
      <glyph glyph-name="uni34" unicode="&#x34;" d="M414 595L143 252L342 252L414 595M79 253L446 720L519 720L421 252L486 252L471 180L406 180L368 0L289 0L327 180L64 180L79 253Z"  horiz-adv-x="480" vert-adv-y="1000"  />

      
      <glyph glyph-name="uni35" unicode="&#x35;" d="M87 189L169 189Q162 162 162 137Q162 99 182.50 78.50Q203 58 248 58Q308 58 349 111Q384 156 400 232Q408 270 408 302Q408 348 389 372Q366 401 315 401Q244 401 200 335L129 335L250 706L556 706L541 634L299 634L222 421Q255 448 284 460.50Q313 473 349 473Q423 473 460 427Q493 386 493 316Q493 284 485 244Q462 134 407 67Q340-14 235-14Q157-14 117 21Q77 56 77 122Q77 146 80 162Q85 180 87 189Z"  horiz-adv-x="480" vert-adv-y="1000"  />

      
      <glyph glyph-name="uni36" unicode="&#x36;" d="M406 232Q413 267 413 290Q413 335 394 358Q372 385 322 385Q258 385 221 338Q193 303 180.50 246.50Q168 190 168 156Q168 104 193 79Q215 57 259 57Q307 57 342 93Q385 138 406 232M246-15Q158-15 119 36Q87 78 87 160Q87 205 96 259Q99 279 108 319Q131 429 152 489Q189 593 242 649Q309 720 405 720Q467 720 503 685Q539 650 539 588Q539 567 535 548L456 548Q459 565 459 578Q459 615 437.50 631.50Q416 648 377 648Q306 648 253 537Q226 481 197 368Q228 413 268 435Q308 457 350 457Q423 457 462 412Q497 371 497 302Q497 268 490 237Q465 123 397.50 54Q330-15 246-15Z"  horiz-adv-x="480" vert-adv-y="1000"  />

      
      <glyph glyph-name="uni37" unicode="&#x37;" d="M175 633L190 705L586 705L572 639Q440 500 346 338Q252 176 201 0L111 0Q168 173 267.50 332.50Q367 492 505 633L175 633Z"  horiz-adv-x="480" vert-adv-y="1000"  />

      
      <glyph glyph-name="uni38" unicode="&#x38;" d="M313 349Q255 349 216 304Q183 265 170 204Q166 185 164 171.50Q162 158 162 142Q162 100 182.50 78.50Q203 57 252 57Q317 57 352 98Q381 132 396 204Q401 232 401 252Q401 297 382 321Q360 349 313 349M376 648Q329 648 301 619Q273 590 262 539Q259 529 258 518Q257 507 257 495Q257 459 275 440Q293 421 331 421Q380 421 410 455Q435 484 446 536Q448 544 449 555Q450 566 450 575Q450 609 434 627Q415 648 376 648M261 388Q218 397 197 427.50Q176 458 176 502Q176 521 181 548Q195 617 245 664Q304 720 391 720Q465 720 502 680Q535 645 535 586Q535 563 531 546Q518 487 484 446Q445 400 389 389Q431 380 457.50 347Q484 314 484 256Q484 230 478 200Q456 96 394.50 40.50Q333-15 237-15Q78-15 78 129Q78 158 86 200Q103 281 160 334Q207 378 261 388Z"  horiz-adv-x="480" vert-adv-y="1000"  />

      
      <glyph glyph-name="uni39" unicode="&#x39;" d="M452 470Q460 505 460 538Q460 588 442 615Q420 648 371 648Q310 648 270 593Q240 552 225 483Q222 467 220 450.50Q218 434 218 418Q218 373 235 349Q256 320 303 320Q365 320 405 367Q438 406 452 470M383 720Q471 720 510 669Q542 627 542 545Q542 500 533 446Q530 426 521 386Q498 273 478 216Q443 113 389 56Q322-15 227-15Q160-15 124 19Q88 53 88 114Q88 127 88 140Q91 152 92 157L173 157Q169 140 169 122Q169 89 188 73Q207 57 248 57Q326 57 378 168Q401 216 432 337Q401 292 361 270Q321 248 279 248Q206 248 167 293Q132 334 132 403Q132 437 139 468Q164 582 231.50 651Q299 720 383 720Z"  horiz-adv-x="480" vert-adv-y="1000"  />

      
      <glyph glyph-name="uni3a" unicode="&#x3a;" d="M164 0L77 0L97 96L184 96L164 0M254 429L167 429L187 525L274 525L254 429Z"  horiz-adv-x="240" vert-adv-y="1000"  />

      
      <glyph glyph-name="uni3b" unicode="&#x3b;" d="M124 0L77 0L97 96L184 96L160-17Q153-50 136-76.50Q119-103 89-121Q80-128 70-132Q68-133 48-140L57-97Q70-95 81-84Q99-68 109-47.50Q119-27 124 0M254 429L167 429L187 525L274 525L254 429Z"  horiz-adv-x="240" vert-adv-y="1000"  />

      
      <glyph glyph-name="uni3c" unicode="&#x3c;" d="M166 244L454 61L439-9L85 213L98 275L545 497L531 427L166 244Z"  horiz-adv-x="480" vert-adv-y="1000"  />

      
      <glyph glyph-name="uni3d" unicode="&#x3d;" d="M516 369L502 302L105 302L119 369L516 369M478 186L464 119L67 119L81 186L478 186Z"  horiz-adv-x="480" vert-adv-y="1000"  />

      
      <glyph glyph-name="uni3e" unicode="&#x3e;" d="M53 61L417 244L130 427L144 497L499 275L486 213L38-9L53 61Z"  horiz-adv-x="480" vert-adv-y="1000"  />

      
      <glyph glyph-name="uni3f" unicode="&#x3f;" d="M315 165L229 165Q244 237 264 272Q284 307 346 363L393 406Q428 441 444 465Q464 496 472 534Q475 549 475 565Q475 602 457 623Q436 648 394 648Q328 648 292 602Q264 567 249 493L166 493Q186 589 242 650Q307 720 403 720Q482 720 522 686Q562 652 562 589Q562 566 556 540Q537 448 456 370Q407 324 359 279Q344 262 337 247.50Q330 233 324 206Q318 179 315 165M282 0L194 0L214 96L302 96L282 0Z"  horiz-adv-x="480" vert-adv-y="1000"  />

      
      <glyph glyph-name="uni40" unicode="&#x40;" d="M522 514Q452 514 383 432Q323 360 306 283Q304 275 304 259Q304 229 318.50 210Q333 191 362 191Q396 191 435 221Q466 245 491 280Q521 322 541 359Q568 409 575 444Q577 454 577 460Q577 485 562.50 499.50Q548 514 522 514M629 508L652 553L718 553L558 260Q551 248 544 233Q537 218 535 210Q530 182 557 182Q587 182 628 208Q663 230 691.50 261.50Q720 293 741.50 334Q763 375 772 417Q778 444 778 469Q778 562 709.50 617.50Q641 673 540 673Q408 673 296.50 577.50Q185 482 157 349Q154 331 152 316Q150 301 150 285Q150 176 223 104Q296 32 408 32Q482 32 559 68Q636 104 693 167L750 167Q688 84 591 34.50Q494-15 398-15Q265-15 183 66Q101 147 101 274Q101 301 102 313.50Q103 326 109 352Q141 504 271 612Q401 720 553 720Q683 720 764 636Q827 568 827 477Q827 444 820 413Q799 319 725 237Q681 189 638 163Q585 131 534 131Q506 131 485 144Q464 157 460 182Q435 160 401 146.50Q367 133 335 133Q285 133 256 164Q227 195 227 244Q227 252 228.50 262Q230 272 231 278Q254 383 339 473Q433 572 533 572Q568 572 594.50 555.50Q621 539 629 508Z"  horiz-adv-x="768" vert-adv-y="1000"  />

      
      <glyph glyph-name="uni41" unicode="&#x41;" d="M11 0L367 720L473 720L524 0L436 0L422 207L195 207L99 0L11 0M420 279L407 662L230 279L420 279Z"  horiz-adv-x="534" vert-adv-y="1000"  />

      
      <glyph glyph-name="uni42" unicode="&#x42;" d="M292 648L243 412L343 412Q405 412 441.50 440Q478 468 492 535Q496 554 496 572Q496 611 471.50 629.50Q447 648 399 648L292 648M227 340L171 72L290 72Q354 72 391.50 104.50Q429 137 443 207Q446 218 447 229Q448 240 448 252Q448 297 419.50 318.50Q391 340 339 340L227 340M275 0L76 0L227 720L416 720Q499 720 540 686Q581 652 581 589Q581 566 575 540Q563 478 527.50 437.50Q492 397 438 383Q480 376 505.50 342.50Q531 309 531 255Q531 244 530 231Q529 218 526 206Q505 105 440.50 52.50Q376 0 275 0Z"  horiz-adv-x="533" vert-adv-y="1000"  />

      
      <glyph glyph-name="uni43" unicode="&#x43;" d="M589 504L509 504Q515 533 515 560Q515 608 493 633Q468 662 413 662Q323 662 268 552Q237 490 212 371Q202 323 194.50 274Q187 225 187 189Q187 125 207 93Q231 55 286 55Q357 55 398 113Q430 157 458 260L538 260Q502 123 448 59Q384-17 276-17Q182-17 139 41Q103 90 103 181Q103 226 109 267Q115 308 128 369Q149 468 178 535Q217 627 272 675Q339 734 432 734Q513 734 556 688Q596 645 596 569Q596 549 595 538Q594 527 589 504Z"  horiz-adv-x="534" vert-adv-y="1000"  />

      
      <glyph glyph-name="uni44" unicode="&#x44;" d="M290 0L78 0L229 720L427 720Q535 720 583 663Q623 616 623 523Q623 489 617.50 448Q612 407 602 360Q569 201 506 114Q424 0 290 0M294 648L173 72L301 72Q388 72 437.50 141Q487 210 522 374Q530 413 535 449.50Q540 486 540 513Q540 579 514 612Q485 648 422 648L294 648Z"  horiz-adv-x="586" vert-adv-y="1000"  />

      
      <glyph glyph-name="uni45" unicode="&#x45;" d="M433 0L72 0L223 720L583 720L568 648L287 648L237 410L500 410L485 338L222 338L166 72L448 72L433 0Z"  horiz-adv-x="480" vert-adv-y="1000"  />

      
      <glyph glyph-name="uni46" unicode="&#x46;" d="M151 0L71 0L222 720L560 720L545 648L287 648L238 412L478 412L462 340L222 340L151 0Z"  horiz-adv-x="426" vert-adv-y="1000"  />

      
      <glyph glyph-name="uni47" unicode="&#x47;" d="M333 298L348 370L588 370L510 0L449 0L471 107Q442 47 389 15Q336-17 273-17Q177-17 135 35Q99 79 99 166Q99 213 110 277Q113 296 124 348Q146 453 177 526Q218 623 276 673Q347 734 447 734Q532 734 574 692Q616 650 616 571Q616 557 615 542Q614 527 611 511L530 511Q536 538 536 561Q536 609 512 634Q485 662 432 662Q365 662 319 618Q278 579 250 505Q228 447 208 353Q197 301 190 256Q183 211 183 176Q183 115 206.50 85Q230 55 285 55Q361 55 409 101Q464 154 494 298L333 298Z"  horiz-adv-x="586" vert-adv-y="1000"  />

      
      <glyph glyph-name="uni48" unicode="&#x48;" d="M156 0L76 0L227 720L307 720L244 420L519 420L582 720L662 720L511 0L431 0L504 348L229 348L156 0Z"  horiz-adv-x="587" vert-adv-y="1000"  />

      
      <glyph glyph-name="uni49" unicode="&#x49;" d="M174 0L94 0L245 720L325 720L174 0Z"  horiz-adv-x="266" vert-adv-y="1000"  />

      
      <glyph glyph-name="uni4a" unicode="&#x4a;" d="M73 225L153 225L144 183Q141 169 138 152Q135 135 135 118Q135 88 149.50 72.50Q164 57 201 57Q256 57 284 96Q304 124 316 183L429 720L509 720L395 177Q374 74 318 27Q268-15 188-15Q95-15 67 40Q53 70 53 102Q53 127 57 147Q61 167 63 178L73 225Z"  horiz-adv-x="426" vert-adv-y="1000"  />

      
      <glyph glyph-name="uni4b" unicode="&#x4b;" d="M156 0L76 0L227 720L307 720L230 350L569 720L669 720L376 419L525 0L432 0L315 356L209 251L156 0Z"  horiz-adv-x="534" vert-adv-y="1000"  />

      
      <glyph glyph-name="uni4c" unicode="&#x4c;" d="M453 0L79 0L230 720L310 720L174 72L468 72L453 0Z"  horiz-adv-x="480" vert-adv-y="1000"  />

      
      <glyph glyph-name="uni4d" unicode="&#x4d;" d="M423 159L684 720L825 720L674 0L594 0L719 593Q728 638 738 684L693 588L419 0L324 0L298 596L296 684L276 591L152 0L73 0L224 720L365 720L388 158L388 147Q388 108 381 52Q395 88 401 104.50Q407 121 423 159Z"  horiz-adv-x="746" vert-adv-y="1000"  />

      
      <glyph glyph-name="uni4e" unicode="&#x4e;" d="M461 132L584 720L664 720L513 0L382 0L302 576Q300 589 299 613.50Q298 638 298 654L298 684L275 574L154 0L74 0L225 720L355 720L436 131Q439 116 441.50 93.50Q444 71 444 52L461 132Z"  horiz-adv-x="587" vert-adv-y="1000"  />

      
      <glyph glyph-name="uni4f" unicode="&#x4f;" d="M290-17Q191-17 147 37Q109 84 109 176Q109 214 115 257.50Q121 301 133 361Q154 462 183 531Q222 624 280 674Q350 734 448 734Q548 734 592 673Q629 622 629 527Q629 480 620 424Q617 404 608 361Q582 242 553 174Q515 84 456 37Q388-17 290-17M527 373Q546 457 546 518Q546 587 521 622Q493 662 431 662Q345 662 290 578Q245 509 217 373Q206 315 199 267.50Q192 220 192 185Q192 118 218 86.50Q244 55 306 55Q399 55 449 136Q491 204 527 373Z"  horiz-adv-x="587" vert-adv-y="1000"  />

      
      <glyph glyph-name="uni50" unicode="&#x50;" d="M298 648L241 377L319 377Q412 377 453 400Q507 430 525 517Q530 542 530 559Q530 608 497 628Q464 648 399 648L298 648M162 0L82 0L233 720L433 720Q520 720 567 684.50Q614 649 614 574Q614 549 608 517Q583 399 505 348Q440 305 331 305L226 305L162 0Z"  horiz-adv-x="534" vert-adv-y="1000"  />

      
      <glyph glyph-name="uni51" unicode="&#x51;" d="M494 86L563 17L511-33L445 34Q417 11 374-3.50Q331-18 290-18Q190-18 146 37Q108 84 108 178Q108 219 114.50 263.50Q121 308 133 366Q155 470 182 534Q221 628 278 676Q346 734 446 734Q548 734 593 675Q631 626 631 532Q631 486 622 432Q619 416 610 371Q595 304 571 234Q534 126 494 86M395 81L336 138L389 191L445 137Q462 158 486 222.50Q510 287 521.50 341.50Q533 396 540 443Q547 490 547 526Q547 594 520 628Q493 662 430 662Q338 662 287 577Q246 508 211 343Q203 304 197 260Q191 216 191 188Q191 123 215 91Q243 54 303 54Q329 54 349 59.50Q369 65 395 81Z"  horiz-adv-x="586" vert-adv-y="1000"  />

      
      <glyph glyph-name="uni52" unicode="&#x52;" d="M229 317L162 0L82 0L233 720L452 720Q535 720 580 685.50Q625 651 625 580Q625 554 619 524Q603 458 560.50 412.50Q518 367 455 358Q501 351 525 320Q549 289 549 238Q549 230 549 222Q545 203 544 193Q535 153 529 118Q523 83 523 62Q523 36 530 16L527 0L446 0Q443 24 443 48Q443 75 446 99.50Q449 124 458 167Q464 196 464 219Q464 317 359 317L229 317M298 648L244 389L383 389Q434 389 472 415Q521 449 536 521Q539 538 540 544.50Q541 551 541 564Q541 611 512.50 629.50Q484 648 434 648L298 648Z"  horiz-adv-x="586" vert-adv-y="1000"  />

      
      <glyph glyph-name="uni53" unicode="&#x53;" d="M97 228L177 228Q174 212 171 190Q168 168 168 156Q168 106 193.50 80.50Q219 55 277 55Q341 55 383.50 84Q426 113 439 175Q444 202 444 217Q444 257 419 281Q400 299 352 319L254 359Q215 375 195 403Q171 436 171 487Q171 516 178 548Q196 634 260 684Q324 734 413 734Q495 734 537.50 694.50Q580 655 580 580Q580 565 580 550Q577 537 576 531L496 531Q498 539 499 550.50Q500 562 500 571Q500 614 476 638Q452 662 404 662Q342 662 304 628Q271 598 260 548Q254 521 254 502Q254 454 301 436L407 393Q471 365 500.50 327.50Q530 290 530 237Q530 214 524 187Q503 87 434 35Q365-17 259-17Q88-17 88 149Q88 186 97 228Z"  horiz-adv-x="534" vert-adv-y="1000"  />

      
      <glyph glyph-name="uni54" unicode="&#x54;" d="M150 648L165 720L618 720L603 648L417 648L281 0L201 0L337 648L150 648Z"  horiz-adv-x="480" vert-adv-y="1000"  />

      
      <glyph glyph-name="uni55" unicode="&#x55;" d="M114 173L229 720L309 720L200 202Q199 198 196.50 180.50Q194 163 194 148Q194 106 215 83Q242 54 305 54Q390 54 433 107Q461 142 472 202L581 720L661 720L546 173Q526 80 458 31Q390-18 290-18Q204-18 156 18Q108 54 108 123Q108 146 114 173Z"  horiz-adv-x="587" vert-adv-y="1000"  />

      
      <glyph glyph-name="uni56" unicode="&#x56;" d="M586 720L674 720L316 0L217 0L162 720L250 720L277 58L586 720Z"  horiz-adv-x="534" vert-adv-y="1000"  />

      
      <glyph glyph-name="uni57" unicode="&#x57;" d="M476 489L268 0L170 0L167 720L255 720L245 224Q245 162 231 58Q260 138 290 218L501 720L600 720L591 224Q591 185 585 129Q583 114 577 58Q606 138 636 218L846 720L934 720L614 0L515 0L522 489Q522 545 537 662Q521 615 505.50 569.50Q490 524 476 489Z"  horiz-adv-x="799" vert-adv-y="1000"  />

      
      <glyph glyph-name="uni58" unicode="&#x58;" d="M22 0L299 370L178 720L267 720L359 439L569 720L658 720L392 370L511 0L420 0L330 301L111 0L22 0Z"  horiz-adv-x="534" vert-adv-y="1000"  />

      
      <glyph glyph-name="uni59" unicode="&#x59;" d="M250 720L342 359L587 720L675 720L365 279L306 0L227 0L286 279L162 720L250 720Z"  horiz-adv-x="534" vert-adv-y="1000"  />

      
      <glyph glyph-name="uni5a" unicode="&#x5a;" d="M454 0L27 0L41 69L503 648L172 648L187 720L600 720L586 651L124 72L469 72L454 0Z"  horiz-adv-x="480" vert-adv-y="1000"  />

      
      <glyph glyph-name="uni5b" unicode="&#x5b;" d="M222-201L54-201L247 720L415 720L403 662L310 662L141-141L234-141L222-201Z"  horiz-adv-x="320" vert-adv-y="1000"  />

      
      <glyph glyph-name="uni5c" unicode="&#x5c;" d="M214 0L121 720L177 720L270 0L214 0Z"  horiz-adv-x="240" vert-adv-y="1000"  />

      
      <glyph glyph-name="uni5d" unicode="&#x5d;" d="M181-201L13-201L25-141L119-141L288 662L194 662L206 720L374 720L181-201Z"  horiz-adv-x="319" vert-adv-y="1000"  />

      
      <glyph glyph-name="uni5e" unicode="&#x5e;" d="M367 720L414 720L481 319L429 319L374 644L185 319L134 319L367 720Z"  horiz-adv-x="480" vert-adv-y="1000"  />

      
      <glyph glyph-name="uni5f" unicode="&#x5f;" d="M456-114L-24-114L-12-58L468-58L456-114Z"  horiz-adv-x="480" vert-adv-y="1000"  />

      
      <glyph glyph-name="uni60" unicode="&#x60;" d="M188 734L293 734L350 599L286 599L188 734Z"  horiz-adv-x="320" vert-adv-y="1000"  />

      
      <glyph glyph-name="uni61" unicode="&#x61;" d="M324 213L340 291L281 265Q220 240 208 233Q151 202 137 136Q134 121 134 109Q134 54 191 54Q217 54 240.50 63.50Q264 73 282 92.50Q300 112 311 154Q315 170 324 213M226 298Q258 309 284.50 319.50Q311 330 327 337Q343 344 350 360Q357 376 362 401Q364 408 365 418.50Q366 429 366 436Q366 484 299 484Q257 484 234 461Q211 438 201 390L133 390Q150 471 196.50 509.50Q243 548 320 548Q385 548 415 520Q445 492 445 445Q445 438 443.50 427.50Q442 417 441 412L374 97Q372 85 372 80Q372 54 394 54L412 56L400 0Q388-6 368-6Q330-6 318 6Q302 22 302 72Q278 35 240 10.50Q202-14 164-14Q52-14 52 84Q52 106 58 133Q72 201 109 235.50Q146 270 226 298Z"  horiz-adv-x="426" vert-adv-y="1000"  />

      
      <glyph glyph-name="uni62" unicode="&#x62;" d="M196 253Q190 225 185.50 197.50Q181 170 181 145Q181 101 198.50 75.50Q216 50 261 50Q317 50 353 109Q385 162 409 276Q414 300 418.50 329Q423 358 423 383Q423 429 409 453Q391 484 351 484Q279 484 238 398Q219 357 196 253M142 0L72 0L223 720L299 720L249 479Q309 548 377 548Q444 548 475 505Q503 467 503 396Q503 369 499 338.50Q495 308 488 275Q460 144 414 74Q355-15 262-15Q223-15 199 0Q170 19 156 63L142 0Z"  horiz-adv-x="480" vert-adv-y="1000"  />

      
      <glyph glyph-name="uni63" unicode="&#x63;" d="M328 484Q267 484 227 414Q197 361 176 260Q169 228 164.50 199.50Q160 171 160 146Q160 101 176.50 75.50Q193 50 234 50Q289 50 319 93Q338 120 356 186L428 186Q407 98 363 48Q308-14 225-14Q146-14 111 29Q81 66 81 136Q81 173 87 211Q88 216 97 260Q123 386 173 457Q237 548 342 548Q404 548 436 513Q468 478 468 420Q468 395 462 366L391 366Q393 375 394.50 385.50Q396 396 396 412Q396 445 382 463Q365 484 328 484Z"  horiz-adv-x="426" vert-adv-y="1000"  />

      
      <glyph glyph-name="uni64" unicode="&#x64;" d="M387 209L401 275Q405 296 410.50 330.50Q416 365 416 385Q416 430 401 454Q382 484 341 484Q290 484 256 439Q216 387 192 270Q175 191 175 142Q175 95 192 72.50Q209 50 250 50Q302 50 343 107Q374 151 387 209M494 720L570 720L419 0L346 0L361 70Q325 23 292 4Q259-15 211-15Q150-15 123.50 23Q97 61 97 129Q97 160 102.50 198Q108 236 117 280Q142 402 196 472Q254 548 333 548Q373 548 396.50 532Q420 516 442 479L494 720Z"  horiz-adv-x="480" vert-adv-y="1000"  />

      
      <glyph glyph-name="uni65" unicode="&#x65;" d="M188 323L368 323Q372 345 376 369Q380 393 380 410Q380 445 365 464.50Q350 484 315 484Q272 484 242 452Q207 414 188 323M341 178L412 178Q399 95 349 43Q295-14 215-14Q148-14 116 19Q81 55 81 136Q81 191 97 268Q122 390 169 458Q230 548 327 548Q397 548 428 509Q455 475 455 409Q455 371 446 319Q443 303 435 261L175 261Q168 227 164 206Q156 162 156 131Q156 90 172 70Q188 50 227 50Q278 50 309 91Q335 125 341 178Z"  horiz-adv-x="426" vert-adv-y="1000"  />

      
      <glyph glyph-name="uni66" unicode="&#x66;" d="M90 0L188 469L110 469L124 534L201 534L211 579Q217 611 224 632Q235 664 251 682Q288 722 363 722L400 720L387 656L357 658Q326 658 312 644.50Q298 631 290 590L278 534L361 534L347 469L264 469L166 0L90 0Z"  horiz-adv-x="267" vert-adv-y="1000"  />

      
      <glyph glyph-name="uni67" unicode="&#x67;" d="M328 483Q266 483 226 409Q198 358 180.50 274Q163 190 163 142Q163 96 178 72.50Q193 49 228 49Q304 49 347 131Q372 179 392 278Q404 331 404 377Q404 426 386 454.50Q368 483 328 483M446 533L521 533L409 2Q389-93 331.50-137.50Q274-182 184-182Q122-182 86.50-154Q51-126 51-69Q51-57 52-51L126-51Q126-117 195-117Q259-117 290-89Q321-61 337 13L347 62L340 62Q306 20 277 2.50Q248-15 211-15Q83-15 83 133Q83 188 100 268Q126 386 170 454Q231 547 327 547Q366 547 393 529.50Q420 512 431 473L446 533Z"  horiz-adv-x="480" vert-adv-y="1000"  />

      
      <glyph glyph-name="uni68" unicode="&#x68;" d="M221 357L146 0L70 0L221 720L297 720L246 475Q282 512 317 530Q352 548 394 548Q446 548 474 524.50Q502 501 502 452Q502 440 502 429Q499 417 498 412L411 0L335 0L417 391Q419 398 420 408.50Q421 419 421 427Q421 455 406.50 469.50Q392 484 357 484Q314 484 275 454Q251 435 239.50 412.50Q228 390 221 357Z"  horiz-adv-x="480" vert-adv-y="1000"  />

      
      <glyph glyph-name="uni69" unicode="&#x69;" d="M146 0L70 0L182 534L258 534L146 0M277 624L201 624L221 720L297 720L277 624Z"  horiz-adv-x="214" vert-adv-y="1000"  />

      
      <glyph glyph-name="uni6a" unicode="&#x6a;" d="M-25-182L-11-112Q-7-113-3.50-113Q0-113 3-113Q38-113 54-72Q61-53 66-28L184 534L260 534L144-21Q124-115 88.50-148.50Q53-182-25-182M279 624L203 624L223 720L299 720L279 624Z"  horiz-adv-x="213" vert-adv-y="1000"  />

      
      <glyph glyph-name="uni6b" unicode="&#x6b;" d="M142 0L66 0L217 720L293 720L202 285L439 534L529 534L320 326L422 0L333 0L256 266L182 190L142 0Z"  horiz-adv-x="426" vert-adv-y="1000"  />

      
      <glyph glyph-name="uni6c" unicode="&#x6c;" d="M146 0L70 0L221 720L297 720L146 0Z"  horiz-adv-x="214" vert-adv-y="1000"  />

      
      <glyph glyph-name="uni6d" unicode="&#x6d;" d="M223 358L148 0L73 0L185 534L258 534L244 466Q272 502 308 524Q349 549 389 549Q431 549 459.50 526.50Q488 504 498 464Q537 508 571 527Q610 549 659 549Q716 549 749 511Q758 501 762 485.50Q766 470 766 454Q766 438 763.50 422Q761 406 757 386L676 0L599 0L681 391Q686 416 686 430Q686 457 670.50 470.50Q655 484 619 484Q577 484 542 455Q515 435 504 413.50Q493 392 486 358L411 0L336 0L418 391Q420 398 421 408.50Q422 419 422 427Q422 455 407.50 469.50Q393 484 358 484Q314 484 277 455Q251 435 239 411Q231 394 223 358Z"  horiz-adv-x="746" vert-adv-y="1000"  />

      
      <glyph glyph-name="uni6e" unicode="&#x6e;" d="M221 358L146 0L70 0L182 534L256 534L244 476Q281 512 316.50 530Q352 548 393 548Q445 548 473.50 524.50Q502 501 502 452Q502 431 498 412L411 0L335 0L417 391Q419 399 420 409.50Q421 420 421 428Q421 455 406 469.50Q391 484 357 484Q314 484 276 455Q251 435 239.50 413.50Q228 392 221 358Z"  horiz-adv-x="480" vert-adv-y="1000"  />

      
      <glyph glyph-name="uni6f" unicode="&#x6f;" d="M355 548Q429 548 465 506Q501 464 501 385Q501 336 487 268Q455 113 389 45Q332-14 237-14Q165-14 130 20Q90 58 90 145Q90 195 105 269Q134 406 195.50 477Q257 548 355 548M342 484Q281 484 245 433.50Q209 383 183 261Q169 197 169 153Q169 103 188 76.50Q207 50 251 50Q314 50 352 108Q385 158 407 261Q423 335 423 385Q423 438 404 461Q385 484 342 484Z"  horiz-adv-x="480" vert-adv-y="1000"  />

      
      <glyph glyph-name="uni70" unicode="&#x70;" d="M201 268Q193 228 188.50 198Q184 168 184 148Q184 102 198 79Q216 50 258 50Q315 50 352 109Q385 162 409 276Q416 306 419 329Q422 352 422 379Q422 426 407 452Q389 484 348 484Q271 484 229 370Q214 330 201 268M157 55L107-181L31-181L181 533L254 533L242 474Q268 511 301.50 529.50Q335 548 370 548Q440 548 472 505Q501 466 501 392Q501 340 487 275Q458 139 410 69Q352-15 258-15Q220-15 196.50 3Q173 21 157 55Z"  horiz-adv-x="480" vert-adv-y="1000"  />

      
      <glyph glyph-name="uni71" unicode="&#x71;" d="M395 269Q401 297 407 331Q413 365 413 390Q413 433 399 456Q382 484 342 484Q280 484 242 414Q213 361 188 244Q183 221 181 206Q176 175 176 147Q176 100 192.50 75Q209 50 248 50Q316 50 355 131Q376 174 395 269M454 534L527 534L378-177L302-177L351 58Q314 19 285 2Q256-15 221-15Q97-15 97 135Q97 183 111 253Q139 385 188 459Q247 548 332 548Q372 548 398.50 532Q425 516 441 479L454 534Z"  horiz-adv-x="480" vert-adv-y="1000"  />

      
      <glyph glyph-name="uni72" unicode="&#x72;" d="M222 324L154 0L78 0L190 534L263 534L245 447Q277 495 315 518Q353 541 402 541L422 540L407 465L375 468Q317 468 276.50 429.50Q236 391 222 324Z"  horiz-adv-x="320" vert-adv-y="1000"  />

      
      <glyph glyph-name="uni73" unicode="&#x73;" d="M76 156L148 156Q145 146 144 135Q143 124 143 113Q143 50 216 50Q265 50 294 70Q327 93 336 140Q338 147 338 159Q338 185 318 203Q311 209 236 244Q184 265 162 289Q136 317 136 360Q136 371 136 382Q139 393 140 398Q154 466 203 507Q252 548 321 548Q386 548 420 519.50Q454 491 454 435Q454 418 449 391L375 391Q377 398 378 408.50Q379 419 379 426Q379 484 310 484Q271 484 248 462Q225 440 216 402Q214 396 214 390Q214 384 214 381Q214 350 238 332Q250 323 292 305Q370 275 395 245.50Q420 216 420 177Q420 168 420 159Q417 149 416 145Q400 68 346 27Q292-14 206-14Q159-14 133-6Q98 5 85 33Q69 65 69 99Q69 114 71.50 130.50Q74 147 76 156Z"  horiz-adv-x="426" vert-adv-y="1000"  />

      
      <glyph glyph-name="uni74" unicode="&#x74;" d="M302 679L271 534L359 534L346 470L258 470L181 106Q179 99 177.50 93Q176 87 176 83Q176 64 207 64L258 64L245 0L162 0Q129 0 115 8Q96 19 96 50Q96 63 101 88L182 470L108 470L121 534L195 534L226 679L302 679Z"  horiz-adv-x="267" vert-adv-y="1000"  />

      
      <glyph glyph-name="uni75" unicode="&#x75;" d="M371 191L443 534L519 534L407 0L331 0L346 70Q317 30 278 7.50Q239-15 200-15Q150-15 122.50 8.50Q95 32 95 79Q95 95 100 122L186 534L262 534L175 119Q172 104 172 92Q172 70 184.50 59.50Q197 49 228 49Q287 49 329 97Q345 116 355.50 141Q366 166 371 191Z"  horiz-adv-x="480" vert-adv-y="1000"  />

      
      <glyph glyph-name="uni76" unicode="&#x76;" d="M171 0L124 534L203 534L225 64L447 534L526 534L253 0L171 0Z"  horiz-adv-x="426" vert-adv-y="1000"  />

      
      <glyph glyph-name="uni77" unicode="&#x77;" d="M471 534L463 64L657 534L729 534L497 0L407 0L418 455L237 0L148 0L135 534L209 534L207 64L393 534L471 534Z"  horiz-adv-x="641" vert-adv-y="1000"  />

      
      <glyph glyph-name="uni78" unicode="&#x78;" d="M230 275L130 534L209 534L288 330L446 534L525 534L317 275L418 0L340 0L262 220L87 0L9 0L230 275Z"  horiz-adv-x="426" vert-adv-y="1000"  />

      
      <glyph glyph-name="uni79" unicode="&#x79;" d="M172-9L116 534L195 534L232 108L441 534L520 534L241-3Q194-95 162-129Q112-182 40-182Q12-182-12-173L2-106Q25-118 55-118Q93-118 122-87Q144-64 172-9Z"  horiz-adv-x="426" vert-adv-y="1000"  />

      
      <glyph glyph-name="uni7a" unicode="&#x7a;" d="M351 0L23 0L36 60L370 471L132 471L145 533L461 533L448 471L115 63L364 63L351 0Z"  horiz-adv-x="373" vert-adv-y="1000"  />

      
      <glyph glyph-name="uni7b" unicode="&#x7b;" d="M208 182L173 16Q169-6 169-14Q169-41 185-59Q201-77 237-89Q161-90 129-71.50Q97-53 97-7Q97 15 105 50L138 208Q140 218 142 229.50Q144 241 144 248Q144 260 139.50 270.50Q135 281 124.50 290Q114 299 101 305Q88 311 73 315Q115 322 143 345Q163 361 171 379Q175 387 182 417L219 595Q229 640 244 663Q256 682 279 695Q302 708 326.50 714Q351 720 407 720Q355 705 331.50 680.50Q308 656 299 613L261 433Q250 382 228 358Q200 328 141 317Q182 307 198.50 287Q215 267 215 235Q215 226 213.50 214.50Q212 203 208 182Z"  horiz-adv-x="263" vert-adv-y="1000"  />

      
      <glyph glyph-name="uni7c" unicode="&#x7c;" d="M89 0L240 720L302 720L151 0L89 0Z"  horiz-adv-x="240" vert-adv-y="1000"  />

      
      <glyph glyph-name="uni7d" unicode="&#x7d;" d="M188 447L223 613Q225 627 226 633Q227 639 227 644Q227 671 211.50 688.50Q196 706 159 718Q236 719 267.50 700.50Q299 682 299 635Q299 610 292 579L258 421Q255 407 253.50 397.50Q252 388 252 380Q252 367 256 357.50Q260 348 272 338Q281 331 294.50 324.50Q308 318 323 314Q300 310 283.50 303Q267 296 252 284Q233 267 225 250Q221 241 215 212L177 34Q167-11 153.50-32Q140-53 117-66Q94-79 69.50-85Q45-91-11-91Q41-76 65-51Q89-26 98 17L135 196Q146 247 168 271Q196 301 256 312Q215 322 198 342Q181 362 181 394Q181 403 182.50 414.50Q184 426 188 447Z"  horiz-adv-x="264" vert-adv-y="1000"  />

      
      <glyph glyph-name="uni7e" unicode="&#x7e;" d="M222 319Q240 319 261.50 310Q283 301 307 285Q329 272 349 262Q369 252 381 252Q405 252 433 278Q453 296 476 331L499 286Q470 241 439 214Q400 180 365 180Q342 180 302 202Q285 212 266.50 223Q248 234 240 238Q223 246 207 246Q179 246 152 218Q137 202 109 160L85 206Q119 257 145 282Q184 319 222 319Z"  horiz-adv-x="480" vert-adv-y="1000"  />

      
      <glyph glyph-name="uni201A" unicode="&#x201A;" d="M112 0L65 0L85 96L172 96L148-17Q141-50 124-76.50Q107-103 77-121Q68-128 58-132Q56-133 36-140L45-97Q58-95 69-84Q87-68 97-47.50Q107-27 112 0Z"  horiz-adv-x="214" vert-adv-y="1000"  />

      
      <glyph glyph-name="uni0192" unicode="&#x0192;" d="M-26-172L-3-106Q6-117 35-117Q66-117 89-104Q107-95 130-47Q148-9 168 43L299 392L193 392L207 456L324 456Q374 583 401 625Q463 720 552 720Q590 720 617 710L586 636Q572 656 539 656Q500 656 472 617Q458 597 435 542L400 456L516 456L502 392L378 392L262 76Q233-3 201-62Q158-141 119-162.50Q80-184 31-184Q1-184-26-172Z"  horiz-adv-x="480" vert-adv-y="1000"  />

      
      <glyph glyph-name="uni201E" unicode="&#x201E;" d="M272 0L225 0L245 96L332 96L308-17Q302-49 284.50-76Q267-103 238-121Q229-127 220-131Q211-135 196-140L205-97Q220-95 229-84Q247-69 257-47.50Q267-26 272 0M109 0L62 0L82 96L169 96L145-17Q139-49 121.50-76Q104-103 75-121Q66-127 57-131Q48-135 33-140L42-97Q57-95 66-84Q84-68 94-47.50Q104-27 109 0Z"  horiz-adv-x="373" vert-adv-y="1000"  />

      
      <glyph glyph-name="uni2026" unicode="&#x2026;" d="M203 0L116 0L136 96L223 96L203 0M523 0L436 0L456 96L543 96L523 0M843 0L756 0L776 96L863 96L843 0Z"  horiz-adv-x="960" vert-adv-y="1000"  />

      
      <glyph glyph-name="uni2020" unicode="&#x2020;" d="M167-168L294 439L130 439L144 506L308 506L353 720L429 720L384 506L549 506L535 439L370 439L243-168L167-168Z"  horiz-adv-x="480" vert-adv-y="1000"  />

      
      <glyph glyph-name="uni2021" unicode="&#x2021;" d="M417 366L408 324L269 324Q271 316 273 308Q275 296 275 286Q275 272 274 265Q271 256 271 253Q260 198 216 145Q180 101 122 61Q149 74 176.50 81Q204 88 231 88Q252 88 271 84L341 65Q353 61 368 61Q389 61 412 69.50Q435 78 459 93L472 29Q434 5 410-2.50Q386-10 344-10Q327-10 296 0Q265 10 238 19Q211 25 184 25Q147 25 109 8Q98 3 65-15L38 44Q104 90 135 126Q178 175 191 236Q192 245 193.50 254Q195 263 195 274Q195 284 193.50 295Q192 306 188 324L97 324L106 366L178 366Q167 398 161.50 423.50Q156 449 156 478Q156 489 157 502.50Q158 516 161 528Q168 560 181.50 588Q195 616 219 642Q255 682 302 701Q349 720 407 720Q482 720 523.50 682.50Q565 645 565 576Q565 569 565 563Q563 553 562 544.50Q561 536 559.50 524.50Q558 513 554 501L474 501Q477 512 480 526.50Q483 541 483 554Q483 648 386 648Q328 648 291 612Q254 576 242 518Q238 501 238 478Q238 452 244 424Q250 396 260 366L417 366Z"  horiz-adv-x="480" vert-adv-y="1000"  />

      
      <glyph glyph-name="uni02C6" unicode="&#x02C6;" d="M349 599L305 689L223 599L146 599L269 734L358 734L426 599L349 599Z"  horiz-adv-x="319" vert-adv-y="1000"  />

      
      <glyph glyph-name="uni2030" unicode="&#x2030;" d="M706 720L225-16L174-16L654 720L706 720M636 347Q689 347 715 316Q738 288 738 238Q738 227 737.50 214.50Q737 202 731 175Q711 80 667 38Q627 0 563 0Q513 0 489 22Q462 47 462 102Q462 133 471 178Q487 254 523 296Q567 347 636 347M575 53Q614 53 638 91Q654 116 663 162Q665 174 669 197Q673 220 673 233Q673 261 664 275Q652 293 625 293Q583 293 559 246Q545 219 533 162Q531 150 529 136Q527 122 527 111Q527 83 537 68Q547 53 575 53M326 706Q379 706 404 676.50Q429 647 429 597Q429 569 421 534Q401 439 357 397Q317 359 253 359Q204 359 178 382Q152 405 152 460Q152 486 155 505Q160 526 162 537Q178 612 214 655Q257 706 326 706M266 412Q305 412 328 450Q344 476 353 521Q355 533 359 556Q363 579 363 592Q363 620 354 634Q342 652 315 652Q273 652 249 605Q235 578 223 521Q221 509 219 496.50Q217 484 217 472Q217 445 228 428.50Q239 412 266 412M975 347Q1028 347 1054 316Q1077 288 1077 238Q1077 227 1076.50 214.50Q1076 202 1070 175Q1050 80 1006 38Q966 0 902 0Q852 0 828 22Q801 47 801 102Q801 133 810 178Q826 254 862 296Q906 347 975 347M914 53Q952 53 976 91Q993 118 1002 162Q1004 174 1008 197Q1012 220 1012 233Q1012 261 1003 275Q991 293 964 293Q922 293 898 246Q884 219 872 162Q870 150 868 136Q866 122 866 111Q866 83 876 68Q886 53 914 53Z"  horiz-adv-x="1066" vert-adv-y="1000"  />

      
      <glyph glyph-name="uni2039" unicode="&#x2039;" d="M130 329L306 476L289 396L173 298L248 200L231 120L118 270L130 329Z"  horiz-adv-x="266" vert-adv-y="1000"  />

      
      <glyph glyph-name="uni2018" unicode="&#x2018;" d="M307 736L298 693Q270 687 251 654Q237 629 230 595L277 595L257 500L167 500L187 595Q198 647 223 680Q254 721 307 736Z"  horiz-adv-x="214" vert-adv-y="1000"  />

      
      <glyph glyph-name="uni2019" unicode="&#x2019;" d="M243 624L196 624L216 720L303 720L279 607Q272 574 255 547.50Q238 521 208 503Q199 496 189 492Q187 491 167 484L176 527Q189 529 200 540Q218 556 228 576.50Q238 597 243 624Z"  horiz-adv-x="214" vert-adv-y="1000"  />

      
      <glyph glyph-name="uni201C" unicode="&#x201C;" d="M305 736L296 693Q267 687 248 654Q234 629 227 595L275 595L255 500L164 500L184 595Q195 647 220 680Q251 721 305 736M469 736L460 693Q431 687 412 654Q399 631 392 595L439 595L419 500L328 500L348 595Q359 647 384 680Q415 721 469 736Z"  horiz-adv-x="373" vert-adv-y="1000"  />

      
      <glyph glyph-name="uni201D" unicode="&#x201D;" d="M240 624L193 624L213 720L300 720L276 607Q270 575 252.50 548Q235 521 206 503Q197 497 188 493Q179 489 164 484L173 527Q188 529 197 540Q215 556 225 576.50Q235 597 240 624M403 624L356 624L376 720L463 720L439 607Q433 575 415.50 548Q398 521 369 503Q360 497 351 493Q342 489 327 484L336 527Q351 529 360 540Q378 555 388 576.50Q398 598 403 624Z"  horiz-adv-x="373" vert-adv-y="1000"  />

      
      <glyph glyph-name="uni2022" unicode="&#x2022;" d="M381 360Q368 300 316.50 256.50Q265 213 204 213Q151 213 119 246Q87 279 87 330Q87 345 90 360Q103 420 154.50 464Q206 508 266 508Q319 508 351.50 474.50Q384 441 384 390Q384 375 381 360Z"  horiz-adv-x="319" vert-adv-y="1000"  />

      
      <glyph glyph-name="uni2013" unicode="&#x2013;" d="M55 264L70 332L550 332L535 264L55 264Z"  horiz-adv-x="480" vert-adv-y="1000"  />

      
      <glyph glyph-name="uni2014" unicode="&#x2014;" d="M55 264L70 332L1030 332L1015 264L55 264Z"  horiz-adv-x="960" vert-adv-y="1000"  />

      
      <glyph glyph-name="uni02DC" unicode="&#x02DC;" d="M428 719L474 719Q460 674 431 646Q398 614 354 614Q340 614 319 621Q298 628 290 631Q274 637 258 644Q238 651 224 651Q208 651 192 637.50Q176 624 170 607L124 607Q138 651 168 680Q202 712 245 712Q258 712 279 705Q300 698 309 695Q339 682 340 682Q360 675 375 675Q390 675 406.50 689Q423 703 428 719Z"  horiz-adv-x="319" vert-adv-y="1000"  />

      
      <glyph glyph-name="uni2122" unicode="&#x2122;" d="M842 720L757 315L704 315L777 662L589 315L558 315L520 662L446 315L393 315L478 720L563 720L598 434L757 720L842 720M420 720L408 662L304 662L231 315L172 315L245 662L139 662L151 720L420 720Z"  horiz-adv-x="720" vert-adv-y="1000"  />

      
      <glyph glyph-name="uni203A" unicode="&#x203A;" d="M261 267L85 120L102 200L219 298L143 396L160 476L273 326L261 267Z"  horiz-adv-x="266" vert-adv-y="1000"  />

      
      <glyph glyph-name="unia2" unicode="&#xa2;" d="M171-12L116 534L195 534L218 71L441 534L520 534L254 24Q238-9 218-45Q191-94 176-112Q148-149 116-165.50Q84-182 40-182Q14-182-13-174L2-106Q25-118 55-118Q100-118 127-85Q155-38 171-12M254 720L330 720L310 624L234 624L254 720M454 624L378 624L398 720L474 720L454 624Z"  horiz-adv-x="426" vert-adv-y="1000"  />

      
      <glyph glyph-name="unia4" unicode="&#xa4;" d="M49 106L95 146Q77 190 77 232Q77 258 83 288Q100 368 155 433L127 474L182 525L211 484Q246 508 281 519.50Q316 531 355 531Q389 531 417 519.50Q445 508 471 484L517 525L552 474L507 433Q515 410 519 390.50Q523 371 523 347Q523 320 515 282.50Q507 245 491 213Q475 181 447 146L474 106L419 55L389 96Q320 48 245 48Q210 48 183 59.50Q156 71 129 96L84 55L49 106M340 462Q272 462 220 413Q168 364 152 288Q148 269 148 247Q148 190 178.50 153.50Q209 117 262 117Q327 117 380 166.50Q433 216 448 291Q452 310 452 333Q452 389 422 425.50Q392 462 340 462Z"  horiz-adv-x="480" vert-adv-y="1000"  />

      
      <glyph glyph-name="unia5" unicode="&#xa5;" d="M250 252L256 279L135 720L231 720L315 359L558 720L648 720L335 279L329 252L461 252L452 209L320 209L305 136L437 136L428 94L296 94L276 0L197 0L217 94L84 94L93 136L226 136L241 209L108 209L117 252L250 252Z"  horiz-adv-x="480" vert-adv-y="1000"  />

      
      <glyph glyph-name="unia6" unicode="&#xa6;" d="M89 0L149 288L211 288L151 0L89 0M240 720L302 720L242 432L180 432L240 720Z"  horiz-adv-x="240" vert-adv-y="1000"  />

      
      <glyph glyph-name="unia7" unicode="&#xa7;" d="M368 439Q413 403 459 367Q502 325 502 276Q502 263 499 246Q488 195 450 154Q421 122 363 86Q386 66 398 43.50Q410 21 410-7Q410-16 406-38Q390-116 332-158Q274-200 187-200Q121-200 85.50-165.50Q50-131 50-72Q50-47 56-20L134-20Q132-28 131-38.50Q130-49 130-57Q130-95 149.50-115.50Q169-136 212-136Q255-136 286-114.50Q317-93 326-50Q329-38 329-28Q329 1 300 31Q271 61 193 119Q136 161 113.50 191Q91 221 91 256Q91 264 91 269.50Q91 275 95 290Q106 342 144 381Q178 415 234 440Q213 455 201.50 479Q190 503 190 533Q190 547 193 564Q208 635 265 677.50Q322 720 396 720Q461 720 494.50 688.50Q528 657 528 599Q528 588 527 576Q526 564 523 551L444 551Q446 558 447 568Q448 578 448 585Q448 618 429.50 636Q411 654 372 654Q336 654 307.50 631.50Q279 609 271 573Q267 553 267 547Q267 531 287.50 508.50Q308 486 368 439M344 350Q308 378 272 406Q226 377 212 365Q181 338 175.50 312.50Q170 287 170 280Q170 264 180.50 249Q191 234 223 206Q230 200 238 195Q286 157 326 124Q378 158 396 181Q414 204 420 232Q422 244 422 248Q422 269 405.50 291Q389 313 344 350Z"  horiz-adv-x="480" vert-adv-y="1000"  />

      
      <glyph glyph-name="unia8" unicode="&#xa8;" d="M433 0L71 0L222 720L583 720L568 648L287 648L237 410L500 410L485 338L222 338L166 72L448 72L433 0M321 906L397 906L377 810L301 810L321 906M521 810L445 810L465 906L541 906L521 810Z"  horiz-adv-x="480" vert-adv-y="1000"  />

      
      <glyph glyph-name="unia9" unicode="&#xa9;" d="M381-17Q247-17 161.50 67.50Q76 152 76 282Q76 309 77 321.50Q78 334 84 360Q116 514 249 624Q382 734 539 734Q673 734 758.50 649.50Q844 565 844 436Q844 402 836 360Q803 203 670 93Q537-17 381-17M393 38Q526 38 638.50 132Q751 226 780 360Q787 392 787 427Q787 537 715 608Q643 679 528 679Q394 679 281 586Q168 493 140 360Q133 328 133 292Q133 181 205.50 109.50Q278 38 393 38M581 291L637 291Q616 226 557.50 185Q499 144 431 144Q351 144 306.50 189.50Q262 235 262 310Q262 336 268 363Q288 457 357 518Q426 579 520 579Q589 579 628.50 541.50Q668 504 668 436L612 436Q612 480 584.50 506.50Q557 533 511 533Q440 533 390.50 485.50Q341 438 325 364Q320 339 320 319Q320 263 351.50 226.50Q383 190 441 190Q487 190 527 217.50Q567 245 581 291Z"  horiz-adv-x="768" vert-adv-y="1000"  />

      
      <glyph glyph-name="uniaa" unicode="&#xaa;" d="M589 504L509 504Q516 535 516 564Q516 611 494 635Q469 662 413 662Q339 662 285 578Q241 509 220 410L410 410L395 338L205 338Q198 302 193.50 267.50Q189 233 189 200Q189 135 209 99Q233 55 286 55Q358 55 400 113Q433 159 458 260L538 260Q523 191 495 131.50Q467 72 434 42Q371-17 276-17Q182-17 140 44Q105 95 105 187Q105 228 111 273.50Q117 319 128 369Q148 462 179 533Q220 626 275 675Q341 734 430 734Q510 734 553 692Q596 650 596 571Q596 538 589 504Z"  horiz-adv-x="534" vert-adv-y="1000"  />

      
      <glyph glyph-name="uniab" unicode="&#xab;" d="M151 329L327 476L310 396L194 298L269 200L252 120L139 270L151 329M322 329L498 476L481 396L365 298L440 200L423 120L310 270L322 329Z"  horiz-adv-x="480" vert-adv-y="1000"  />

      
      <glyph glyph-name="uniac" unicode="&#xac;" d="M396 112L435 301L105 301L119 368L516 368L463 112L396 112Z"  horiz-adv-x="480" vert-adv-y="1000"  />

      
      <glyph glyph-name="uniad" unicode="&#xad;" d="M331 264L98 264L115 343L348 343L331 264Z"  horiz-adv-x="319" vert-adv-y="1000"  />

      
      <glyph glyph-name="uniae" unicode="&#xae;" d="M539 734Q673 734 758.50 649.50Q844 565 844 436Q844 402 836 360Q803 203 670 93Q537-17 381-17Q247-17 161.50 67.50Q76 152 76 282Q76 309 77 321.50Q78 334 84 360Q116 516 249 625Q382 734 539 734M528 679Q394 679 281 586Q168 493 139 359Q132 327 132 292Q132 181 204.50 109.50Q277 38 393 38Q527 38 639 131Q751 224 779 359Q786 391 786 427Q786 536 714.50 607.50Q643 679 528 679M518 343L603 149L541 149L463 343L370 343L329 149L275 149L364 571L549 571Q588 571 607.50 567.50Q627 564 646 548Q662 539 670 521.50Q678 504 678 482Q678 470 675 458Q663 398 618 369Q578 343 518 343M378 383L455 383L482 383Q541 383 567 393Q612 410 622 460Q624 474 624 478Q624 510 598 520.50Q572 531 529 531L410 531L378 383Z"  horiz-adv-x="768" vert-adv-y="1000"  />

      
      <glyph glyph-name="uniaf" unicode="&#xaf;" d="M173 0L94 0L245 720L324 720L173 0M214 906L289 906L269 810L194 810L214 906M413 810L338 810L358 906L433 906L413 810Z"  horiz-adv-x="266" vert-adv-y="1000"  />

      
      <glyph glyph-name="unib0" unicode="&#xb0;" d="M458 576Q445 515 394.50 473.50Q344 432 284 432Q231 432 199 464Q167 496 167 546Q167 561 170 576Q182 636 233 678Q284 720 344 720Q396 720 428.50 687.50Q461 655 461 605Q461 591 458 576M398 576Q400 588 400 593Q400 622 381 641Q362 660 331 660Q296 660 266.50 635.50Q237 611 229 576Q227 564 227 558Q227 529 246.50 510.50Q266 492 296 492Q331 492 361 516.50Q391 541 398 576Z"  horiz-adv-x="384" vert-adv-y="1000"  />

      
      <glyph glyph-name="unib1" unicode="&#xb1;" d="M276 335L308 485L375 485L343 335L509 335L495 268L329 268L297 115L230 115L262 268L98 268L112 335L276 335M42 0L56 67L453 67L439 0L42 0Z"  horiz-adv-x="480" vert-adv-y="1000"  />

      
      <glyph glyph-name="unib2" unicode="&#xb2;" d="M174 0L94 0L245 720L325 720L174 0Z"  horiz-adv-x="266" vert-adv-y="1000"  />

      
      <glyph glyph-name="unib3" unicode="&#xb3;" d="M146 0L70 0L182 534L258 534L146 0M277 624L201 624L221 720L297 720L277 624Z"  horiz-adv-x="214" vert-adv-y="1000"  />

      
      <glyph glyph-name="unib4" unicode="&#xb4;" d="M222 599L335 734L440 734L286 599L222 599Z"  horiz-adv-x="320" vert-adv-y="1000"  />

      
      <glyph glyph-name="unib5" unicode="&#xb5;" d="M369 191L441 534L517 534L405 0L329 0L344 70Q315 31 275.50 8.50Q236-14 198-14Q184-14 172-8Q160-2 149 3L110-181L34-181L98 122L184 534L260 534L173 119Q170 104 170 93Q170 50 227 50Q285 50 327 97Q342 115 353 141.50Q364 168 369 191Z"  horiz-adv-x="480" vert-adv-y="1000"  />

      
      <glyph glyph-name="unib6" unicode="&#xb6;" d="M127-112L225 351Q174 351 140.50 391.50Q107 432 107 491Q107 510 113.50 541.50Q120 573 141 610.50Q162 648 193 675.50Q224 703 252 710.50Q280 718 326 718L526 719L351-112L275-112L437 655L365 655L203-112L127-112Z"  horiz-adv-x="422" vert-adv-y="1000"  />

      
      <glyph glyph-name="unib7" unicode="&#xb7;" d="M205 196L118 196L138 292L225 292L205 196Z"  horiz-adv-x="240" vert-adv-y="1000"  />

      
      <glyph glyph-name="uni2219" unicode="&#x2219;" d="M205 196L118 196L138 292L225 292L205 196Z"  horiz-adv-x="240" vert-adv-y="1000"  />

      
      <glyph glyph-name="unib8" unicode="&#xb8;" d="M188 322L368 322Q373 346 376.50 369Q380 392 380 409Q380 444 365 464Q350 484 315 484Q259 484 226 430Q203 392 188 322M341 177L412 177Q398 94 349 42Q295-15 215-15Q148-15 116 18Q81 54 81 136Q81 191 97 268Q122 390 169 458Q230 548 327 548Q397 548 428 509Q455 475 455 410Q455 370 446 319Q444 305 434 260L175 260Q168 226 164 205Q156 161 156 130Q156 90 172 70Q188 50 227 50Q278 50 309 91Q335 125 341 177M254 720L330 720L310 624L234 624L254 720M454 624L378 624L398 720L474 720L454 624Z"  horiz-adv-x="426" vert-adv-y="1000"  />

      
      <glyph glyph-name="unib9" unicode="&#xb9;" d="M804 480Q853 480 876.50 452.50Q900 425 900 376Q900 360 897.50 343Q895 326 893 316Q876 231 842 190Q803 142 733 142Q681 142 658 167Q635 192 635 238Q635 268 645 316Q661 391 696 432Q738 480 804 480M694 307Q687 275 687 246Q687 214 699.50 197Q712 180 741 180Q782 180 806 215Q827 245 839 307Q848 349 848 377Q848 442 796 442Q723 442 694 307M835 38L587 38L595 77L843 77L835 38M460 132L583 720L663 720L512 0L381 0L300 576Q296 615 296 668L296 684L274 575L153 0L73 0L224 720L353 720L435 131L443 52L460 132Z"  horiz-adv-x="847" vert-adv-y="1000"  />

      
      <glyph glyph-name="uniba" unicode="&#xba;" d="M328 484Q275 484 236 430Q202 382 188 313L322 313L308 249L173 249Q165 210 164 200Q160 172 160 148Q160 103 176.50 76.50Q193 50 234 50Q289 50 319 93Q338 120 356 186L428 186Q407 98 363 48Q308-14 225-14Q146-14 111 29Q81 66 81 136Q81 173 87 211Q88 216 97 260Q131 424 198 491Q255 548 342 548Q404 548 436 513Q468 478 468 420Q468 395 462 366L391 366Q393 375 394.50 385.50Q396 396 396 412Q396 445 382 463Q365 484 328 484Z"  horiz-adv-x="426" vert-adv-y="1000"  />

      
      <glyph glyph-name="unibb" unicode="&#xbb;" d="M454 267L278 120L295 200L412 298L336 396L353 476L466 326L454 267M283 267L107 120L124 200L241 298L165 396L182 476L295 326L283 267Z"  horiz-adv-x="480" vert-adv-y="1000"  />

      
      <glyph glyph-name="unibc" unicode="&#xbc;" d="M86 211L100 278L497 278L483 211L86 211M360 390L284 390L304 486L380 486L360 390M279 3L203 3L223 99L299 99L279 3Z"  horiz-adv-x="480" vert-adv-y="1000"  />

      
      <glyph glyph-name="unibd" unicode="&#xbd;" d="M244 244L125 395L183 442L301 291L485 443L522 395L339 244L459 93L401 46L281 197L98 46L62 93L244 244Z"  horiz-adv-x="480" vert-adv-y="1000"  />

      
      <glyph glyph-name="unibe" unicode="&#xbe;" d="M203 0L116 0L136 96L223 96L203 0M523 0L436 0L456 96L543 96L523 0M843 0L756 0L776 96L863 96L843 0Z"  horiz-adv-x="960" vert-adv-y="1000"  />

      
      <glyph glyph-name="unibf" unicode="&#xbf;" d="M145 0L70 0L182 534L257 534L145 0M149 720L225 720L205 624L129 624L149 720M349 624L273 624L293 720L369 720L349 624Z"  horiz-adv-x="214" vert-adv-y="1000"  />

      
      <glyph glyph-name="unic0" unicode="&#xc0;" d="M11 0L367 720L473 720L524 0L436 0L422 207L195 207L99 0L11 0M420 279L407 662L230 279L420 279Z"  horiz-adv-x="534" vert-adv-y="1000"  />

      
      <glyph glyph-name="uni0410" unicode="&#x0410;" d="M11 0L367 720L473 720L524 0L436 0L422 207L195 207L99 0L11 0M420 279L407 662L230 279L420 279Z"  horiz-adv-x="534" vert-adv-y="1000"  />

      
      <glyph glyph-name="unic1" unicode="&#xc1;" d="M172 72L229 342L297 342Q376 342 409 325Q449 304 449 249Q449 239 448 227Q447 215 444 203Q428 129 382 99Q341 72 263 72L172 72M586 720L228 720L77 0L268 0Q371 0 435 47Q505 98 527 203Q534 237 534 268Q534 348 478 384Q431 414 339 414L244 414L293 649L571 649L586 720Z"  horiz-adv-x="519" vert-adv-y="1000"  />

      
      <glyph glyph-name="uni0411" unicode="&#x0411;" d="M172 72L229 342L297 342Q376 342 409 325Q449 304 449 249Q449 239 448 227Q447 215 444 203Q428 129 382 99Q341 72 263 72L172 72M586 720L228 720L77 0L268 0Q371 0 435 47Q505 98 527 203Q534 237 534 268Q534 348 478 384Q431 414 339 414L244 414L293 649L571 649L586 720Z"  horiz-adv-x="519" vert-adv-y="1000"  />

      
      <glyph glyph-name="unic2" unicode="&#xc2;" d="M292 648L243 412L343 412Q405 412 441.50 440Q478 468 492 535Q496 554 496 572Q496 611 471.50 629.50Q447 648 399 648L292 648M227 340L171 72L290 72Q354 72 391.50 104.50Q429 137 443 207Q446 218 447 229Q448 240 448 252Q448 297 419.50 318.50Q391 340 339 340L227 340M275 0L76 0L227 720L416 720Q499 720 540 686Q581 652 581 589Q581 566 575 540Q563 478 527.50 437.50Q492 397 438 383Q480 376 505.50 342.50Q531 309 531 255Q531 244 530 231Q529 218 526 206Q505 105 440.50 52.50Q376 0 275 0Z"  horiz-adv-x="533" vert-adv-y="1000"  />

      
      <glyph glyph-name="uni0412" unicode="&#x0412;" d="M292 648L243 412L343 412Q405 412 441.50 440Q478 468 492 535Q496 554 496 572Q496 611 471.50 629.50Q447 648 399 648L292 648M227 340L171 72L290 72Q354 72 391.50 104.50Q429 137 443 207Q446 218 447 229Q448 240 448 252Q448 297 419.50 318.50Q391 340 339 340L227 340M275 0L76 0L227 720L416 720Q499 720 540 686Q581 652 581 589Q581 566 575 540Q563 478 527.50 437.50Q492 397 438 383Q480 376 505.50 342.50Q531 309 531 255Q531 244 530 231Q529 218 526 206Q505 105 440.50 52.50Q376 0 275 0Z"  horiz-adv-x="533" vert-adv-y="1000"  />

      
      <glyph glyph-name="unic3" unicode="&#xc3;" d="M604 720L230 720L79 0L159 0L295 648L589 648L604 720Z"  horiz-adv-x="470" vert-adv-y="1000"  />

      
      <glyph glyph-name="uni0413" unicode="&#x0413;" d="M604 720L230 720L79 0L159 0L295 648L589 648L604 720Z"  horiz-adv-x="470" vert-adv-y="1000"  />

      
      <glyph glyph-name="unic4" unicode="&#xc4;" d="M84 72Q148 153 188 267Q220 357 258 536L296 720L678 720L542 72L600 72L550-168L473-168L508 0L97 0L62-168L-15-168L35 72L84 72M583 648L360 648L321 460Q268 211 170 72L462 72L583 648Z"  horiz-adv-x="603" vert-adv-y="1000"  />

      
      <glyph glyph-name="uni0414" unicode="&#x0414;" d="M84 72Q148 153 188 267Q220 357 258 536L296 720L678 720L542 72L600 72L550-168L473-168L508 0L97 0L62-168L-15-168L35 72L84 72M583 648L360 648L321 460Q268 211 170 72L462 72L583 648Z"  horiz-adv-x="603" vert-adv-y="1000"  />

      
      <glyph glyph-name="unic5" unicode="&#xc5;" d="M433 0L72 0L223 720L583 720L568 648L287 648L237 410L500 410L485 338L222 338L166 72L448 72L433 0Z"  horiz-adv-x="480" vert-adv-y="1000"  />

      
      <glyph glyph-name="uni0415" unicode="&#x0415;" d="M433 0L72 0L223 720L583 720L568 648L287 648L237 410L500 410L485 338L222 338L166 72L448 72L433 0Z"  horiz-adv-x="480" vert-adv-y="1000"  />

      
      <glyph glyph-name="unic6" unicode="&#xc6;" d="M461 0L381 0L434 251L371 356L104 0L12 0L336 419L170 720L270 720L455 350L532 720L612 720L535 350L873 720L973 720L681 419L829 0L737 0L620 356L514 253L461 0Z"  horiz-adv-x="839" vert-adv-y="1000"  />

      
      <glyph glyph-name="uni0416" unicode="&#x0416;" d="M461 0L381 0L434 251L371 356L104 0L12 0L336 419L170 720L270 720L455 350L532 720L612 720L535 350L873 720L973 720L681 419L829 0L737 0L620 356L514 253L461 0Z"  horiz-adv-x="839" vert-adv-y="1000"  />

      
      <glyph glyph-name="unic7" unicode="&#xc7;" d="M285 346L300 418L353 418Q470 418 496 538Q498 546 499 556.50Q500 567 500 575Q500 661 404 661Q353 661 311 626Q269 591 250 530L170 530Q203 625 269.50 679Q336 733 427 733Q501 733 544 694Q587 655 587 592Q587 581 587 570Q584 559 583 555Q568 487 526 442Q490 404 436 384Q484 374 512.50 338Q541 302 541 246Q541 223 535 194Q518 115 464 59Q390-18 269-18Q174-18 131 28Q92 70 92 155Q92 167 92 177Q92 187 97 223L177 223Q171 190 171 162Q171 108 197 81Q223 54 286 54Q365 54 411 110Q442 147 454 204Q455 213 456.50 221Q458 229 458 239Q458 284 435 313Q409 346 361 346L285 346Z"  horiz-adv-x="536" vert-adv-y="1000"  />

      
      <glyph glyph-name="uni0417" unicode="&#x0417;" d="M285 346L300 418L353 418Q470 418 496 538Q498 546 499 556.50Q500 567 500 575Q500 661 404 661Q353 661 311 626Q269 591 250 530L170 530Q203 625 269.50 679Q336 733 427 733Q501 733 544 694Q587 655 587 592Q587 581 587 570Q584 559 583 555Q568 487 526 442Q490 404 436 384Q484 374 512.50 338Q541 302 541 246Q541 223 535 194Q518 115 464 59Q390-18 269-18Q174-18 131 28Q92 70 92 155Q92 167 92 177Q92 187 97 223L177 223Q171 190 171 162Q171 108 197 81Q223 54 286 54Q365 54 411 110Q442 147 454 204Q455 213 456.50 221Q458 229 458 239Q458 284 435 313Q409 346 361 346L285 346Z"  horiz-adv-x="536" vert-adv-y="1000"  />

      
      <glyph glyph-name="unic8" unicode="&#xc8;" d="M181 132L304 720L224 720L73 0L189 0L533 567Q547 591 561 621Q570 641 586 684Q574 629 563 574L442 0L522 0L673 720L557 720L214 151Q203 133 192 111Q178 81 164 52L181 132Z"  horiz-adv-x="595" vert-adv-y="1000"  />

      
      <glyph glyph-name="uni0418" unicode="&#x0418;" d="M181 132L304 720L224 720L73 0L189 0L533 567Q547 591 561 621Q570 641 586 684Q574 629 563 574L442 0L522 0L673 720L557 720L214 151Q203 133 192 111Q178 81 164 52L181 132Z"  horiz-adv-x="595" vert-adv-y="1000"  />

      
      <glyph glyph-name="unic9" unicode="&#xc9;" d="M181 133L304 720L224 720L73 0L189 0L533 568Q547 590 561 622Q570 643 586 685L563 575L442 0L522 0L673 720L557 720L214 151Q201 130 186.50 99.50Q172 69 164 52L181 133M346 887L387 887Q387 850 407 833.50Q427 817 465 817Q504 817 528.50 832.50Q553 848 569 887L611 887Q596 824 553.50 794Q511 764 449 764Q400 764 371.50 787Q343 810 343 858Q343 870 346 887Z"  horiz-adv-x="601" vert-adv-y="1000"  />

      
      <glyph glyph-name="uni0419" unicode="&#x0419;" d="M181 133L304 720L224 720L73 0L189 0L533 568Q547 590 561 622Q570 643 586 685L563 575L442 0L522 0L673 720L557 720L214 151Q201 130 186.50 99.50Q172 69 164 52L181 133M346 887L387 887Q387 850 407 833.50Q427 817 465 817Q504 817 528.50 832.50Q553 848 569 887L611 887Q596 824 553.50 794Q511 764 449 764Q400 764 371.50 787Q343 810 343 858Q343 870 346 887Z"  horiz-adv-x="601" vert-adv-y="1000"  />

      
      <glyph glyph-name="unica" unicode="&#xca;" d="M156 0L76 0L227 720L307 720L230 350L569 720L669 720L376 419L525 0L432 0L315 356L209 251L156 0Z"  horiz-adv-x="534" vert-adv-y="1000"  />

      
      <glyph glyph-name="uni041A" unicode="&#x041A;" d="M156 0L76 0L227 720L307 720L230 350L569 720L669 720L376 419L525 0L432 0L315 356L209 251L156 0Z"  horiz-adv-x="534" vert-adv-y="1000"  />

      
      <glyph glyph-name="unicb" unicode="&#xcb;" d="M275 721L676 721L525 0L446 0L582 649L340 649L280 363Q256 251 239 195Q210 101 172 52Q125-9 59-9Q36-9 12-3L27 68Q40 63 57 63Q138 63 209 406L275 721Z"  horiz-adv-x="603" vert-adv-y="1000"  />

      
      <glyph glyph-name="uni041B" unicode="&#x041B;" d="M275 721L676 721L525 0L446 0L582 649L340 649L280 363Q256 251 239 195Q210 101 172 52Q125-9 59-9Q36-9 12-3L27 68Q40 63 57 63Q138 63 209 406L275 721Z"  horiz-adv-x="603" vert-adv-y="1000"  />

      
      <glyph glyph-name="unicc" unicode="&#xcc;" d="M423 159L684 720L825 720L674 0L594 0L719 593Q728 638 738 684L693 588L419 0L324 0L298 596L296 684L276 591L152 0L73 0L224 720L365 720L388 158L388 147Q388 108 381 52Q395 88 401 104.50Q407 121 423 159Z"  horiz-adv-x="746" vert-adv-y="1000"  />

      
      <glyph glyph-name="uni041C" unicode="&#x041C;" d="M423 159L684 720L825 720L674 0L594 0L719 593Q728 638 738 684L693 588L419 0L324 0L298 596L296 684L276 591L152 0L73 0L224 720L365 720L388 158L388 147Q388 108 381 52Q395 88 401 104.50Q407 121 423 159Z"  horiz-adv-x="746" vert-adv-y="1000"  />

      
      <glyph glyph-name="unicd" unicode="&#xcd;" d="M156 0L76 0L227 720L307 720L244 420L519 420L582 720L662 720L511 0L431 0L504 348L229 348L156 0Z"  horiz-adv-x="587" vert-adv-y="1000"  />

      
      <glyph glyph-name="uni041D" unicode="&#x041D;" d="M156 0L76 0L227 720L307 720L244 420L519 420L582 720L662 720L511 0L431 0L504 348L229 348L156 0Z"  horiz-adv-x="587" vert-adv-y="1000"  />

      
      <glyph glyph-name="unice" unicode="&#xce;" d="M290-17Q191-17 147 37Q109 84 109 176Q109 214 115 257.50Q121 301 133 361Q154 462 183 531Q222 624 280 674Q350 734 448 734Q548 734 592 673Q629 622 629 527Q629 480 620 424Q617 404 608 361Q582 242 553 174Q515 84 456 37Q388-17 290-17M527 373Q546 457 546 518Q546 587 521 622Q493 662 431 662Q345 662 290 578Q245 509 217 373Q206 315 199 267.50Q192 220 192 185Q192 118 218 86.50Q244 55 306 55Q399 55 449 136Q491 204 527 373Z"  horiz-adv-x="587" vert-adv-y="1000"  />

      
      <glyph glyph-name="uni041E" unicode="&#x041E;" d="M290-17Q191-17 147 37Q109 84 109 176Q109 214 115 257.50Q121 301 133 361Q154 462 183 531Q222 624 280 674Q350 734 448 734Q548 734 592 673Q629 622 629 527Q629 480 620 424Q617 404 608 361Q582 242 553 174Q515 84 456 37Q388-17 290-17M527 373Q546 457 546 518Q546 587 521 622Q493 662 431 662Q345 662 290 578Q245 509 217 373Q206 315 199 267.50Q192 220 192 185Q192 118 218 86.50Q244 55 306 55Q399 55 449 136Q491 204 527 373Z"  horiz-adv-x="587" vert-adv-y="1000"  />

      
      <glyph glyph-name="unicf" unicode="&#xcf;" d="M156 0L76 0L227 720L662 720L511 0L431 0L567 648L292 648L156 0Z"  horiz-adv-x="587" vert-adv-y="1000"  />

      
      <glyph glyph-name="uni041F" unicode="&#x041F;" d="M156 0L76 0L227 720L662 720L511 0L431 0L567 648L292 648L156 0Z"  horiz-adv-x="587" vert-adv-y="1000"  />

      
      <glyph glyph-name="unid0" unicode="&#xd0;" d="M298 648L241 377L319 377Q412 377 453 400Q507 430 525 517Q530 542 530 559Q530 608 497 628Q464 648 399 648L298 648M162 0L82 0L233 720L433 720Q519 720 566.50 685Q614 650 614 576Q614 565 613 553Q612 541 607 517Q583 401 505 349Q439 305 331 305L226 305L162 0Z"  horiz-adv-x="534" vert-adv-y="1000"  />

      
      <glyph glyph-name="uni0420" unicode="&#x0420;" d="M298 648L241 377L319 377Q412 377 453 400Q507 430 525 517Q530 542 530 559Q530 608 497 628Q464 648 399 648L298 648M162 0L82 0L233 720L433 720Q519 720 566.50 685Q614 650 614 576Q614 565 613 553Q612 541 607 517Q583 401 505 349Q439 305 331 305L226 305L162 0Z"  horiz-adv-x="534" vert-adv-y="1000"  />

      
      <glyph glyph-name="unid1" unicode="&#xd1;" d="M589 504L509 504Q515 533 515 560Q515 608 493 633Q468 662 413 662Q323 662 268 552Q237 490 212 371Q202 323 194.50 274Q187 225 187 189Q187 125 207 93Q231 55 286 55Q357 55 398 113Q430 157 458 260L538 260Q502 123 448 59Q384-17 276-17Q182-17 139 41Q103 90 103 181Q103 226 109 267Q115 308 128 369Q149 468 178 535Q217 627 272 675Q339 734 432 734Q513 734 556 688Q596 645 596 569Q596 549 595 538Q594 527 589 504Z"  horiz-adv-x="534" vert-adv-y="1000"  />

      
      <glyph glyph-name="uni0421" unicode="&#x0421;" d="M589 504L509 504Q515 533 515 560Q515 608 493 633Q468 662 413 662Q323 662 268 552Q237 490 212 371Q202 323 194.50 274Q187 225 187 189Q187 125 207 93Q231 55 286 55Q357 55 398 113Q430 157 458 260L538 260Q502 123 448 59Q384-17 276-17Q182-17 139 41Q103 90 103 181Q103 226 109 267Q115 308 128 369Q149 468 178 535Q217 627 272 675Q339 734 432 734Q513 734 556 688Q596 645 596 569Q596 549 595 538Q594 527 589 504Z"  horiz-adv-x="534" vert-adv-y="1000"  />

      
      <glyph glyph-name="unid2" unicode="&#xd2;" d="M150 648L165 720L618 720L603 648L417 648L281 0L201 0L337 648L150 648Z"  horiz-adv-x="480" vert-adv-y="1000"  />

      
      <glyph glyph-name="uni0422" unicode="&#x0422;" d="M150 648L165 720L618 720L603 648L417 648L281 0L201 0L337 648L150 648Z"  horiz-adv-x="480" vert-adv-y="1000"  />

      
      <glyph glyph-name="unid3" unicode="&#xd3;" d="M565 720L649 720L325 119Q283 40 240 8Q205-18 162-18Q142-18 129.50-16.50Q117-15 103-9L118 63Q126 58 140.50 56Q155 54 169 54Q192 54 208 68Q224 82 245 123L158 720L243 720L306 220L565 720Z"  horiz-adv-x="512" vert-adv-y="1000"  />

      
      <glyph glyph-name="uni0423" unicode="&#x0423;" d="M565 720L649 720L325 119Q283 40 240 8Q205-18 162-18Q142-18 129.50-16.50Q117-15 103-9L118 63Q126 58 140.50 56Q155 54 169 54Q192 54 208 68Q224 82 245 123L158 720L243 720L306 220L565 720Z"  horiz-adv-x="512" vert-adv-y="1000"  />

      
      <glyph glyph-name="unid4" unicode="&#xd4;" d="M463 720L543 720L528 646L548 646Q638 646 694 599Q757 546 757 446Q757 410 748 368Q719 229 625 154Q541 87 429 87L410 87L392 0L312 0L330 87L310 87Q217 87 162 134Q101 186 101 287Q101 323 110 368Q139 505 236 580Q321 646 427 646L448 646L463 720M513 574L425 159L446 159Q525 159 582 210Q644 266 666 370Q673 404 673 434Q673 504 635.50 539Q598 574 533 574L513 574M345 159L433 574L413 574Q334 574 277 525Q215 472 194 370Q186 330 186 301Q186 231 223 195Q260 159 324 159L345 159Z"  horiz-adv-x="706" vert-adv-y="1000"  />

      
      <glyph glyph-name="uni0424" unicode="&#x0424;" d="M463 720L543 720L528 646L548 646Q638 646 694 599Q757 546 757 446Q757 410 748 368Q719 229 625 154Q541 87 429 87L410 87L392 0L312 0L330 87L310 87Q217 87 162 134Q101 186 101 287Q101 323 110 368Q139 505 236 580Q321 646 427 646L448 646L463 720M513 574L425 159L446 159Q525 159 582 210Q644 266 666 370Q673 404 673 434Q673 504 635.50 539Q598 574 533 574L513 574M345 159L433 574L413 574Q334 574 277 525Q215 472 194 370Q186 330 186 301Q186 231 223 195Q260 159 324 159L345 159Z"  horiz-adv-x="706" vert-adv-y="1000"  />

      
      <glyph glyph-name="unid5" unicode="&#xd5;" d="M22 0L299 370L178 720L267 720L359 439L569 720L658 720L392 370L511 0L420 0L330 301L111 0L22 0Z"  horiz-adv-x="534" vert-adv-y="1000"  />

      
      <glyph glyph-name="uni0425" unicode="&#x0425;" d="M22 0L299 370L178 720L267 720L359 439L569 720L658 720L392 370L511 0L420 0L330 301L111 0L22 0Z"  horiz-adv-x="534" vert-adv-y="1000"  />

      
      <glyph glyph-name="unid6" unicode="&#xd6;" d="M171 72L446 72L582 720L662 720L526 72L585 72L535-168L458-168L493 0L76 0L227 720L307 720L171 72Z"  horiz-adv-x="587" vert-adv-y="1000"  />

      
      <glyph glyph-name="uni0426" unicode="&#x0426;" d="M171 72L446 72L582 720L662 720L526 72L585 72L535-168L458-168L493 0L76 0L227 720L307 720L171 72Z"  horiz-adv-x="587" vert-adv-y="1000"  />

      
      <glyph glyph-name="unid7" unicode="&#xd7;" d="M552 720L631 720L480 0L401 0L474 349Q446 344 406.50 342Q367 340 337 340Q254 340 216 366Q173 395 173 463Q173 489 181 527L221 720L301 720L263 536Q256 505 256 481Q256 442 281.50 427Q307 412 369 412L381 412Q422 412 441 413.50Q460 415 489 420L552 720Z"  horiz-adv-x="551" vert-adv-y="1000"  />

      
      <glyph glyph-name="uni0427" unicode="&#x0427;" d="M552 720L631 720L480 0L401 0L474 349Q446 344 406.50 342Q367 340 337 340Q254 340 216 366Q173 395 173 463Q173 489 181 527L221 720L301 720L263 536Q256 505 256 481Q256 442 281.50 427Q307 412 369 412L381 412Q422 412 441 413.50Q460 415 489 420L552 720Z"  horiz-adv-x="551" vert-adv-y="1000"  />

      
      <glyph glyph-name="unid8" unicode="&#xd8;" d="M227 720L307 720L171 72L395 72L531 720L611 720L475 72L699 72L835 720L915 720L764 0L76 0L227 720Z"  horiz-adv-x="839" vert-adv-y="1000"  />

      
      <glyph glyph-name="uni0428" unicode="&#x0428;" d="M227 720L307 720L171 72L395 72L531 720L611 720L475 72L699 72L835 720L915 720L764 0L76 0L227 720Z"  horiz-adv-x="839" vert-adv-y="1000"  />

      
      <glyph glyph-name="unid9" unicode="&#xd9;" d="M227 720L307 720L171 72L395 72L531 720L611 720L475 72L699 72L835 720L915 720L779 72L837 72L787-168L711-168L746 0L76 0L227 720Z"  horiz-adv-x="839" vert-adv-y="1000"  />

      
      <glyph glyph-name="uni0429" unicode="&#x0429;" d="M227 720L307 720L171 72L395 72L531 720L611 720L475 72L699 72L835 720L915 720L779 72L837 72L787-168L711-168L746 0L76 0L227 720Z"  horiz-adv-x="839" vert-adv-y="1000"  />

      
      <glyph glyph-name="unida" unicode="&#xda;" d="M237 72L294 342L362 342Q441 342 474 325Q514 304 514 249Q514 239 513 227Q512 215 509 203Q493 129 447 99Q406 72 328 72L237 72M373 720L146 720L131 648L278 648L142 0L332 0Q435 0 499 47Q569 99 591 203Q598 237 598 269Q598 349 543 384Q496 414 404 414L309 414L373 720Z"  horiz-adv-x="584" vert-adv-y="1000"  />

      
      <glyph glyph-name="uni042A" unicode="&#x042A;" d="M237 72L294 342L362 342Q441 342 474 325Q514 304 514 249Q514 239 513 227Q512 215 509 203Q493 129 447 99Q406 72 328 72L237 72M373 720L146 720L131 648L278 648L142 0L332 0Q435 0 499 47Q569 99 591 203Q598 237 598 269Q598 349 543 384Q496 414 404 414L309 414L373 720Z"  horiz-adv-x="584" vert-adv-y="1000"  />

      
      <glyph glyph-name="unidb" unicode="&#xdb;" d="M172 72L229 342L297 342Q375 342 409 325Q450 304 450 250Q450 230 444 203Q429 131 382 100Q340 72 263 72L172 72M308 720L228 720L77 0L267 0Q369 0 434 47Q504 98 526 202Q533 236 533 268Q533 348 478 383Q430 414 339 414L244 414L308 720M674 0L594 0L745 720L825 720L674 0Z"  horiz-adv-x="754" vert-adv-y="1000"  />

      
      <glyph glyph-name="uni042B" unicode="&#x042B;" d="M172 72L229 342L297 342Q375 342 409 325Q450 304 450 250Q450 230 444 203Q429 131 382 100Q340 72 263 72L172 72M308 720L228 720L77 0L267 0Q369 0 434 47Q504 98 526 202Q533 236 533 268Q533 348 478 383Q430 414 339 414L244 414L308 720M674 0L594 0L745 720L825 720L674 0Z"  horiz-adv-x="754" vert-adv-y="1000"  />

      
      <glyph glyph-name="unidc" unicode="&#xdc;" d="M172 72L229 342L297 342Q375 342 412 322.50Q449 303 449 248Q449 238 448 227Q447 216 444 203Q428 129 382 99Q341 72 263 72L172 72M308 720L228 720L77 0L268 0Q371 0 435 47Q505 98 527 203Q534 237 534 268Q534 348 478 384Q431 414 339 414L244 414L308 720Z"  horiz-adv-x="519" vert-adv-y="1000"  />

      
      <glyph glyph-name="uni042C" unicode="&#x042C;" d="M172 72L229 342L297 342Q375 342 412 322.50Q449 303 449 248Q449 238 448 227Q447 216 444 203Q428 129 382 99Q341 72 263 72L172 72M308 720L228 720L77 0L268 0Q371 0 435 47Q505 98 527 203Q534 237 534 268Q534 348 478 384Q431 414 339 414L244 414L308 720Z"  horiz-adv-x="519" vert-adv-y="1000"  />

      
      <glyph glyph-name="unidd" unicode="&#xdd;" d="M154 504L234 504Q254 577 289 616Q330 662 396 662Q451 662 476 621Q497 587 497 525Q497 495 493.50 471Q490 447 483 410L293 410L278 338L468 338Q439 200 403 139Q353 55 269 55Q216 55 194.50 83Q173 111 173 166Q173 200 177 224Q181 248 183 260L103 260Q91 201 91 155Q91 70 131 26.50Q171-17 257-17Q353-17 419 46Q472 96 509 195Q535 265 557 369Q566 412 572 454.50Q578 497 578 536Q578 626 544 675Q503 734 413 734Q317 734 249 671.50Q181 609 154 504Z"  horiz-adv-x="534" vert-adv-y="1000"  />

      
      <glyph glyph-name="uni042D" unicode="&#x042D;" d="M154 504L234 504Q254 577 289 616Q330 662 396 662Q451 662 476 621Q497 587 497 525Q497 495 493.50 471Q490 447 483 410L293 410L278 338L468 338Q439 200 403 139Q353 55 269 55Q216 55 194.50 83Q173 111 173 166Q173 200 177 224Q181 248 183 260L103 260Q91 201 91 155Q91 70 131 26.50Q171-17 257-17Q353-17 419 46Q472 96 509 195Q535 265 557 369Q566 412 572 454.50Q578 497 578 536Q578 626 544 675Q503 734 413 734Q317 734 249 671.50Q181 609 154 504Z"  horiz-adv-x="534" vert-adv-y="1000"  />

      
      <glyph glyph-name="unide" unicode="&#xde;" d="M246 410L372 410Q406 552 466 630Q546 734 676 734Q776 734 820 673Q857 622 857 527Q857 480 848 424Q845 404 836 361Q810 242 781 174Q743 84 684 37Q616-17 518-17Q418-17 374 37Q336 83 336 175Q336 208 341.50 249.50Q347 291 356 338L231 338L160 0L80 0L231 720L311 720L246 410M754 373Q773 459 773 519Q773 588 748 623Q720 662 659 662Q573 662 518 578Q473 509 445 373Q434 317 427 268Q420 219 420 184Q420 118 446 86.50Q472 55 534 55Q627 55 677 136Q718 202 754 373Z"  horiz-adv-x="815" vert-adv-y="1000"  />

      
      <glyph glyph-name="uni042E" unicode="&#x042E;" d="M246 410L372 410Q406 552 466 630Q546 734 676 734Q776 734 820 673Q857 622 857 527Q857 480 848 424Q845 404 836 361Q810 242 781 174Q743 84 684 37Q616-17 518-17Q418-17 374 37Q336 83 336 175Q336 208 341.50 249.50Q347 291 356 338L231 338L160 0L80 0L231 720L311 720L246 410M754 373Q773 459 773 519Q773 588 748 623Q720 662 659 662Q573 662 518 578Q473 509 445 373Q434 317 427 268Q420 219 420 184Q420 118 446 86.50Q472 55 534 55Q627 55 677 136Q718 202 754 373Z"  horiz-adv-x="815" vert-adv-y="1000"  />

      
      <glyph glyph-name="unidf" unicode="&#xdf;" d="M498 648L441 378L373 378Q297 378 263 396Q222 417 222 471Q222 491 228 517Q243 591 286.50 619.50Q330 648 407 648L498 648M362 0L442 0L593 720L403 720Q300 720 236 673Q167 622 145 517Q138 483 138 453Q138 397 166 363Q190 333 240 316L12 0L101 0L322 306L426 306L362 0Z"  horiz-adv-x="520" vert-adv-y="1000"  />

      
      <glyph glyph-name="uni042F" unicode="&#x042F;" d="M498 648L441 378L373 378Q297 378 263 396Q222 417 222 471Q222 491 228 517Q243 591 286.50 619.50Q330 648 407 648L498 648M362 0L442 0L593 720L403 720Q300 720 236 673Q167 622 145 517Q138 483 138 453Q138 397 166 363Q190 333 240 316L12 0L101 0L322 306L426 306L362 0Z"  horiz-adv-x="520" vert-adv-y="1000"  />

      
      <glyph glyph-name="unie0" unicode="&#xe0;" d="M322 213L338 291L281 265Q220 240 208 233Q151 202 137 136Q134 121 134 109Q134 54 191 54Q241 54 279 92Q292 104 302.50 136Q313 168 322 213M226 298Q258 309 284.50 319.50Q311 330 327 337Q343 344 350 360Q357 376 362 401Q364 408 365 418.50Q366 429 366 436Q366 484 299 484Q257 484 234 461Q211 438 201 390L133 390Q150 471 196.50 509.50Q243 548 320 548Q385 548 415 520Q445 492 445 445Q445 438 443.50 427.50Q442 417 441 412L374 97Q372 85 372 80Q372 54 394 54L412 56L400 0Q388-6 368-6Q330-6 318 6Q302 22 302 72Q278 35 240 10.50Q202-14 164-14Q52-14 52 84Q52 106 58 133Q72 201 109 235.50Q146 270 226 298Z"  horiz-adv-x="426" vert-adv-y="1000"  />

      
      <glyph glyph-name="uni0430" unicode="&#x0430;" d="M322 213L338 291L281 265Q220 240 208 233Q151 202 137 136Q134 121 134 109Q134 54 191 54Q241 54 279 92Q292 104 302.50 136Q313 168 322 213M226 298Q258 309 284.50 319.50Q311 330 327 337Q343 344 350 360Q357 376 362 401Q364 408 365 418.50Q366 429 366 436Q366 484 299 484Q257 484 234 461Q211 438 201 390L133 390Q150 471 196.50 509.50Q243 548 320 548Q385 548 415 520Q445 492 445 445Q445 438 443.50 427.50Q442 417 441 412L374 97Q372 85 372 80Q372 54 394 54L412 56L400 0Q388-6 368-6Q330-6 318 6Q302 22 302 72Q278 35 240 10.50Q202-14 164-14Q52-14 52 84Q52 106 58 133Q72 201 109 235.50Q146 270 226 298Z"  horiz-adv-x="426" vert-adv-y="1000"  />

      
      <glyph glyph-name="unie1" unicode="&#xe1;" d="M194 438Q257 521 339 521Q406 521 441.50 478.50Q477 436 477 357Q477 319 466 267Q437 125 376 55.50Q315-14 216-14Q142-14 107.50 26.50Q73 67 73 149Q73 216 92 305Q127 472 191 559Q250 639 340 661Q404 677 426 685Q463 699 472 720L534 720Q512 670 467 643Q428 620 358 605Q235 578 194 438M230 50Q289 50 326.50 104Q364 158 387 267Q396 311 396 347Q396 399 376.50 428Q357 457 315 457Q261 457 221.50 405.50Q182 354 163 267Q149 200 149 156Q149 50 230 50Z"  horiz-adv-x="447" vert-adv-y="1000"  />

      
      <glyph glyph-name="uni0431" unicode="&#x0431;" d="M194 438Q257 521 339 521Q406 521 441.50 478.50Q477 436 477 357Q477 319 466 267Q437 125 376 55.50Q315-14 216-14Q142-14 107.50 26.50Q73 67 73 149Q73 216 92 305Q127 472 191 559Q250 639 340 661Q404 677 426 685Q463 699 472 720L534 720Q512 670 467 643Q428 620 358 605Q235 578 194 438M230 50Q289 50 326.50 104Q364 158 387 267Q396 311 396 347Q396 399 376.50 428Q357 457 315 457Q261 457 221.50 405.50Q182 354 163 267Q149 200 149 156Q149 50 230 50Z"  horiz-adv-x="447" vert-adv-y="1000"  />

      
      <glyph glyph-name="unie2" unicode="&#xe2;" d="M243 472L209 309L289 309Q333 309 357.50 329.50Q382 350 391 394Q394 408 394 419Q394 472 326 472L243 472M196 247L157 62L246 62Q296 62 320 85Q344 108 354 157Q357 174 357 186Q357 247 290 247L196 247M266 0L68 0L180 534L353 534Q407 534 440 507.50Q473 481 473 434Q473 422 470 407Q460 356 430.50 323Q401 290 361 280Q432 259 432 184Q432 175 432 166Q429 152 428 145Q414 79 367.50 39.50Q321 0 266 0Z"  horiz-adv-x="437" vert-adv-y="1000"  />

      
      <glyph glyph-name="uni0432" unicode="&#x0432;" d="M243 472L209 309L289 309Q333 309 357.50 329.50Q382 350 391 394Q394 408 394 419Q394 472 326 472L243 472M196 247L157 62L246 62Q296 62 320 85Q344 108 354 157Q357 174 357 186Q357 247 290 247L196 247M266 0L68 0L180 534L353 534Q407 534 440 507.50Q473 481 473 434Q473 422 470 407Q460 356 430.50 323Q401 290 361 280Q432 259 432 184Q432 175 432 166Q429 152 428 145Q414 79 367.50 39.50Q321 0 266 0Z"  horiz-adv-x="437" vert-adv-y="1000"  />

      
      <glyph glyph-name="unie3" unicode="&#xe3;" d="M70 0L182 533L464 533L450 469L244 469L146 0L70 0Z"  horiz-adv-x="355" vert-adv-y="1000"  />

      
      <glyph glyph-name="uni0433" unicode="&#x0433;" d="M70 0L182 533L464 533L450 469L244 469L146 0L70 0Z"  horiz-adv-x="355" vert-adv-y="1000"  />

      
      <glyph glyph-name="unie4" unicode="&#xe4;" d="M77 64Q130 142 155.50 200.50Q181 259 202 358L239 534L531 534L432 64L484 64L441-145L370-145L400 0L88 0L58-145L-12-145L31 64L77 64M356 64L442 470L299 470L267 317Q251 240 225 183Q203 134 155 64L356 64Z"  horiz-adv-x="493" vert-adv-y="1000"  />

      
      <glyph glyph-name="uni0434" unicode="&#x0434;" d="M77 64Q130 142 155.50 200.50Q181 259 202 358L239 534L531 534L432 64L484 64L441-145L370-145L400 0L88 0L58-145L-12-145L31 64L77 64M356 64L442 470L299 470L267 317Q251 240 225 183Q203 134 155 64L356 64Z"  horiz-adv-x="493" vert-adv-y="1000"  />

      
      <glyph glyph-name="unie5" unicode="&#xe5;" d="M188 323L368 323Q372 345 376 369Q380 393 380 410Q380 445 365 464.50Q350 484 315 484Q272 484 242 452Q207 414 188 323M341 178L412 178Q399 95 349 43Q295-14 215-14Q148-14 116 19Q81 55 81 136Q81 191 97 268Q122 390 169 458Q230 548 327 548Q397 548 428 509Q455 475 455 409Q455 371 446 319Q443 303 435 261L175 261Q168 227 164 206Q156 162 156 131Q156 90 172 70Q188 50 227 50Q278 50 309 91Q335 125 341 178Z"  horiz-adv-x="426" vert-adv-y="1000"  />

      
      <glyph glyph-name="uni0435" unicode="&#x0435;" d="M188 323L368 323Q372 345 376 369Q380 393 380 410Q380 445 365 464.50Q350 484 315 484Q272 484 242 452Q207 414 188 323M341 178L412 178Q399 95 349 43Q295-14 215-14Q148-14 116 19Q81 55 81 136Q81 191 97 268Q122 390 169 458Q230 548 327 548Q397 548 428 509Q455 475 455 409Q455 371 446 319Q443 303 435 261L175 261Q168 227 164 206Q156 162 156 131Q156 90 172 70Q188 50 227 50Q278 50 309 91Q335 125 341 178Z"  horiz-adv-x="426" vert-adv-y="1000"  />

      
      <glyph glyph-name="unie6" unicode="&#xe6;" d="M360 0L284 0L324 190L282 266L93 0L4 0L243 327L121 534L211 534L344 285L396 534L472 534L420 285L656 534L746 534L538 327L639 0L550 0L473 266L400 190L360 0Z"  horiz-adv-x="644" vert-adv-y="1000"  />

      
      <glyph glyph-name="uni0436" unicode="&#x0436;" d="M360 0L284 0L324 190L282 266L93 0L4 0L243 327L121 534L211 534L344 285L396 534L472 534L420 285L656 534L746 534L538 327L639 0L550 0L473 266L400 190L360 0Z"  horiz-adv-x="644" vert-adv-y="1000"  />

      
      <glyph glyph-name="unie7" unicode="&#xe7;" d="M216 248L229 310L270 310Q302 310 330.50 335.50Q359 361 367 401Q369 408 369 422Q369 451 353 467.50Q337 484 300 484Q257 484 228.50 458.50Q200 433 189 391L119 391Q136 456 190.50 502Q245 548 315 548Q375 548 411 518Q447 488 447 440Q447 428 444 414Q433 361 401 328Q369 295 322 283Q357 275 379 251Q406 223 406 179Q406 171 406 163Q403 150 402 144Q388 73 332.50 29.50Q277-14 200-14Q60-14 60 119Q60 130 61.50 144.50Q63 159 64 168L134 168Q131 147 131 131Q131 85 149.50 67.50Q168 50 209 50Q255 50 285 73Q315 96 326 149Q329 164 329 177Q329 209 310.50 228.50Q292 248 258 248L216 248Z"  horiz-adv-x="409" vert-adv-y="1000"  />

      
      <glyph glyph-name="uni0437" unicode="&#x0437;" d="M216 248L229 310L270 310Q302 310 330.50 335.50Q359 361 367 401Q369 408 369 422Q369 451 353 467.50Q337 484 300 484Q257 484 228.50 458.50Q200 433 189 391L119 391Q136 456 190.50 502Q245 548 315 548Q375 548 411 518Q447 488 447 440Q447 428 444 414Q433 361 401 328Q369 295 322 283Q357 275 379 251Q406 223 406 179Q406 171 406 163Q403 150 402 144Q388 73 332.50 29.50Q277-14 200-14Q60-14 60 119Q60 130 61.50 144.50Q63 159 64 168L134 168Q131 147 131 131Q131 85 149.50 67.50Q168 50 209 50Q255 50 285 73Q315 96 326 149Q329 164 329 177Q329 209 310.50 228.50Q292 248 258 248L216 248Z"  horiz-adv-x="409" vert-adv-y="1000"  />

      
      <glyph glyph-name="unie8" unicode="&#xe8;" d="M255 534L170 128L148 64L179 128L441 534L530 534L418 0L345 0L430 405L452 471L421 405L159 0L70 0L182 534L255 534Z"  horiz-adv-x="487" vert-adv-y="1000"  />

      
      <glyph glyph-name="uni0438" unicode="&#x0438;" d="M255 534L170 128L148 64L179 128L441 534L530 534L418 0L345 0L430 405L452 471L421 405L159 0L70 0L182 534L255 534Z"  horiz-adv-x="487" vert-adv-y="1000"  />

      
      <glyph glyph-name="unie9" unicode="&#xe9;" d="M255 534L170 127L148 64L179 127L441 534L530 534L418 0L345 0L430 405L452 471L421 405L159 0L70 0L182 534L255 534M273 707L312 707Q312 672 330 656Q348 640 381 640Q416 640 438.50 655Q461 670 476 707L516 707Q501 647 461 617.50Q421 588 366 588Q322 588 298 609Q271 633 271 679Q271 697 273 707Z"  horiz-adv-x="487" vert-adv-y="1000"  />

      
      <glyph glyph-name="uni0439" unicode="&#x0439;" d="M255 534L170 127L148 64L179 127L441 534L530 534L418 0L345 0L430 405L452 471L421 405L159 0L70 0L182 534L255 534M273 707L312 707Q312 672 330 656Q348 640 381 640Q416 640 438.50 655Q461 670 476 707L516 707Q501 647 461 617.50Q421 588 366 588Q322 588 298 609Q271 633 271 679Q271 697 273 707Z"  horiz-adv-x="487" vert-adv-y="1000"  />

      
      <glyph glyph-name="uniea" unicode="&#xea;" d="M142 0L66 0L178 534L254 534L202 285L439 534L529 534L321 327L422 0L333 0L256 266L182 190L142 0Z"  horiz-adv-x="426" vert-adv-y="1000"  />

      
      <glyph glyph-name="uni043A" unicode="&#x043A;" d="M142 0L66 0L178 534L254 534L202 285L439 534L529 534L321 327L422 0L333 0L256 266L182 190L142 0Z"  horiz-adv-x="426" vert-adv-y="1000"  />

      
      <glyph glyph-name="unieb" unicode="&#xeb;" d="M212 534L527 534L415 0L339 0L438 470L272 470L227 258Q200 128 167 69Q126-4 59-4Q32-4 12 4L24 62L56 59Q88 59 108.50 99.50Q129 140 155 264L212 534Z"  horiz-adv-x="480" vert-adv-y="1000"  />

      
      <glyph glyph-name="uni043B" unicode="&#x043B;" d="M212 534L527 534L415 0L339 0L438 470L272 470L227 258Q200 128 167 69Q126-4 59-4Q32-4 12 4L24 62L56 59Q88 59 108.50 99.50Q129 140 155 264L212 534Z"  horiz-adv-x="480" vert-adv-y="1000"  />

      
      <glyph glyph-name="uniec" unicode="&#xec;" d="M536 0L648 534L530 534L359 182L319 74L321 182L298 534L180 534L68 0L141 0L243 487L276 0L327 0L562 470L463 0L536 0Z"  horiz-adv-x="605" vert-adv-y="1000"  />

      
      <glyph glyph-name="uni043C" unicode="&#x043C;" d="M536 0L648 534L530 534L359 182L319 74L321 182L298 534L180 534L68 0L141 0L243 487L276 0L327 0L562 470L463 0L536 0Z"  horiz-adv-x="605" vert-adv-y="1000"  />

      
      <glyph glyph-name="unied" unicode="&#xed;" d="M70 0L182 534L258 534L212 313L401 313L447 534L523 534L411 0L335 0L387 249L198 249L146 0L70 0Z"  horiz-adv-x="479" vert-adv-y="1000"  />

      
      <glyph glyph-name="uni043D" unicode="&#x043D;" d="M70 0L182 534L258 534L212 313L401 313L447 534L523 534L411 0L335 0L387 249L198 249L146 0L70 0Z"  horiz-adv-x="479" vert-adv-y="1000"  />

      
      <glyph glyph-name="uniee" unicode="&#xee;" d="M355 548Q429 548 465 506Q501 464 501 385Q501 336 487 268Q455 113 389 45Q332-14 237-14Q165-14 130 20Q90 58 90 145Q90 195 105 269Q134 406 195.50 477Q257 548 355 548M342 484Q281 484 245 433.50Q209 383 183 261Q169 197 169 153Q169 103 188 76.50Q207 50 251 50Q314 50 352 108Q385 158 407 261Q423 335 423 385Q423 438 404 461Q385 484 342 484Z"  horiz-adv-x="480" vert-adv-y="1000"  />

      
      <glyph glyph-name="uni043E" unicode="&#x043E;" d="M355 548Q429 548 465 506Q501 464 501 385Q501 336 487 268Q455 113 389 45Q332-14 237-14Q165-14 130 20Q90 58 90 145Q90 195 105 269Q134 406 195.50 477Q257 548 355 548M342 484Q281 484 245 433.50Q209 383 183 261Q169 197 169 153Q169 103 188 76.50Q207 50 251 50Q314 50 352 108Q385 158 407 261Q423 335 423 385Q423 438 404 461Q385 484 342 484Z"  horiz-adv-x="480" vert-adv-y="1000"  />

      
      <glyph glyph-name="unief" unicode="&#xef;" d="M182 534L523 534L411 0L335 0L434 470L245 470L146 0L70 0L182 534Z"  horiz-adv-x="479" vert-adv-y="1000"  />

      
      <glyph glyph-name="uni043F" unicode="&#x043F;" d="M182 534L523 534L411 0L335 0L434 470L245 470L146 0L70 0L182 534Z"  horiz-adv-x="479" vert-adv-y="1000"  />

      
      <glyph glyph-name="unif0" unicode="&#xf0;" d="M201 268Q193 228 188.50 198Q184 168 184 148Q184 102 198 79Q216 50 258 50Q315 50 352 109Q385 162 409 276Q416 306 419 329Q422 352 422 379Q422 426 407 452Q389 484 348 484Q271 484 229 370Q214 330 201 268M157 55L107-181L31-181L181 533L254 533L242 474Q268 511 301.50 529.50Q335 548 370 548Q440 548 472 505Q501 466 501 392Q501 340 487 275Q458 139 410 69Q352-15 258-15Q220-15 196.50 3Q173 21 157 55Z"  horiz-adv-x="480" vert-adv-y="1000"  />

      
      <glyph glyph-name="uni0440" unicode="&#x0440;" d="M201 268Q193 228 188.50 198Q184 168 184 148Q184 102 198 79Q216 50 258 50Q315 50 352 109Q385 162 409 276Q416 306 419 329Q422 352 422 379Q422 426 407 452Q389 484 348 484Q271 484 229 370Q214 330 201 268M157 55L107-181L31-181L181 533L254 533L242 474Q268 511 301.50 529.50Q335 548 370 548Q440 548 472 505Q501 466 501 392Q501 340 487 275Q458 139 410 69Q352-15 258-15Q220-15 196.50 3Q173 21 157 55Z"  horiz-adv-x="480" vert-adv-y="1000"  />

      
      <glyph glyph-name="unif1" unicode="&#xf1;" d="M328 484Q267 484 227 414Q197 361 176 260Q169 228 164.50 199.50Q160 171 160 146Q160 101 176.50 75.50Q193 50 234 50Q289 50 319 93Q338 120 356 186L428 186Q407 98 363 48Q308-14 225-14Q146-14 111 29Q81 66 81 136Q81 173 87 211Q88 216 97 260Q123 386 173 457Q237 548 342 548Q404 548 436 513Q468 478 468 420Q468 395 462 366L391 366Q393 375 394.50 385.50Q396 396 396 412Q396 445 382 463Q365 484 328 484Z"  horiz-adv-x="426" vert-adv-y="1000"  />

      
      <glyph glyph-name="uni0441" unicode="&#x0441;" d="M328 484Q267 484 227 414Q197 361 176 260Q169 228 164.50 199.50Q160 171 160 146Q160 101 176.50 75.50Q193 50 234 50Q289 50 319 93Q338 120 356 186L428 186Q407 98 363 48Q308-14 225-14Q146-14 111 29Q81 66 81 136Q81 173 87 211Q88 216 97 260Q123 386 173 457Q237 548 342 548Q404 548 436 513Q468 478 468 420Q468 395 462 366L391 366Q393 375 394.50 385.50Q396 396 396 412Q396 445 382 463Q365 484 328 484Z"  horiz-adv-x="426" vert-adv-y="1000"  />

      
      <glyph glyph-name="unif2" unicode="&#xf2;" d="M222 0L146 0L245 470L105 470L118 534L473 534L460 470L321 470L222 0Z"  horiz-adv-x="366" vert-adv-y="1000"  />

      
      <glyph glyph-name="uni0442" unicode="&#x0442;" d="M222 0L146 0L245 470L105 470L118 534L473 534L460 470L321 470L222 0Z"  horiz-adv-x="366" vert-adv-y="1000"  />

      
      <glyph glyph-name="unif3" unicode="&#xf3;" d="M172-9L116 534L195 534L232 108L441 534L520 534L241-3Q194-95 162-129Q112-182 40-182Q12-182-12-173L2-106Q25-118 55-118Q93-118 122-87Q144-64 172-9Z"  horiz-adv-x="426" vert-adv-y="1000"  />

      
      <glyph glyph-name="uni0443" unicode="&#x0443;" d="M172-9L116 534L195 534L232 108L441 534L520 534L241-3Q194-95 162-129Q112-182 40-182Q12-182-12-173L2-106Q25-118 55-118Q93-118 122-87Q144-64 172-9Z"  horiz-adv-x="426" vert-adv-y="1000"  />

      
      <glyph glyph-name="unif4" unicode="&#xf4;" d="M370-180L295-180L345 56Q314 21 284.50 3.50Q255-14 216-14Q147-14 116 28Q89 65 89 138Q89 192 106 277Q132 399 183 467Q244 548 338 548Q372 548 398 529.50Q424 511 434 474L486 720L557 720L506 474Q532 511 565 529.50Q598 548 633 548Q703 548 736 504Q766 464 766 390Q766 366 762 337.50Q758 309 752 277Q725 145 675 74Q614-14 519-14Q481-14 458.50 3.50Q436 21 420 56L370-180M389 268Q394 291 399.50 327Q405 363 405 386Q405 431 391 455Q374 484 334 484Q271 484 229 407Q202 358 185.50 277.50Q169 197 169 151Q169 50 242 50Q310 50 349 131Q370 175 389 268M465 268Q458 237 453 207Q448 177 448 148Q448 103 464.50 76.50Q481 50 522 50Q579 50 616 109Q649 162 673 277Q680 307 683 330Q686 353 686 380Q686 426 671 452Q653 484 612 484Q535 484 493 370Q478 329 465 268Z"  horiz-adv-x="743" vert-adv-y="1000"  />

      
      <glyph glyph-name="uni0444" unicode="&#x0444;" d="M370-180L295-180L345 56Q314 21 284.50 3.50Q255-14 216-14Q147-14 116 28Q89 65 89 138Q89 192 106 277Q132 399 183 467Q244 548 338 548Q372 548 398 529.50Q424 511 434 474L486 720L557 720L506 474Q532 511 565 529.50Q598 548 633 548Q703 548 736 504Q766 464 766 390Q766 366 762 337.50Q758 309 752 277Q725 145 675 74Q614-14 519-14Q481-14 458.50 3.50Q436 21 420 56L370-180M389 268Q394 291 399.50 327Q405 363 405 386Q405 431 391 455Q374 484 334 484Q271 484 229 407Q202 358 185.50 277.50Q169 197 169 151Q169 50 242 50Q310 50 349 131Q370 175 389 268M465 268Q458 237 453 207Q448 177 448 148Q448 103 464.50 76.50Q481 50 522 50Q579 50 616 109Q649 162 673 277Q680 307 683 330Q686 353 686 380Q686 426 671 452Q653 484 612 484Q535 484 493 370Q478 329 465 268Z"  horiz-adv-x="743" vert-adv-y="1000"  />

      
      <glyph glyph-name="unif5" unicode="&#xf5;" d="M230 275L130 534L209 534L288 330L446 534L525 534L317 275L418 0L340 0L262 220L87 0L9 0L230 275Z"  horiz-adv-x="426" vert-adv-y="1000"  />

      
      <glyph glyph-name="uni0445" unicode="&#x0445;" d="M230 275L130 534L209 534L288 330L446 534L525 534L317 275L418 0L340 0L262 220L87 0L9 0L230 275Z"  horiz-adv-x="426" vert-adv-y="1000"  />

      
      <glyph glyph-name="unif6" unicode="&#xf6;" d="M159 64L348 64L447 533L523 533L424 64L476 64L432-146L362-146L393 0L70 0L182 533L258 533L159 64Z"  horiz-adv-x="492" vert-adv-y="1000"  />

      
      <glyph glyph-name="uni0446" unicode="&#x0446;" d="M159 64L348 64L447 533L523 533L424 64L476 64L432-146L362-146L393 0L70 0L182 533L258 533L159 64Z"  horiz-adv-x="492" vert-adv-y="1000"  />

      
      <glyph glyph-name="unif7" unicode="&#xf7;" d="M502 534L390 0L314 0L366 249Q339 243 314 241Q289 239 248 239Q193 239 166.50 266.50Q140 294 140 339Q140 350 140 361Q143 372 144 376L177 534L253 534L221 383Q219 369 218 363Q217 357 217 352Q217 326 232.50 314.50Q248 303 288 303L311 303Q329 303 346.50 304Q364 305 379 308L426 534L502 534Z"  horiz-adv-x="461" vert-adv-y="1000"  />

      
      <glyph glyph-name="uni0447" unicode="&#x0447;" d="M502 534L390 0L314 0L366 249Q339 243 314 241Q289 239 248 239Q193 239 166.50 266.50Q140 294 140 339Q140 350 140 361Q143 372 144 376L177 534L253 534L221 383Q219 369 218 363Q217 357 217 352Q217 326 232.50 314.50Q248 303 288 303L311 303Q329 303 346.50 304Q364 305 379 308L426 534L502 534Z"  horiz-adv-x="461" vert-adv-y="1000"  />

      
      <glyph glyph-name="unif8" unicode="&#xf8;" d="M586 64L685 534L761 534L649 0L73 0L185 534L261 534L162 64L336 64L435 534L511 534L412 64L586 64Z"  horiz-adv-x="718" vert-adv-y="1000"  />

      
      <glyph glyph-name="uni0448" unicode="&#x0448;" d="M586 64L685 534L761 534L649 0L73 0L185 534L261 534L162 64L336 64L435 534L511 534L412 64L586 64Z"  horiz-adv-x="718" vert-adv-y="1000"  />

      
      <glyph glyph-name="unif9" unicode="&#xf9;" d="M586 64L685 534L761 534L662 64L714 64L671-145L601-145L631 0L73 0L185 534L261 534L162 64L336 64L435 534L511 534L412 64L586 64Z"  horiz-adv-x="718" vert-adv-y="1000"  />

      
      <glyph glyph-name="uni0449" unicode="&#x0449;" d="M586 64L685 534L761 534L662 64L714 64L671-145L601-145L631 0L73 0L185 534L261 534L162 64L336 64L435 534L511 534L412 64L586 64Z"  horiz-adv-x="718" vert-adv-y="1000"  />

      
      <glyph glyph-name="unifa" unicode="&#xfa;" d="M227 247L188 62L268 62Q319 62 347 85.50Q375 109 385 155Q388 172 388 185Q388 247 312 247L227 247M282 0L99 0L198 471L93 471L106 534L287 534L240 309L347 309Q403 309 434 277Q465 245 465 191Q465 182 465 173Q462 159 461 152Q447 84 397 42Q347 0 282 0Z"  horiz-adv-x="468" vert-adv-y="1000"  />

      
      <glyph glyph-name="uni044A" unicode="&#x044A;" d="M227 247L188 62L268 62Q319 62 347 85.50Q375 109 385 155Q388 172 388 185Q388 247 312 247L227 247M282 0L99 0L198 471L93 471L106 534L287 534L240 309L347 309Q403 309 434 277Q465 245 465 191Q465 182 465 173Q462 159 461 152Q447 84 397 42Q347 0 282 0Z"  horiz-adv-x="468" vert-adv-y="1000"  />

      
      <glyph glyph-name="unifb" unicode="&#xfb;" d="M196 247L157 62L237 62Q289 62 317 85Q345 108 355 155Q358 172 358 185Q358 247 282 247L196 247M252 0L68 0L180 534L256 534L209 309L317 309Q373 309 404 277Q435 245 435 191Q435 182 435 173Q432 159 431 152Q417 84 367 42Q317 0 252 0M562 0L486 0L598 534L674 534L562 0Z"  horiz-adv-x="630" vert-adv-y="1000"  />

      
      <glyph glyph-name="uni044B" unicode="&#x044B;" d="M196 247L157 62L237 62Q289 62 317 85Q345 108 355 155Q358 172 358 185Q358 247 282 247L196 247M252 0L68 0L180 534L256 534L209 309L317 309Q373 309 404 277Q435 245 435 191Q435 182 435 173Q432 159 431 152Q417 84 367 42Q317 0 252 0M562 0L486 0L598 534L674 534L562 0Z"  horiz-adv-x="630" vert-adv-y="1000"  />

      
      <glyph glyph-name="unifc" unicode="&#xfc;" d="M196 247L157 62L236 62Q288 62 316 85Q344 108 354 155Q357 172 357 185Q357 247 281 247L196 247M251 0L68 0L180 534L256 534L209 309L316 309Q372 309 403 277Q434 245 434 192Q434 171 430 152Q416 84 366 42Q316 0 251 0Z"  horiz-adv-x="437" vert-adv-y="1000"  />

      
      <glyph glyph-name="uni044C" unicode="&#x044C;" d="M196 247L157 62L236 62Q288 62 316 85Q344 108 354 155Q357 172 357 185Q357 247 281 247L196 247M251 0L68 0L180 534L256 534L209 309L316 309Q372 309 403 277Q434 245 434 192Q434 171 430 152Q416 84 366 42Q316 0 251 0Z"  horiz-adv-x="437" vert-adv-y="1000"  />

      
      <glyph glyph-name="unifd" unicode="&#xfd;" d="M240 313L226 249L361 249Q341 152 316 109Q282 50 222 50Q180 50 163 69.50Q146 89 146 128Q146 138 148 156Q150 174 152 186L80 186Q72 146 72 117Q72 53 105 19.50Q138-14 210-14Q311-14 371 71Q417 136 443 261Q450 295 454 326Q458 357 458 389Q458 462 431 501Q399 548 326 548Q248 548 191 494Q138 444 122 366L193 366Q205 418 230 447Q262 484 313 484Q351 484 367 458Q383 432 383 387Q383 351 374 313L240 313Z"  horiz-adv-x="426" vert-adv-y="1000"  />

      
      <glyph glyph-name="uni044D" unicode="&#x044D;" d="M240 313L226 249L361 249Q341 152 316 109Q282 50 222 50Q180 50 163 69.50Q146 89 146 128Q146 138 148 156Q150 174 152 186L80 186Q72 146 72 117Q72 53 105 19.50Q138-14 210-14Q311-14 371 71Q417 136 443 261Q450 295 454 326Q458 357 458 389Q458 462 431 501Q399 548 326 548Q248 548 191 494Q138 444 122 366L193 366Q205 418 230 447Q262 484 313 484Q351 484 367 458Q383 432 383 387Q383 351 374 313L240 313Z"  horiz-adv-x="426" vert-adv-y="1000"  />

      
      <glyph glyph-name="unife" unicode="&#xfe;" d="M213 313L305 313Q333 424 392 484Q455 548 545 548Q621 548 657.50 506Q694 464 694 384Q694 339 682 285Q647 120 581 49Q522-14 427-14Q357-14 321 22Q281 63 281 151Q281 196 291 249L199 249L147 0L71 0L183 534L259 534L213 313M532 484Q473 484 435.50 432.50Q398 381 373 261Q359 197 359 153Q359 103 378 76.50Q397 50 441 50Q505 50 543 108Q576 158 598 261Q614 334 614 384Q614 484 532 484Z"  horiz-adv-x="670" vert-adv-y="1000"  />

      
      <glyph glyph-name="uni044E" unicode="&#x044E;" d="M213 313L305 313Q333 424 392 484Q455 548 545 548Q621 548 657.50 506Q694 464 694 384Q694 339 682 285Q647 120 581 49Q522-14 427-14Q357-14 321 22Q281 63 281 151Q281 196 291 249L199 249L147 0L71 0L183 534L259 534L213 313M532 484Q473 484 435.50 432.50Q398 381 373 261Q359 197 359 153Q359 103 378 76.50Q397 50 441 50Q505 50 543 108Q576 158 598 261Q614 334 614 384Q614 484 532 484Z"  horiz-adv-x="670" vert-adv-y="1000"  />

      
      <glyph glyph-name="uniff" unicode="&#xff;" d="M349 287L388 472L306 472Q255 472 227.50 448.50Q200 425 191 379Q189 372 188 363.50Q187 355 187 348Q187 287 263 287L349 287M293 534L477 534L365 0L289 0L336 225L254 225L98 0L15 0L178 233Q110 261 110 345Q110 356 110 367Q113 378 114 382Q129 451 178.50 492.50Q228 534 293 534Z"  horiz-adv-x="434" vert-adv-y="1000"  />

      
      <glyph glyph-name="uni044F" unicode="&#x044F;" d="M349 287L388 472L306 472Q255 472 227.50 448.50Q200 425 191 379Q189 372 188 363.50Q187 355 187 348Q187 287 263 287L349 287M293 534L477 534L365 0L289 0L336 225L254 225L98 0L15 0L178 233Q110 261 110 345Q110 356 110 367Q113 378 114 382Q129 451 178.50 492.50Q228 534 293 534Z"  horiz-adv-x="434" vert-adv-y="1000"  />

      

  </font>
</defs>
</svg>
